<?xml version="1.0" standalone="no"?>
<!DOCTYPE svg PUBLIC "-//W3C//DTD SVG 1.1//EN" "http://www.w3.org/Graphics/SVG/1.1/DTD/svg11.dtd" >
<svg xmlns="http://www.w3.org/2000/svg" xmlns:xlink="http://www.w3.org/1999/xlink" version="1.1">
<metadata>
Created by FontForge 20170731 at Tue Mar 16 14:49:53 2021
 By Aleksey,,,
Copyright (c) 1995 ParaGraph Intl., (c) 1998 ParaType Inc., ParaType Ltd. All rights reserved.
</metadata>
<defs>
<font id="FuturaPT-Demi" horiz-adv-x="1024" >
  <font-face 
    font-family="Futura PT Demi"
    font-weight="500"
    font-stretch="normal"
    units-per-em="2048"
    panose-1="2 11 7 2 2 2 4 2 3 3"
    ascent="1563"
    descent="-485"
    x-height="887"
    cap-height="1366"
    bbox="-754 -553 2335 1966"
    underline-thickness="102"
    underline-position="-307"
    unicode-range="U+0020-FB02"
  />
<missing-glyph horiz-adv-x="477" 
 />
    <glyph glyph-name="afii10017.var.accented" unicode="&#x410;`" horiz-adv-x="1376" 
d="M1085 0l-120 287h-551l-121 -287h-289l588 1366h209l571 -1366h-287zM498 504h389l-195 491zM639 1491l-115 102l287 291l184 -143z" />
    <glyph glyph-name="afii10022.var.accented" unicode="&#x415;`" horiz-adv-x="1015" 
d="M913 1366v-229h-491v-306h471v-229h-471v-373h491v-229h-757v1366h757zM459 1491l-115 102l287 291l184 -143z" />
    <glyph glyph-name="afii10026.var.accented" unicode="&#x418;`" horiz-adv-x="1515" 
d="M156 1366h266v-909l749 909h189v-1366h-266v913l-750 -913h-188v1366zM709 1491l-115 102l287 291l184 -143z" />
    <glyph glyph-name="afii10032.var.accented" unicode="&#x41e;`" horiz-adv-x="1638" 
d="M819 1397q212 0 378.5 -91.5t258.5 -254.5t92 -369t-92 -368.5t-258.5 -253.5t-378.5 -91t-378.5 91t-258.5 253.5t-92 368.5t92 369t258.5 254.5t378.5 91.5zM819 211q200 0 327.5 132t127.5 339t-128 340t-327 133t-326.5 -133t-127.5 -340t127 -339t327 -132z
M770 1491l-115 102l287 291l184 -143z" />
    <glyph glyph-name="afii10037.var.accented" unicode="&#x423;`" horiz-adv-x="1249" 
d="M4 1366h311l347 -688l292 688h291l-633 -1366h-290l190 381zM575 1491l-114 102l287 291l184 -143z" />
    <glyph glyph-name="afii10045.var.accented" unicode="&#x42b;`" horiz-adv-x="1638" 
d="M156 0v1366h266v-535h213q215 0 336 -112q127 -117 127 -305q0 -137 -74 -246q-114 -168 -387 -168h-481zM422 602v-373h156q19 0 35 1t48.5 5.5t57.5 17t50.5 31.5t39.5 52.5t14 77.5q0 36 -10.5 66.5t-35.5 59.5t-75 45.5t-120 16.5h-160zM1217 1366h266v-1366h-266
v1366zM770 1491l-115 102l287 291l184 -143z" />
    <glyph glyph-name="afii10047.var.accented" unicode="&#x42d;`" horiz-adv-x="1251" 
d="M90 49v311q145 -149 361 -149q159 0 283.5 94.5t152.5 265.5h-613v230h609q-28 168 -149 261t-273 93q-219 0 -371 -154v312q162 84 356 84q321 0 510 -180q97 -94 151 -236.5t54 -298.5q0 -102 -21 -192.5t-56 -155t-64.5 -104t-61.5 -70.5q-191 -191 -509 -191
q-196 0 -359 80zM473 1491l-115 102l287 291l184 -143z" />
    <glyph glyph-name="afii10048.var.accented" unicode="&#x42e;`" horiz-adv-x="2101" 
d="M422 838h188q35 202 172 350q194 209 525 209q155 0 287 -54t223 -148t142.5 -226.5t51.5 -286.5t-51.5 -286t-143 -226t-223 -147.5t-286.5 -53.5q-308 0 -498 183q-189 184 -207 456h-180v-608h-266v1366h266v-528zM1307 211q192 0 311 130.5t119 340.5
q0 95 -25.5 174.5t-67.5 134t-98 92t-116.5 55t-122.5 17.5t-122.5 -17.5t-116.5 -55t-98 -92t-67.5 -134t-25.5 -174.5q0 -210 119 -340.5t311 -130.5zM1001 1491l-114 102l287 291l184 -143z" />
    <glyph glyph-name="afii10049.var.accented" unicode="&#x42f;`" horiz-adv-x="1163" 
d="M1008 1366v-1366h-267v528h-49l-348 -528h-319l405 553q-82 13 -149 61t-110.5 133.5t-43.5 196.5q0 200 135 318q72 63 157 83.5t193 20.5h396zM741 1149h-82q-20 0 -37 -1.5t-51 -6.5t-60 -18.5t-53 -34.5t-42 -58.5t-15 -85.5q0 -43 12.5 -77t30 -55t45 -36.5
t49.5 -22.5t51.5 -11t43 -4.5t31.5 -0.5h77v412zM532 1491l-114 102l287 291l184 -143z" />
    <glyph glyph-name="afii10023.var.accented" unicode="&#x401;`" horiz-adv-x="1015" 
d="M913 1366v-229h-491v-306h471v-229h-471v-373h491v-229h-757v1366h757zM422 1522l-72 67l230 295l127 -117zM100 1686q0 44 35 83t88 39t89 -36.5t36 -85.5q0 -46 -37 -85.5t-88 -39.5q-46 0 -84.5 38t-38.5 87zM719 1686q0 43 34.5 82.5t90.5 39.5t90.5 -39.5
t34.5 -82.5q0 -47 -39 -86t-86 -39t-86 39t-39 86z" />
    <glyph glyph-name="afii10065.var.accented" unicode="&#x430;`" horiz-adv-x="1167" 
d="M799 772v115h250v-887h-250v115q-100 -144 -273 -144q-200 0 -326 137t-126 336q0 131 54.5 238t156 170t229.5 63q193 0 285 -143zM578 694q-107 0 -176.5 -71.5t-69.5 -178.5t70 -179t176 -72t175.5 72t69.5 179t-69.5 178.5t-175.5 71.5zM723 1434l180 -115l-307 -275
l-115 82z" />
    <glyph glyph-name="afii10070.var.accented" unicode="&#x435;`" horiz-adv-x="1069" 
d="M760 285l229 -37q-12 -29 -26 -55.5t-50 -70t-80.5 -74t-118.5 -54t-161 -23.5q-209 0 -340 125q-139 130 -139 346q0 214 135 349q126 124 334 124q226 0 346 -145q106 -127 106 -348v-21h-663q0 -91 43 -149q61 -84 178 -84q140 0 207 117zM340 561h420q-14 86 -75 132
t-136 46q-74 0 -134.5 -46.5t-74.5 -131.5zM674 1434l180 -115l-307 -275l-115 82z" />
    <glyph glyph-name="afii10074.var.accented" unicode="&#x438;`" horiz-adv-x="1146" 
d="M119 887h250v-547l409 547h250v-887h-250v547l-409 -547h-250v887zM713 1434l180 -115l-307 -275l-115 82z" />
    <glyph glyph-name="afii10080.var.accented" unicode="&#x43e;`" horiz-adv-x="1163" 
d="M582 915q223 0 358 -124q69 -62 109.5 -153t40.5 -196q0 -104 -40.5 -194t-109.5 -152q-136 -125 -358 -125q-223 0 -359 125q-68 62 -108.5 152t-40.5 194q0 105 40.5 196t108.5 153q135 124 359 124zM582 193q107 0 178 73t71 176q0 105 -71.5 178.5t-177.5 73.5
t-178 -73.5t-72 -178.5q0 -103 71.5 -176t178.5 -73zM721 1434l180 -115l-307 -275l-115 82z" />
    <glyph glyph-name="afii10085.var.accented" unicode="&#x443;`" horiz-adv-x="1101" 
d="M100 -469l326 602l-422 754h291l274 -504l246 504h283l-715 -1356h-283zM690 1434l180 -115l-307 -275l-114 82z" />
    <glyph glyph-name="afii10093.var.accented" unicode="&#x44b;`" horiz-adv-x="1331" 
d="M119 887h250v-316h194q157 0 238 -90q67 -70 67 -190q0 -144 -94 -225q-76 -66 -199 -66h-456v887zM369 197h116q63 0 93 22q32 24 32 72q0 43 -32 63q-32 21 -86 21h-123v-178zM963 887h249v-887h-249v887zM805 1434l180 -115l-307 -275l-115 82z" />
    <glyph glyph-name="afii10095.var.accented" unicode="&#x44d;`" horiz-adv-x="888" 
d="M70 18v242q106 -86 258 -86q108 0 164 49q56 50 59 135h-367v181h367q-12 81 -68 125q-60 55 -157 55q-141 0 -252 -76v217q133 55 270 55q221 0 346 -133q125 -130 125 -340q0 -110 -36 -199.5t-95 -146.5q-59 -59 -148 -93t-192 -34q-160 0 -274 49zM494 1434l180 -115
l-307 -275l-115 82z" />
    <glyph glyph-name="afii10096.var.accented" unicode="&#x44e;`" horiz-adv-x="1536" 
d="M369 553h120q22 137 127 238q130 124 347 124t352 -124q67 -60 107 -152.5t40 -196.5q0 -102 -40 -193t-107 -153q-135 -125 -352 -125q-215 0 -347 125q-105 101 -127 244h-120v-340h-250v887h250v-334zM963 193q104 0 172.5 72.5t68.5 176.5q0 107 -68 179.5t-173 72.5
t-173.5 -72.5t-68.5 -179.5q0 -104 69 -176.5t173 -72.5zM907 1434l180 -115l-307 -275l-114 82z" />
    <glyph glyph-name="afii10097.var.accented" unicode="&#x44f;`" horiz-adv-x="942" 
d="M41 0l262 332q-86 12 -143 69q-70 70 -70 189q0 137 107 223q41 33 93.5 50t89.5 20.5t91 3.5h352v-887h-250v311h-28l-217 -311h-287zM573 492v198h-108q-21 0 -30 -0.5t-25 -6t-29 -17.5q-33 -30 -33 -78q0 -50 33 -74q30 -22 84 -22h108zM610 1434l181 -115l-308 -275
l-114 82z" />
    <glyph glyph-name="afii10071.var.accented" unicode="&#x451;`" horiz-adv-x="1069" 
d="M760 285l229 -37q-12 -29 -26 -55.5t-50 -70t-80.5 -74t-118.5 -54t-161 -23.5q-209 0 -340 125q-139 130 -139 346q0 214 135 349q126 124 334 124q226 0 346 -145q106 -127 106 -348v-21h-663q0 -91 43 -149q61 -84 178 -84q140 0 207 117zM340 561h420q-14 86 -75 132
t-136 46q-74 0 -134.5 -46.5t-74.5 -131.5zM600 1434l137 -84l-276 -281l-82 57zM106 1214q0 55 39.5 94.5t92.5 39.5q55 0 94 -39t39 -95q0 -53 -39 -92t-94 -39q-54 0 -93 38.5t-39 92.5zM713 1214q0 54 39 94t94 40q53 0 93 -39.5t40 -94.5q0 -54 -39.5 -92.5
t-93.5 -38.5q-55 0 -94 39t-39 92z" />
    <glyph glyph-name="fi" unicode="fi" horiz-adv-x="1081" 
d="M602 674h-229v-674h-250v674h-94v213h94v221q0 64 1.5 92t16.5 77.5t47 92.5q52 69 142 108.5t213 39.5q259 0 358 -148q10 -15 18.5 -30.5t14.5 -28.5t10.5 -29.5l7.5 -27.5t5.5 -28t3.5 -25.5t1.5 -26t0.5 -23v-23v-20.5v-59h-250v53q0 81 -27 123q-43 67 -143 67
q-99 0 -142 -67q-28 -43 -28 -123v-215h229v-213zM713 887h250v-887h-250v887z" />
    <glyph glyph-name="fl" unicode="fl" horiz-adv-x="1081" 
d="M602 674h-229v-674h-250v674h-94v213h94v221q0 64 1.5 92t16.5 77.5t47 92.5q52 69 142 108.5t213 39.5q259 0 358 -148q10 -15 18.5 -30.5t14.5 -28.5t10.5 -29.5l7.5 -27.5t5.5 -28t3.5 -25.5t1.5 -26t0.5 -23v-23v-20.5v-1108h-250v1102q0 81 -27 123q-43 67 -143 67
q-99 0 -142 -67q-28 -43 -28 -123v-215h229v-213z" />
    <glyph glyph-name=".notdef" horiz-adv-x="477" 
 />
    <glyph glyph-name=".null" horiz-adv-x="0" 
 />
    <glyph glyph-name="nonmarkingreturn" horiz-adv-x="682" 
 />
    <glyph glyph-name="space" unicode=" " horiz-adv-x="477" 
 />
    <glyph glyph-name="exclam" unicode="!" horiz-adv-x="516" 
d="M385 416h-254v950h254v-950zM98 133q0 67 46 113.5t114 46.5t114 -46.5t46 -113.5t-46 -113.5t-114 -46.5t-114 46.5t-46 113.5z" />
    <glyph glyph-name="quotedbl" unicode="&#x22;" horiz-adv-x="794" 
d="M352 1366l-47 -549h-172l-47 549h266zM709 1366l-47 -549h-173l-47 549h267z" />
    <glyph glyph-name="numbersign" unicode="#" horiz-adv-x="1228" 
d="M860 0h-250l62 381h-193l-61 -381h-250l61 381h-209l35 213h209l33 207h-209l35 213h209l57 352h250l-57 -352h192l57 352h250l-57 -352h209l-35 -213h-209l-33 -207h209l-35 -213h-208zM707 594l32 207h-192l-33 -207h193z" />
    <glyph glyph-name="dollar" unicode="$" horiz-adv-x="1163" 
d="M508 1567h168v-205q87 -6 168 -47q83 -45 139 -107l-135 -172q-91 111 -215 111q-92 0 -139 -49q-39 -39 -39 -97q0 -57 53 -96q35 -25 168 -84q12 -6 48.5 -21.5t55.5 -24.5t48.5 -24.5t52.5 -32.5t43 -36q104 -98 104 -254q0 -93 -34 -172.5t-89 -132.5
q-93 -93 -229 -119v-229h-168v225q-145 15 -260 94q-90 61 -150 150l154 157q55 -79 117 -122q79 -58 186 -58q101 0 156 53q51 51 51 127q0 62 -47 113q-28 30 -148 80q-186 76 -272 158q-51 47 -73.5 101t-22.5 134q0 147 92 250q88 97 217 125v205z" />
    <glyph glyph-name="percent" unicode="%" horiz-adv-x="1585" 
d="M406 1382q157 0 250.5 -90.5t93.5 -232.5t-93.5 -233t-250.5 -91t-251 91t-94 233t94 232.5t251 90.5zM406 883q75 0 123.5 49.5t48.5 126.5t-48.5 126.5t-123.5 49.5t-124 -50t-49 -126t49 -126t124 -50zM332 6l813 1405l108 -61l-813 -1407zM1180 627q157 0 250.5 -91
t93.5 -233t-93.5 -232.5t-250.5 -90.5t-250.5 90.5t-93.5 232.5t93.5 233t250.5 91zM1180 127q75 0 123.5 49.5t48.5 126.5t-48.5 126.5t-123.5 49.5t-123.5 -49.5t-48.5 -126.5t48.5 -126.5t123.5 -49.5z" />
    <glyph glyph-name="ampersand" unicode="&#x26;" horiz-adv-x="1454" 
d="M1184 664l155 -154q-78 -97 -147 -166l-31 -31l277 -313h-330l-133 154q-204 -185 -440 -185q-102 0 -185 33t-135.5 88.5t-80.5 125t-28 144.5q0 214 220 347l106 63q-137 137 -137 287q0 65 24 125t69 108.5t118.5 77.5t165.5 29q170 0 268 -96t98 -230
q0 -82 -45.5 -162t-146.5 -141l-58 -35l226 -258q108 106 170 189zM825 322l-258 296q-194 -103 -194 -235q0 -77 57 -128.5t143 -51.5q74 0 140.5 37t111.5 82zM602 948l60 -74l61 44q94 65 94 151q0 56 -34 95.5t-99 39.5q-67 0 -103 -38t-36 -89q0 -60 57 -129z" />
    <glyph glyph-name="quotesingle" unicode="'" horiz-adv-x="438" 
d="M352 1366l-47 -549h-172l-47 549h266z" />
    <glyph glyph-name="parenleft" unicode="(" horiz-adv-x="655" 
d="M541 -260l-199 -109q-98 183 -152 422q-51 233 -51 520q0 270 47 492q54 246 156 451l199 -109q-68 -140 -113 -344q-51 -248 -51 -490q0 -261 51 -497q40 -185 113 -336z" />
    <glyph glyph-name="parenright" unicode=")" horiz-adv-x="655" 
d="M313 -369l-198 109q72 147 112 336q52 241 52 497q0 237 -52 490q-23 106 -47 183t-65 161l198 109q102 -205 156 -451q47 -222 47 -492q0 -287 -51 -520q-54 -239 -152 -422z" />
    <glyph glyph-name="asterisk" unicode="*" horiz-adv-x="1163" 
d="M295 1395l233 -119l-41 258h189l-41 -258l233 121l58 -180l-260 -41l186 -185l-154 -110l-116 235l-117 -237l-154 110l187 187l-260 38z" />
    <glyph glyph-name="plus" unicode="+" 
d="M68 580v229h319v319h250v-319h319v-229h-319v-320h-250v320h-319z" />
    <glyph glyph-name="comma" unicode="," horiz-adv-x="671" 
d="M8 -268l217 551l230 -27l-289 -543z" />
    <glyph glyph-name="hyphen" unicode="-" horiz-adv-x="737" 
d="M102 356v230h533v-230h-533z" />
    <glyph glyph-name="period" unicode="." horiz-adv-x="516" 
d="M98 133q0 67 46 113.5t114 46.5t114 -46.5t46 -113.5t-46 -113.5t-114 -46.5t-114 46.5t-46 113.5z" />
    <glyph glyph-name="slash" unicode="/" horiz-adv-x="1337" 
d="M-41 -348l1075 1902l180 -81l-1075 -1903z" />
    <glyph glyph-name="zero" unicode="0" horiz-adv-x="1163" 
d="M582 -31q-104 0 -198 46.5t-168.5 133.5t-118.5 225.5t-44 309.5q0 137 29 254t79 200t117 142.5t144.5 88t159.5 28.5q104 0 197.5 -46.5t168 -133.5t118.5 -225.5t44 -309.5q0 -170 -44 -308t-118.5 -225t-168 -133.5t-197.5 -46.5zM582 1167q-46 0 -90 -26.5t-84 -81
t-64.5 -152t-24.5 -223.5q0 -103 16 -187t42.5 -138t61.5 -91t70.5 -53t72.5 -16t72.5 16t70 53t61 91t42.5 138t16 187q0 126 -24.5 223.5t-64 152t-83.5 81t-90 26.5z" />
    <glyph glyph-name="one" unicode="1" horiz-adv-x="1163" 
d="M467 0v1137h-197v229h463v-1366h-266z" />
    <glyph glyph-name="two" unicode="2" horiz-adv-x="1163" 
d="M37 0l401 457q198 230 234 284q80 119 80 220q0 91 -58 148.5t-145 57.5q-99 0 -156.5 -66.5t-60.5 -160.5h-275q9 207 142.5 332t337.5 125q115 0 208.5 -37t151.5 -99t89.5 -138.5t31.5 -159.5q0 -61 -17 -121.5t-38 -103.5t-61.5 -97.5t-63.5 -80.5t-68 -75l-235 -256
h493v-229h-991z" />
    <glyph glyph-name="three" unicode="3" horiz-adv-x="1163" 
d="M354 1010h-250q18 181 141.5 284t303.5 103q196 0 312 -102.5t116 -274.5q0 -199 -158 -287q23 -9 43.5 -20.5t53 -39t55.5 -60.5t40 -87t17 -118q0 -204 -138.5 -321.5t-348.5 -117.5q-200 0 -337.5 115.5t-154.5 308.5h266q12 -87 72 -140.5t156 -53.5q107 0 163 65
t56 152q0 40 -12.5 76t-38 67.5t-71 50.5t-105.5 19h-35v192h37q92 0 139 54.5t47 132.5q0 82 -49 131t-131 49q-75 0 -130 -47t-59 -131z" />
    <glyph glyph-name="four" unicode="4" horiz-adv-x="1163" 
d="M963 1366v-895h159v-213h-159v-258h-250v258h-668v119l678 989h240zM360 471h353v520z" />
    <glyph glyph-name="five" unicode="5" horiz-adv-x="1163" 
d="M967 1366v-229h-455l-49 -215q54 8 92 8q106 0 199 -37.5t153 -99.5q121 -123 121 -328q0 -217 -139 -356q-78 -78 -168 -109t-207 -31q-177 0 -295 58q-92 45 -166 116l88 230q59 -78 142 -123q94 -51 198 -51q132 0 209 82q72 76 72 198q0 117 -80 189q-79 69 -213 69
q-148 0 -295 -88l162 717h631z" />
    <glyph glyph-name="six" unicode="6" horiz-adv-x="1163" 
d="M635 1403l215 -105l-332 -432q75 33 150 33q79 0 161 -30.5t140 -86.5q57 -54 93 -139.5t36 -187.5q0 -194 -125 -330q-82 -89 -177 -122.5t-212 -33.5q-120 0 -215 30.5t-174 109.5q-134 134 -134 331q0 115 45 216t127 210zM580 182q108 0 178 70q73 73 73 180
q0 117 -75 189q-68 65 -176 65t-179 -74q-73 -76 -73 -178q0 -115 75 -184q72 -68 177 -68z" />
    <glyph glyph-name="seven" unicode="7" horiz-adv-x="1163" 
d="M100 59l629 1078h-635v229h1053l-821 -1407z" />
    <glyph glyph-name="eight" unicode="8" horiz-adv-x="1163" 
d="M813 713q113 -36 178.5 -128.5t65.5 -211.5q0 -173 -129.5 -288.5t-345.5 -115.5t-346 115.5t-130 288.5q0 119 65.5 211.5t178.5 128.5q-86 42 -141 119t-55 184q0 76 27.5 143.5t79 121t135 85t186.5 31.5t186.5 -31.5t135 -85t79 -121t27.5 -143.5q0 -107 -55.5 -184
t-141.5 -119zM582 823q85 0 137.5 53t52.5 138t-52.5 137.5t-137.5 52.5t-138 -52.5t-53 -137.5t53 -138t138 -53zM582 178q90 0 149.5 60t59.5 153t-59.5 153t-149.5 60t-149.5 -60t-59.5 -153t59.5 -153t149.5 -60z" />
    <glyph glyph-name="nine" unicode="9" horiz-adv-x="1163" 
d="M528 -37l-215 105l326 426q-83 -27 -145 -27q-76 0 -159 30.5t-140 86.5q-57 54 -93 139.5t-36 187.5q0 195 124 330q82 88 177.5 122t212.5 34q120 0 215 -30.5t174 -109.5q133 -133 133 -331q0 -115 -45 -216t-127 -210zM584 1184q-108 0 -178 -70q-74 -74 -74 -180
q0 -116 76 -189q68 -65 176 -65q107 0 178 74q74 77 74 178q0 112 -76 184q-72 68 -176 68z" />
    <glyph glyph-name="colon" unicode=":" horiz-adv-x="516" 
d="M98 756q0 67 46 113t114 46t114 -46t46 -113q0 -68 -46 -114t-114 -46t-114 46t-46 114zM98 131q0 67 46 113.5t114 46.5t114 -46.5t46 -113.5t-46 -113.5t-114 -46.5t-114 46.5t-46 113.5z" />
    <glyph glyph-name="semicolon" unicode=";" horiz-adv-x="671" 
d="M172 756q0 67 46 113t114 46t114 -46t46 -113q0 -68 -46 -114t-114 -46t-114 46t-46 114zM8 -268l217 551l230 -27l-289 -543z" />
    <glyph glyph-name="less" unicode="&#x3c;" 
d="M330 684l626 -307v-246l-888 447v213l888 446v-246z" />
    <glyph glyph-name="equal" unicode="=" 
d="M68 762v217h888v-217h-888zM68 410v217h888v-217h-888z" />
    <glyph glyph-name="greater" unicode="&#x3e;" 
d="M694 684l-626 307v246l888 -446v-213l-888 -447v246z" />
    <glyph glyph-name="question" unicode="?" horiz-adv-x="1003" 
d="M580 416h-254v401q33 -8 80 -8q122 0 192 70q53 56 53 137q0 76 -43 119q-41 41 -106 41q-68 0 -105 -37q-45 -39 -45 -133h-266q0 77 29 153t73 123q111 115 324 115q192 0 299 -105q107 -103 107 -282q0 -160 -105 -265q-95 -95 -233 -114v-215zM293 129
q0 67 46.5 113.5t113.5 46.5t113 -46t46 -114t-46 -114t-113 -46t-113.5 46.5t-46.5 113.5z" />
    <glyph glyph-name="at" unicode="@" horiz-adv-x="1503" 
d="M958 922l17 86h172l-82 -416q-8 -40 -8 -70q0 -69 53 -69q48 0 94 67q35 48 57.5 117t22.5 139q0 67 -18 131.5t-57 124.5t-95 104.5t-138 71.5t-181 27q-109 0 -202 -34t-157.5 -90t-110.5 -129.5t-67.5 -152.5t-21.5 -159q0 -170 89.5 -310.5t239.5 -195.5
q97 -35 228 -35q195 0 383 68l38 -156q-197 -66 -409 -66q-327 0 -522 181q-108 99 -161.5 236t-53.5 280q0 210 96.5 374.5t262 253.5t368.5 89q124 0 229 -33t180 -90t128 -133t78.5 -163t25.5 -179q0 -103 -29 -194t-77 -152.5t-108.5 -96.5t-123.5 -35q-57 0 -101 30
t-57 85q-93 -131 -252 -131q-123 0 -206 84.5t-83 236.5q0 97 32.5 177t85 129.5t114.5 76.5t125 27q141 0 202 -106zM733 471q70 0 125 63.5t55 163.5q0 64 -34 108t-99 44q-78 0 -132 -64.5t-54 -158.5q0 -75 41.5 -115.5t97.5 -40.5z" />
    <glyph glyph-name="A" unicode="A" horiz-adv-x="1376" 
d="M1085 0l-120 287h-551l-121 -287h-289l588 1366h209l571 -1366h-287zM498 504h389l-195 491z" />
    <glyph glyph-name="B" unicode="B" horiz-adv-x="1167" 
d="M156 1366h338q42 0 71 -1.5t79.5 -8.5t97 -26.5t85.5 -49.5q60 -46 93.5 -121t33.5 -162q0 -61 -17.5 -111.5t-46 -82t-48.5 -47.5t-41 -27q104 -16 178 -86q98 -93 98 -256q0 -172 -116 -276q-126 -111 -347 -111h-458v1366zM422 1149v-350h76q20 0 38 1.5t51.5 11.5
t57 27t42 53t18.5 85q0 88 -57.5 130t-147.5 42h-78zM422 594v-377h115q120 0 182 37q84 50 84 158q0 109 -101 155q-57 27 -182 27h-98z" />
    <glyph glyph-name="C" unicode="C" horiz-adv-x="1236" 
d="M1147 360v-311q-153 -80 -338 -80q-168 0 -286 50t-214 141q-115 111 -167 239t-52 283q0 174 61 309t158 226q191 180 502 180q182 0 336 -84v-312q-44 50 -95.5 84t-99.5 47.5t-78.5 18t-56.5 4.5q-133 0 -237.5 -67t-159.5 -175t-55 -235q0 -110 40 -200.5
t105.5 -147.5t147.5 -88t169 -31q193 0 320 149z" />
    <glyph glyph-name="D" unicode="D" horiz-adv-x="1372" 
d="M156 1366h356q162 0 282.5 -27.5t225.5 -105.5q125 -94 193.5 -237.5t68.5 -313.5q0 -172 -70 -314.5t-204 -236.5q-111 -79 -225.5 -105t-274.5 -26h-352v1366zM422 1137v-908h82q209 0 334 90q81 58 125.5 155t44.5 208q0 109 -44 207t-124 158q-122 90 -336 90h-82z
" />
    <glyph glyph-name="E" unicode="E" horiz-adv-x="1015" 
d="M913 1366v-229h-491v-306h471v-229h-471v-373h491v-229h-757v1366h757z" />
    <glyph glyph-name="F" unicode="F" horiz-adv-x="954" 
d="M881 1366v-229h-459v-306h430v-229h-430v-602h-266v1366h725z" />
    <glyph glyph-name="G" unicode="G" horiz-adv-x="1564" 
d="M848 502v229h627v-16q0 -50 -6 -104.5t-23.5 -139.5t-61.5 -170.5t-110 -150.5q-181 -181 -486 -181q-145 0 -268 40.5t-227 144.5q-20 20 -39.5 43.5t-51.5 73.5t-55 104.5t-40 136t-17 168.5q0 307 201 508q205 209 538 209q180 0 316 -72q157 -80 256 -250l-232 -125
q-54 106 -159 162q-85 43 -193 43q-86 0 -170 -31t-145 -90q-61 -60 -99 -154.5t-38 -205.5q0 -216 135 -346q121 -117 303 -117q159 0 268 82q98 76 129 209h-352z" />
    <glyph glyph-name="H" unicode="H" horiz-adv-x="1421" 
d="M422 1366v-528h577v528h267v-1366h-267v608h-577v-608h-266v1366h266z" />
    <glyph glyph-name="I" unicode="I" horiz-adv-x="577" 
d="M156 1366h266v-1366h-266v1366z" />
    <glyph glyph-name="J" unicode="J" horiz-adv-x="798" 
d="M377 1366h266v-922q0 -59 -4 -104t-18.5 -107t-49 -114t-88.5 -88q-94 -62 -223 -62q-181 0 -313 127l162 195q51 -74 133 -74q75 0 104 47q15 22 22.5 64.5t8 68t0.5 88.5v881z" />
    <glyph glyph-name="K" unicode="K" horiz-adv-x="1302" 
d="M422 1366v-578l502 578h336l-578 -631l608 -735h-352l-485 612l-31 -30v-582h-266v1366h266z" />
    <glyph glyph-name="L" unicode="L" horiz-adv-x="872" 
d="M156 1366h266v-1137h422v-229h-688v1366z" />
    <glyph glyph-name="M" unicode="M" horiz-adv-x="1781" 
d="M86 0l254 1366h192l363 -868l379 868h192l230 -1366h-271l-122 842l-367 -842h-90l-350 842l-140 -842h-270z" />
    <glyph glyph-name="N" unicode="N" horiz-adv-x="1593" 
d="M422 0h-266v1366h184l831 -911v911h267v-1366h-185l-831 913v-913z" />
    <glyph glyph-name="O" unicode="O" horiz-adv-x="1638" 
d="M819 1397q212 0 378.5 -91.5t258.5 -254.5t92 -369t-92 -368.5t-258.5 -253.5t-378.5 -91t-378.5 91t-258.5 253.5t-92 368.5t92 369t258.5 254.5t378.5 91.5zM819 211q200 0 327.5 132t127.5 339t-128 340t-327 133t-326.5 -133t-127.5 -340t127 -339t327 -132z" />
    <glyph glyph-name="P" unicode="P" horiz-adv-x="1093" 
d="M156 1366h397q126 0 208 -21t152 -83q140 -124 140 -330q0 -27 -3.5 -57t-13.5 -75t-35 -91t-61 -82q-121 -121 -346 -121h-172v-506h-266v1366zM422 1137v-402h108q36 0 57.5 1.5t56.5 11.5t61 30q73 58 73 160q0 99 -76 156q-61 43 -188 43h-92z" />
    <glyph glyph-name="Q" unicode="Q" horiz-adv-x="1638" 
d="M1321 -53l-113 121q-89 -53 -181 -76t-208 -23q-212 0 -378.5 90.5t-258.5 253t-92 369.5q0 206 92 369t258.5 254.5t378.5 91.5t378.5 -91.5t258.5 -254.5t92 -369q0 -286 -180 -485l221 -224zM1026 549l158 -162q90 119 90 295q0 207 -128 340t-327 133t-326.5 -133
t-127.5 -340t128 -339t332 -132q115 0 203 45l-278 270z" />
    <glyph glyph-name="R" unicode="R" horiz-adv-x="1175" 
d="M156 1366h395q227 0 348 -102q135 -114 135 -308q0 -101 -41 -184.5t-119 -136.5q-62 -44 -149 -60l426 -575h-332l-364 549h-33v-549h-266v1366zM422 1149v-412h76q24 0 47.5 2t65.5 13.5t72 31.5t53.5 61.5t23.5 98.5q0 48 -15 85.5t-42 58.5t-53 34.5t-60 18.5
t-51 6.5t-37 1.5h-80z" />
    <glyph glyph-name="S" unicode="S" horiz-adv-x="1093" 
d="M967 1237l-140 -182q-88 116 -223 116q-51 0 -89.5 -14.5t-59 -39t-30 -51t-9.5 -54.5q0 -54 43 -92q23 -21 55.5 -35.5t108.5 -42.5q100 -35 164.5 -65t111.5 -72q117 -105 117 -287q0 -200 -131.5 -324.5t-343.5 -124.5q-89 0 -168 24.5t-136.5 66.5t-96 81.5
t-70.5 85.5l174 166q46 -93 125.5 -137.5t160.5 -44.5q92 0 151.5 51.5t59.5 136.5q0 73 -53 123q-24 22 -64 42.5t-65 29.5t-82 29q-152 53 -227 118q-109 94 -109 254q0 78 26.5 148t78.5 128t138.5 92t195.5 34q231 0 387 -160z" />
    <glyph glyph-name="T" unicode="T" horiz-adv-x="905" 
d="M893 1137h-307v-1137h-267v1137h-307v229h881v-229z" />
    <glyph glyph-name="U" unicode="U" horiz-adv-x="1409" 
d="M156 1366h266v-858q0 -130 65 -203q78 -94 218 -94q139 0 217 94q65 73 65 203v858h266v-836q0 -235 -102 -364q-72 -95 -191.5 -146t-254.5 -51t-255 51t-192 146q-102 129 -102 364v836z" />
    <glyph glyph-name="V" unicode="V" horiz-adv-x="1318" 
d="M4 1366h291l364 -917l365 917h291l-578 -1366h-159z" />
    <glyph glyph-name="W" unicode="W" horiz-adv-x="2002" 
d="M993 866l-313 -866h-201l-475 1366h283l305 -930l334 942h147l316 -942l327 930h283l-506 -1366h-201z" />
    <glyph glyph-name="X" unicode="X" horiz-adv-x="1310" 
d="M16 0l484 721l-408 645h320l239 -424l252 424h320l-420 -645l467 -721h-320l-299 500l-315 -500h-320z" />
    <glyph glyph-name="Y" unicode="Y" horiz-adv-x="1208" 
d="M465 0v625l-469 741h315l293 -475l293 475h315l-481 -741v-625h-266z" />
    <glyph glyph-name="Z" unicode="Z" horiz-adv-x="1196" 
d="M1151 1366l-664 -1137h631v-229h-1073l664 1137h-559v229h1001z" />
    <glyph glyph-name="bracketleft" unicode="[" horiz-adv-x="716" 
d="M614 1280h-192v-1436h192v-213h-430v1862h430v-213z" />
    <glyph glyph-name="backslash" unicode="\" horiz-adv-x="1337" 
d="M1378 -348l-180 -82l-1075 1903l180 81z" />
    <glyph glyph-name="bracketright" unicode="]" horiz-adv-x="716" 
d="M102 -156h193v1436h-193v213h430v-1862h-430v213z" />
    <glyph glyph-name="asciicircum" unicode="^" 
d="M512 1182l-236 -494h-260l332 678h328l332 -678h-260z" />
    <glyph glyph-name="underscore" unicode="_" 
d="M0 -324v213h1024v-213h-1024z" />
    <glyph glyph-name="grave" unicode="`" 
d="M500 1044l-307 275l180 115l241 -308z" />
    <glyph glyph-name="a" unicode="a" horiz-adv-x="1167" 
d="M799 772v115h250v-887h-250v115q-100 -144 -273 -144q-200 0 -326 137t-126 336q0 131 54.5 238t156 170t229.5 63q193 0 285 -143zM578 694q-107 0 -176.5 -71.5t-69.5 -178.5t70 -179t176 -72t175.5 72t69.5 179t-69.5 178.5t-175.5 71.5z" />
    <glyph glyph-name="b" unicode="b" horiz-adv-x="1167" 
d="M369 1493v-721q102 143 288 143q194 0 315.5 -133.5t121.5 -337.5t-124 -338.5t-319 -134.5q-178 0 -282 144v-115h-250v1493h250zM590 694q-107 0 -176.5 -71.5t-69.5 -178.5t70 -179t176 -72t176 72t70 179t-69.5 178.5t-176.5 71.5z" />
    <glyph glyph-name="c" unicode="c" horiz-adv-x="856" 
d="M786 862v-246q-84 78 -204 78q-118 0 -184 -73t-66 -177q0 -109 73 -180t185 -71q110 0 196 77v-243q-110 -56 -229 -56q-101 0 -190.5 35t-151.5 94q-141 131 -141 340q0 113 41 205.5t112 155.5q129 114 320 114q130 0 239 -53z" />
    <glyph glyph-name="d" unicode="d" horiz-adv-x="1167" 
d="M799 772v721h250v-1493h-250v115q-100 -144 -273 -144q-200 0 -326 137t-126 336q0 131 54.5 238t156 170t229.5 63q193 0 285 -143zM578 694q-107 0 -176.5 -71.5t-69.5 -178.5t70 -179t176 -72t175.5 72t69.5 179t-69.5 178.5t-175.5 71.5z" />
    <glyph glyph-name="e" unicode="e" horiz-adv-x="1069" 
d="M760 285l229 -37q-12 -29 -26 -55.5t-50 -70t-80.5 -74t-118.5 -54t-161 -23.5q-209 0 -340 125q-139 130 -139 346q0 214 135 349q126 124 334 124q226 0 346 -145q106 -127 106 -348v-21h-663q0 -91 43 -149q61 -84 178 -84q140 0 207 117zM340 561h420q-14 86 -75 132
t-136 46q-74 0 -134.5 -46.5t-74.5 -131.5z" />
    <glyph glyph-name="f" unicode="f" horiz-adv-x="598" 
d="M602 674h-229v-674h-250v674h-94v213h94v243q0 40 3 72.5t13.5 79t36 88.5t64.5 74q87 74 219 74q76 0 143 -31v-227q-47 36 -113 36q-60 0 -90 -45q-26 -43 -26 -153v-211h229v-213z" />
    <glyph glyph-name="g" unicode="g" horiz-adv-x="1163" 
d="M795 772v115h249v-846q0 -126 -23.5 -219t-98.5 -168q-125 -125 -351 -125q-217 0 -331 102q-51 43 -90 115.5t-54 149.5h271q17 -69 61 -107q51 -47 152 -47q92 0 151 55q39 37 51.5 84.5t12.5 112.5v125q-97 -148 -273 -148q-183 0 -307 121q-141 141 -141 352
q0 104 36 197t101 156q121 118 305 118q185 0 279 -143zM578 694q-101 0 -166 -61q-80 -72 -80 -189q0 -105 65 -174q72 -77 181 -77q98 0 165 61q80 74 80 190q0 104 -71 179q-68 71 -174 71z" />
    <glyph glyph-name="h" unicode="h" horiz-adv-x="1093" 
d="M119 0v1493h250v-721q102 143 274 143q71 0 142.5 -25t119.5 -83q70 -87 70 -250v-557h-250v483q0 125 -47 174q-43 45 -117 45q-101 0 -153 -77q-39 -60 -39 -172v-453h-250z" />
    <glyph glyph-name="i" unicode="i" horiz-adv-x="487" 
d="M119 887h250v-887h-250v887zM94 1262q0 61 44 105t106 44t105.5 -43.5t43.5 -105.5t-44 -106t-105 -44q-62 0 -106 44t-44 106z" />
    <glyph glyph-name="j" unicode="j" horiz-adv-x="487" 
d="M119 887h250v-1356h-250v1356zM94 1262q0 61 44 105t106 44t105.5 -43.5t43.5 -105.5t-44 -106t-105 -44q-62 0 -106 44t-44 106z" />
    <glyph glyph-name="k" unicode="k" horiz-adv-x="1048" 
d="M119 1493h250v-930l331 324h324l-416 -389l449 -498h-332l-330 379l-26 -25v-354h-250v1493z" />
    <glyph glyph-name="l" unicode="l" horiz-adv-x="487" 
d="M119 1493h250v-1493h-250v1493z" />
    <glyph glyph-name="m" unicode="m" horiz-adv-x="1617" 
d="M119 0v887h250v-101q102 129 264 129q53 0 98.5 -13t74 -30.5t52.5 -42t35 -41t20 -34.5q41 66 111 113.5t174 47.5q156 0 240 -108q39 -52 50 -107.5t11 -142.5v-557h-250v483q0 122 -41 174q-36 45 -102 45q-93 0 -137 -77q-35 -56 -35 -172v-453h-250v483
q0 122 -41 174q-36 45 -102 45q-94 0 -138 -77q-34 -55 -34 -172v-453h-250z" />
    <glyph glyph-name="n" unicode="n" horiz-adv-x="1093" 
d="M119 0v887h250v-115q102 143 274 143q71 0 142.5 -25t119.5 -83q70 -87 70 -250v-557h-250v483q0 125 -47 174q-43 45 -117 45q-101 0 -153 -77q-39 -60 -39 -172v-453h-250z" />
    <glyph glyph-name="o" unicode="o" horiz-adv-x="1163" 
d="M582 915q223 0 358 -124q69 -62 109.5 -153t40.5 -196q0 -104 -40.5 -194t-109.5 -152q-136 -125 -358 -125q-223 0 -359 125q-68 62 -108.5 152t-40.5 194q0 105 40.5 196t108.5 153q135 124 359 124zM582 193q107 0 178 73t71 176q0 105 -71.5 178.5t-177.5 73.5
t-178 -73.5t-72 -178.5q0 -103 71.5 -176t178.5 -73z" />
    <glyph glyph-name="p" unicode="p" horiz-adv-x="1167" 
d="M369 115v-584h-250v1356h250v-115q101 143 288 143q186 0 304 -118q133 -133 133 -353q0 -223 -140 -358q-124 -115 -301 -115q-178 0 -284 144zM590 694q-97 0 -162 -59q-84 -72 -84 -191q0 -120 82 -192q67 -59 164 -59q101 0 168 63q38 35 58 85.5t20 102.5
q0 51 -20 102t-56 85q-69 63 -170 63z" />
    <glyph glyph-name="q" unicode="q" horiz-adv-x="1167" 
d="M799 -469v584q-106 -144 -285 -144q-177 0 -301 115q-139 134 -139 358q0 220 133 353q118 118 303 118q188 0 289 -143v115h250v-1356h-250zM578 694q-101 0 -170 -63q-36 -34 -56 -85t-20 -102q0 -52 20 -102.5t58 -85.5q67 -63 168 -63q96 0 163 59q82 72 82 192
q0 119 -84 191q-65 59 -161 59z" />
    <glyph glyph-name="r" unicode="r" horiz-adv-x="737" 
d="M119 0v887h250v-133q18 35 42 63.5t39.5 40.5t28.5 19q59 38 148 38q48 0 106 -20l-33 -233q-46 32 -116 32q-109 0 -166 -71q-22 -27 -33.5 -65t-13.5 -65t-2 -67v-426h-250z" />
    <glyph glyph-name="s" unicode="s" horiz-adv-x="827" 
d="M725 821l-123 -145q-63 59 -145 59q-44 0 -70.5 -19.5t-26.5 -51.5q0 -54 80 -80l60 -19q51 -17 81.5 -28.5t75.5 -39t68 -59.5q45 -62 45 -147q0 -135 -98 -225q-104 -95 -266 -95q-207 0 -345 148l132 151q39 -45 91 -73.5t105 -28.5q54 0 88.5 25.5t34.5 70.5
q0 62 -78 90l-57 21q-42 15 -67.5 26t-62 32.5t-61.5 47.5q-67 70 -67 170q0 61 25.5 114t66.5 87q80 63 231 63q159 0 283 -94z" />
    <glyph glyph-name="t" unicode="t" horiz-adv-x="552" 
d="M541 674h-172v-674h-250v674h-99v213h99v303h250v-303h172v-213z" />
    <glyph glyph-name="u" unicode="u" horiz-adv-x="1097" 
d="M119 887h250v-502q0 -107 53 -156q52 -45 127 -45t127 45q53 49 53 156v502h250v-543q0 -78 -21.5 -146t-87.5 -126q-58 -51 -145 -76t-176 -25t-176.5 25t-145.5 76q-66 58 -87 126t-21 146v543z" />
    <glyph glyph-name="v" unicode="v" horiz-adv-x="1032" 
d="M4 887h279l233 -500l234 500h278l-446 -887h-131z" />
    <glyph glyph-name="w" unicode="w" horiz-adv-x="1622" 
d="M811 522l-233 -522h-123l-451 887h279l233 -512l238 512h114l238 -512l233 512h279l-451 -887h-123z" />
    <glyph glyph-name="x" unicode="x" horiz-adv-x="1159" 
d="M4 0l422 483l-340 404h315l181 -230l184 230h315l-346 -404l420 -483h-319l-254 309l-258 -309h-320z" />
    <glyph glyph-name="y" unicode="y" horiz-adv-x="1101" 
d="M100 -469l326 602l-422 754h291l274 -504l246 504h283l-715 -1356h-283z" />
    <glyph glyph-name="z" unicode="z" horiz-adv-x="991" 
d="M967 887l-504 -674h469v-213h-907l503 674h-426v213h865z" />
    <glyph glyph-name="braceleft" unicode="{" 
d="M604 1151v-334q0 -104 -25 -156.5t-98 -99.5q73 -47 98 -99.5t25 -156.5v-332q0 -67 27 -94q31 -31 139 -31h49v-213q-66 -4 -131 -4q-171 0 -242 60q-28 22 -45 49.5t-24 62t-8.5 58t-1.5 63.5v371q0 82 -35 123q-27 30 -78 37v213q51 7 78 37q35 41 35 122v373
q0 40 1.5 64t8.5 58.5t24 62t45 49.5q70 59 242 59q65 0 131 -4v-213h-49q-108 0 -139 -31q-27 -27 -27 -94z" />
    <glyph glyph-name="bar" unicode="|" 
d="M387 -512v2048h250v-2048h-250z" />
    <glyph glyph-name="braceright" unicode="}" 
d="M420 817v334q0 67 -27 94q-31 31 -139 31h-49v213q66 4 131 4q172 0 242 -59q28 -22 45 -49.5t24 -62t8.5 -58.5t1.5 -64v-373q0 -81 35 -122q27 -30 78 -37v-213q-51 -7 -78 -37q-35 -41 -35 -123v-371q0 -40 -1.5 -63.5t-8.5 -58t-24 -62t-45 -49.5q-71 -60 -242 -60
q-65 0 -131 4v213h49q108 0 139 31q27 27 27 94v332q0 104 25 156.5t98 99.5q-73 47 -98 99.5t-25 156.5z" />
    <glyph glyph-name="asciitilde" unicode="~" 
d="M868 758l144 -82q-75 -180 -189 -238q-59 -30 -121 -30q-12 0 -23.5 0.5t-20.5 1.5t-21 3.5t-19 3.5t-20.5 5.5t-19 6t-21.5 7.5t-21.5 8t-24.5 9t-26 10q-80 30 -116 40.5t-68 10.5q-31 0 -58.5 -15.5t-45 -39t-27 -41.5t-14.5 -33l-144 82q24 68 65.5 138t92.5 106
q58 43 145 43q43 0 89 -12t133 -44q12 -4 39.5 -14.5t40.5 -15t33.5 -10.5t36 -8.5t30.5 -2.5q51 0 86 26.5t65 84.5z" />
    <glyph glyph-name="uni00A0" unicode="&#xa0;" horiz-adv-x="477" 
 />
    <glyph glyph-name="exclamdown" unicode="&#xa1;" horiz-adv-x="514" 
d="M131 479h254v-950h-254v950zM418 762q0 -68 -46 -114t-114 -46t-114 46t-46 114t46 114t114 46t114 -46t46 -114z" />
    <glyph glyph-name="cent" unicode="&#xa2;" horiz-adv-x="1163" 
d="M575 1341h168v-190q89 -3 166 -45v-252q-73 90 -194 90q-104 0 -172 -65q-76 -72 -76 -197t76 -195q62 -59 168 -59q131 0 198 90v-254q-78 -40 -166 -43v-194h-168v190q-146 20 -247 125q-127 133 -127 342q0 211 135 346q101 101 239 125v186z" />
    <glyph glyph-name="sterling" unicode="&#xa3;" horiz-adv-x="1163" 
d="M328 504h-232v180h133q-75 134 -75 262q0 192 129 316q139 135 362 135q105 0 198.5 -34.5t153.5 -94.5q121 -121 121 -342v-25h-270q2 10 2 35q0 49 -15.5 96.5t-43.5 75.5q-55 55 -148 55q-99 0 -158 -59q-31 -31 -48 -78.5t-17 -93.5q0 -86 47 -182l33 -66h303v-180
h-246q14 -54 14 -103q0 -75 -24 -135l76 -26q167 -58 217 -58q53 0 83.5 32.5t41.5 78.5l182 -39q-16 -72 -55 -139.5t-93 -102.5q-66 -43 -163 -43q-48 0 -98.5 9.5t-70.5 16t-73 25.5q-167 54 -225 54q-60 0 -93.5 -27t-46.5 -65l-192 34q28 110 110 185q75 68 179 82
q22 52 22 100q0 55 -20 121z" />
    <glyph glyph-name="currency" unicode="&#xa4;" horiz-adv-x="1368" 
d="M184 1397l211 -211q120 92 289 92t289 -92l211 211l135 -135l-211 -211q92 -115 92 -285t-92 -285l211 -211l-135 -135l-211 211q-120 -92 -289 -92t-289 92l-211 -211l-135 135l211 211q-92 115 -92 285t92 285l-211 211zM684 475q126 0 206.5 82.5t80.5 208.5
t-80.5 208.5t-206.5 82.5t-206.5 -82.5t-80.5 -208.5t80.5 -208.5t206.5 -82.5z" />
    <glyph glyph-name="yen" unicode="&#xa5;" horiz-adv-x="1163" 
d="M858 1366h295l-264 -436h180v-185h-291l-73 -129h364v-184h-364v-432h-246v432h-365v184h365l-74 129h-291v185h180l-264 436h295l277 -479z" />
    <glyph glyph-name="brokenbar" unicode="&#xa6;" 
d="M387 799v737h250v-737h-250zM387 -512v737h250v-737h-250z" />
    <glyph glyph-name="section" unicode="&#xa7;" horiz-adv-x="1163" 
d="M180 20h250q0 -36 13 -75t36 -62q35 -39 99 -39q65 0 106 41q35 38 35 92q0 57 -55 101q-35 27 -154 76q-47 18 -65 25.5t-59.5 27.5t-65 35.5t-53 41t-50.5 54.5q-67 92 -67 229q0 96 40 170q66 117 195 152q-87 41 -135 108q-47 66 -47 164q0 131 82 219
q109 113 307 113q190 0 287 -107q42 -47 67 -116t25 -146h-246v9q0 72 -43 118q-37 37 -96 37q-63 0 -105 -37q-39 -34 -39 -86q0 -62 60 -110q7 -6 15 -11t19 -10.5l19 -9.5t23 -10.5t23 -10t28 -12t30 -12.5q99 -41 160 -76t103 -78q92 -97 92 -243q0 -112 -58 -201
q-66 -99 -174 -143q72 -37 113 -88q66 -79 66 -179q0 -65 -29 -129t-78 -110q-48 -45 -122 -73t-161 -28q-181 0 -284 107q-47 47 -77 121t-30 161zM582 383q72 0 123 51q47 47 47 127t-56 133q-45 45 -114 45q-70 0 -121 -51q-49 -53 -49 -127t47 -125q50 -53 123 -53z" />
    <glyph glyph-name="dieresis" unicode="&#xa8;" 
d="M152 1200q0 60 43.5 104t103.5 44t103.5 -44t43.5 -104t-43.5 -103.5t-103.5 -43.5t-103.5 43.5t-43.5 103.5zM578 1200q0 60 43.5 104t103.5 44t103.5 -44t43.5 -104t-43.5 -103.5t-103.5 -43.5t-103.5 43.5t-43.5 103.5z" />
    <glyph glyph-name="copyright" unicode="&#xa9;" horiz-adv-x="1556" 
d="M778 1397q196 0 359 -92.5t257.5 -257t94.5 -365.5t-95 -365t-257.5 -256t-358.5 -92q-195 0 -358 92t-257.5 256t-94.5 365q0 151 55.5 284t150.5 227.5t226 149t278 54.5zM778 1270q-156 0 -286.5 -78.5t-205.5 -213.5t-75 -296t75 -295.5t205.5 -212.5t286.5 -78
t286.5 78t206 212.5t75.5 295.5t-75.5 296t-206 213.5t-286.5 78.5zM1047 1057v-223l-23 22q-86 86 -195 86q-114 0 -187 -75t-73 -187q0 -114 73.5 -186t191.5 -72q106 0 190 84l23 22v-223q-99 -51 -220 -51q-194 0 -324 121.5t-130 302.5q0 79 29 154.5t83.5 138t142 101
t193.5 38.5q132 0 226 -53z" />
    <glyph glyph-name="ordfeminine" unicode="&#xaa;" horiz-adv-x="704" 
d="M487 1280v70h152v-541h-152v72q-30 -44 -67 -64q-48 -26 -109 -26q-107 0 -180 69q-86 83 -86 217q0 133 86 219q73 70 180 70q55 0 103 -23q46 -21 73 -63zM354 1229q-66 0 -106 -43q-45 -45 -45 -107q0 -63 45 -108q46 -43 106 -43q64 0 105 41q45 45 45 110
q0 67 -47 111q-42 39 -103 39zM72 596v115h567v-115h-567z" />
    <glyph glyph-name="guillemotleft" unicode="&#xab;" horiz-adv-x="1052" 
d="M299 449l250 -336l-143 -103l-324 439l324 438l143 -103zM700 449l250 -336l-143 -103l-324 439l324 438l143 -103z" />
    <glyph glyph-name="logicalnot" unicode="&#xac;" 
d="M956 0h-249v322h-639v229h888v-551z" />
    <glyph glyph-name="uni00AD" unicode="&#xad;" horiz-adv-x="737" 
d="M102 356v230h533v-230h-533z" />
    <glyph glyph-name="registered" unicode="&#xae;" horiz-adv-x="1556" 
d="M778 1397q297 0 502 -203q209 -209 209 -514q0 -293 -193 -496q-203 -215 -518 -215q-143 0 -276 52t-234 155q-101 101 -150.5 232.5t-49.5 275.5q0 161 58.5 294t160.5 228q99 95 226 143t265 48zM778 1270q-232 0 -393 -164q-174 -174 -174 -420q0 -127 47 -239.5
t121 -186.5q73 -73 179.5 -118.5t219.5 -45.5q111 0 212 43t179 119q177 172 177 420q0 253 -177 430q-162 162 -391 162zM539 1079h241q134 0 199 -65q61 -61 61 -170q0 -93 -53 -148q-47 -50 -131 -63l248 -320h-182l-228 293v-293h-155v766zM694 944v-211h62q63 0 94 31
q29 29 29 78q0 53 -29 78q-26 24 -88 24h-68z" />
    <glyph glyph-name="macron" unicode="&#xaf;" 
d="M139 1104v164h746v-164h-746z" />
    <glyph glyph-name="degree" unicode="&#xb0;" 
d="M512 1366q133 0 223 -86.5t90 -220.5t-90 -220.5t-223 -86.5t-223 86.5t-90 220.5t90 220.5t223 86.5zM512 1219q-71 0 -116.5 -45t-45.5 -115t45.5 -115t116.5 -45t116.5 45t45.5 115t-45.5 115t-116.5 45z" />
    <glyph glyph-name="plusminus" unicode="&#xb1;" 
d="M68 727v229h319v320h250v-320h319v-229h-319v-319h-250v319h-319zM68 106v230h888v-230h-888z" />
    <glyph glyph-name="twosuperior" unicode="&#xb2;" horiz-adv-x="778" 
d="M49 547l244 274q4 5 41 46.5t61.5 70.5t42.5 55q47 66 47 131q0 51 -30 82t-86 31q-61 0 -96 -36t-35 -91h-172q4 125 85.5 199.5t208.5 74.5q134 0 215.5 -75.5t81.5 -184.5q0 -80 -37 -144t-108 -142l-127 -144h279v-147h-615z" />
    <glyph glyph-name="threesuperior" unicode="&#xb3;" horiz-adv-x="778" 
d="M252 1143h-160q12 116 87.5 178.5t189.5 62.5q134 0 201 -65.5t67 -155.5q0 -51 -23.5 -99.5t-78.5 -76.5q66 -23 99.5 -74.5t33.5 -121.5q0 -110 -79 -186.5t-224 -76.5q-126 0 -212 71.5t-96 193.5h172q6 -53 42 -85t94 -32q65 0 98 36.5t33 86.5q0 46 -33.5 79
t-102.5 33h-41v136h41q55 0 84 31t29 73q0 40 -27 69t-81 29q-49 0 -80 -30t-33 -76z" />
    <glyph glyph-name="acute" unicode="&#xb4;" 
d="M651 1434l180 -115l-307 -275l-114 82z" />
    <glyph glyph-name="mu" unicode="&#xb5;" horiz-adv-x="1146" 
d="M369 -469h-250v1356h250v-428q0 -20 1 -38t5.5 -49t12.5 -56t23.5 -53t37 -47t55 -31.5t74.5 -12.5q200 0 200 295v420h250v-887h-250v123q-25 -66 -79 -109t-128 -43q-69 0 -121 38t-81 97v-575z" />
    <glyph glyph-name="mu" unicode="&#x3bc;" horiz-adv-x="1146" 
d="M369 -469h-250v1356h250v-428q0 -20 1 -38t5.5 -49t12.5 -56t23.5 -53t37 -47t55 -31.5t74.5 -12.5q200 0 200 295v420h250v-887h-250v123q-25 -66 -79 -109t-128 -43q-69 0 -121 38t-81 97v-575z" />
    <glyph glyph-name="paragraph" unicode="&#xb6;" horiz-adv-x="1339" 
d="M659 -190h-213v845h-26q-162 0 -264.5 96t-102.5 253q0 42 8.5 83t29 85t60 83.5t95.5 65.5q45 21 97.5 31.5t86 12t94.5 1.5h668v-192h-143v-1364h-213v1364h-177v-1364z" />
    <glyph glyph-name="periodcentered" unicode="&#xb7;" horiz-adv-x="409" 
d="M16 586q0 78 55.5 133t133.5 55t133 -55t55 -133t-55 -133.5t-133 -55.5t-133.5 55.5t-55.5 133.5z" />
    <glyph glyph-name="cedilla" unicode="&#xb8;" 
d="M537 -94l180 -90l-246 -299l-131 82z" />
    <glyph glyph-name="onesuperior" unicode="&#xb9;" horiz-adv-x="778" 
d="M340 547v672h-164v147h336v-819h-172z" />
    <glyph glyph-name="ordmasculine" unicode="&#xba;" horiz-adv-x="688" 
d="M344 791q-144 0 -225 88q-76 85 -76 204q0 113 78 195q84 88 223 88q137 0 221 -84q80 -80 80 -203q0 -125 -80 -205q-81 -83 -221 -83zM63 711h562v-115h-562v115zM344 1229q-63 0 -104 -41t-41 -109q0 -69 41 -110t104 -41q64 0 105 41q40 40 40 110q0 69 -40 109
q-41 41 -105 41z" />
    <glyph glyph-name="guillemotright" unicode="&#xbb;" horiz-adv-x="1052" 
d="M352 449l-250 335l144 103l323 -438l-323 -439l-144 103zM754 449l-250 335l143 103l324 -438l-324 -439l-143 103z" />
    <glyph glyph-name="onequarter" unicode="&#xbc;" horiz-adv-x="1761" 
d="M340 547v672h-164v147h336v-819h-172zM463 6l813 1405l108 -61l-813 -1407zM1604 819v-524h96v-139h-96v-156h-164v156h-408v71l408 592h164zM1245 295h195v297z" />
    <glyph glyph-name="onehalf" unicode="&#xbd;" horiz-adv-x="1761" 
d="M340 547v672h-164v147h336v-819h-172zM381 6l813 1405l109 -61l-814 -1407zM1032 0l244 274q4 5 41 46.5t61.5 70.5t42.5 55q47 66 47 132q0 51 -30 81.5t-86 30.5q-61 0 -96 -36t-35 -91h-172q4 125 85.5 200t208.5 75q134 0 215.5 -75.5t81.5 -184.5
q0 -80 -37.5 -144.5t-107.5 -142.5l-127 -144h279v-147h-615z" />
    <glyph glyph-name="threequarters" unicode="&#xbe;" horiz-adv-x="1761" 
d="M252 1143h-160q9 109 86 176q71 65 191 65q128 0 198 -63q70 -65 70 -158q0 -66 -31 -112q-30 -46 -71 -64q43 -13 75 -45q58 -58 58 -151q0 -109 -74 -183q-80 -80 -229 -80q-69 0 -122.5 18t-101.5 66q-77 77 -84 181h172q7 -50 37 -80q32 -37 99 -37q63 0 98 35
q33 33 33 82q0 56 -37 88q-32 30 -111 30h-29v136h19q71 0 104 30q31 31 31 74q0 44 -33 74q-27 24 -71 24q-58 0 -86 -32q-28 -28 -31 -74zM483 6l813 1405l109 -61l-813 -1407zM1245 295h195v297zM1604 819v-524h96v-139h-96v-156h-164v156h-408v71l408 592h164z" />
    <glyph glyph-name="questiondown" unicode="&#xbf;" horiz-adv-x="1003" 
d="M424 485h254v-401q-33 8 -80 8q-123 0 -192 -69q-54 -57 -54 -138q0 -75 43 -118q41 -41 107 -41q68 0 104 36q45 39 45 125v9h267q0 -77 -29.5 -153.5t-73.5 -123.5q-111 -115 -323 -115q-192 0 -299 105q-107 103 -107 282q0 161 104 265q95 95 234 114v215zM711 762
q0 -68 -46.5 -114t-113.5 -46t-113.5 46t-46.5 114t46.5 114t113.5 46t113.5 -46t46.5 -114z" />
    <glyph glyph-name="Agrave" unicode="&#xc0;" horiz-adv-x="1376" 
d="M1085 0l-120 287h-551l-121 -287h-289l588 1366h209l571 -1366h-287zM498 504h389l-195 491zM737 1491l-356 250l184 143l287 -291z" />
    <glyph glyph-name="Aacute" unicode="&#xc1;" horiz-adv-x="1376" 
d="M1085 0l-120 287h-551l-121 -287h-289l588 1366h209l571 -1366h-287zM498 504h389l-195 491zM639 1491l-115 102l287 291l184 -143z" />
    <glyph glyph-name="Acircumflex" unicode="&#xc2;" horiz-adv-x="1376" 
d="M1085 0l-120 287h-551l-121 -287h-289l588 1366h209l571 -1366h-287zM498 504h389l-195 491zM688 1679l-246 -180l-123 131l369 275l369 -275l-123 -131z" />
    <glyph glyph-name="Atilde" unicode="&#xc3;" horiz-adv-x="1376" 
d="M1085 0l-120 287h-551l-121 -287h-289l588 1366h209l571 -1366h-287zM498 504h389l-195 491zM948 1780l133 -99q-37 -74 -92 -120q-64 -58 -141 -58q-50 0 -139 35l-72 29q-82 30 -102 30q-40 0 -70 -30q-21 -21 -33 -49l-137 98q32 62 80 110q68 68 155 68q48 0 140 -35
l80 -33q64 -26 98 -26q41 0 67 26q16 16 33 54z" />
    <glyph glyph-name="Adieresis" unicode="&#xc4;" horiz-adv-x="1376" 
d="M1085 0l-120 287h-551l-121 -287h-289l588 1366h209l571 -1366h-287zM498 504h389l-195 491zM311 1661q0 60 44 103.5t104 43.5t103.5 -43.5t43.5 -103.5t-43.5 -104t-103.5 -44t-104 44t-44 104zM770 1661q0 60 44 103.5t104 43.5t103.5 -43.5t43.5 -103.5t-43.5 -104
t-103.5 -44t-104 44t-44 104z" />
    <glyph glyph-name="Aring" unicode="&#xc5;" horiz-adv-x="1376" 
d="M1085 0l-120 287h-551l-121 -287h-289l588 1366h209l571 -1366h-287zM498 504h389l-195 491zM606 1692q0 -35 23.5 -58.5t58.5 -23.5t58.5 23.5t23.5 58.5t-23.5 58.5t-58.5 23.5t-58.5 -23.5t-23.5 -58.5zM485 1692q0 86 58.5 144t144.5 58t144.5 -58t58.5 -144
t-58.5 -144.5t-144.5 -58.5t-144.5 58.5t-58.5 144.5z" />
    <glyph glyph-name="AE" unicode="&#xc6;" horiz-adv-x="1884" 
d="M1092 0l-121 287h-551l-121 -287h-287l592 1366h721l90 -229h-502l123 -306h494l94 -229h-496l150 -373h504l90 -229h-780zM504 504h389l-188 491z" />
    <glyph glyph-name="Ccedilla" unicode="&#xc7;" horiz-adv-x="1236" 
d="M1147 360v-311q-153 -80 -338 -80q-168 0 -286 50t-214 141q-115 111 -167 239t-52 283q0 174 61 309t158 226q191 180 502 180q182 0 336 -84v-312q-44 50 -95.5 84t-99.5 47.5t-78.5 18t-56.5 4.5q-133 0 -237.5 -67t-159.5 -175t-55 -235q0 -110 40 -200.5
t105.5 -147.5t147.5 -88t169 -31q193 0 320 149zM733 -94l197 -90l-250 -316l-135 74z" />
    <glyph glyph-name="Egrave" unicode="&#xc8;" horiz-adv-x="1015" 
d="M913 1366v-229h-491v-306h471v-229h-471v-373h491v-229h-757v1366h757zM557 1491l-356 250l184 143l287 -291z" />
    <glyph glyph-name="Eacute" unicode="&#xc9;" horiz-adv-x="1015" 
d="M913 1366v-229h-491v-306h471v-229h-471v-373h491v-229h-757v1366h757zM504 1491l-115 102l287 291l184 -143z" />
    <glyph glyph-name="Ecircumflex" unicode="&#xca;" horiz-adv-x="1015" 
d="M913 1366v-229h-491v-306h471v-229h-471v-373h491v-229h-757v1366h757zM532 1679l-245 -180l-123 131l368 275l369 -275l-123 -131z" />
    <glyph glyph-name="Edieresis" unicode="&#xcb;" horiz-adv-x="1015" 
d="M913 1366v-229h-491v-306h471v-229h-471v-373h491v-229h-757v1366h757zM156 1661q0 60 43.5 103.5t103.5 43.5t104 -43.5t44 -103.5t-44 -104t-104 -44t-103.5 44t-43.5 104zM614 1661q0 60 44 103.5t104 43.5t103.5 -43.5t43.5 -103.5t-43.5 -104t-103.5 -44t-104 44
t-44 104z" />
    <glyph glyph-name="Igrave" unicode="&#xcc;" horiz-adv-x="577" 
d="M156 1366h266v-1366h-266v1366zM324 1491l-344 233l176 140l278 -275z" />
    <glyph glyph-name="Iacute" unicode="&#xcd;" horiz-adv-x="577" 
d="M156 1366h266v-1366h-266v1366zM422 1864l176 -140l-344 -233l-111 98z" />
    <glyph glyph-name="Icircumflex" unicode="&#xce;" horiz-adv-x="577" 
d="M156 1366h266v-1366h-266v1366zM289 1683l-189 -163l-110 110l299 254l299 -254l-111 -110z" />
    <glyph glyph-name="Idieresis" unicode="&#xcf;" horiz-adv-x="577" 
d="M156 1366h266v-1366h-266v1366zM12 1661q0 59 35 103t84 44t84 -44t35 -103t-35 -103.5t-84 -44.5t-84 44.5t-35 103.5zM319 1661q0 59 35 103t84 44t84 -44t35 -103t-35 -103.5t-84 -44.5t-84 44.5t-35 103.5z" />
    <glyph glyph-name="Eth" unicode="&#xd0;" horiz-adv-x="1370" 
d="M156 1366h356q162 0 283 -27.5t225 -105.5q123 -92 191.5 -236.5t68.5 -314.5q0 -171 -70 -313.5t-202 -237.5q-110 -78 -225 -104.5t-275 -26.5h-352v647h-176v205h176v514zM422 1137v-285h250v-205h-250v-418h82q207 0 332 90q81 58 125.5 155t44.5 208
q0 119 -48.5 214.5t-119.5 150.5q-116 90 -334 90h-82z" />
    <glyph glyph-name="Ntilde" unicode="&#xd1;" horiz-adv-x="1593" 
d="M422 0h-266v1366h184l831 -911v911h267v-1366h-185l-831 913v-913zM1079 1780l133 -99q-37 -74 -92 -120q-64 -58 -141 -58q-50 0 -139 35l-72 29q-82 30 -102 30q-40 0 -70 -30q-21 -21 -33 -49l-137 98q32 62 80 110q68 68 156 68q46 0 139 -35l80 -33q64 -26 98 -26
q42 0 68 26q14 14 32 54z" />
    <glyph glyph-name="Ograve" unicode="&#xd2;" horiz-adv-x="1638" 
d="M819 1397q212 0 378.5 -91.5t258.5 -254.5t92 -369t-92 -368.5t-258.5 -253.5t-378.5 -91t-378.5 91t-258.5 253.5t-92 368.5t92 369t258.5 254.5t378.5 91.5zM819 211q200 0 327.5 132t127.5 339t-128 340t-327 133t-326.5 -133t-127.5 -340t127 -339t327 -132z
M868 1491l-356 250l184 143l287 -291z" />
    <glyph glyph-name="Oacute" unicode="&#xd3;" horiz-adv-x="1638" 
d="M819 1397q212 0 378.5 -91.5t258.5 -254.5t92 -369t-92 -368.5t-258.5 -253.5t-378.5 -91t-378.5 91t-258.5 253.5t-92 368.5t92 369t258.5 254.5t378.5 91.5zM819 211q200 0 327.5 132t127.5 339t-128 340t-327 133t-326.5 -133t-127.5 -340t127 -339t327 -132z
M770 1491l-115 102l287 291l184 -143z" />
    <glyph glyph-name="Ocircumflex" unicode="&#xd4;" horiz-adv-x="1638" 
d="M819 1397q212 0 378.5 -91.5t258.5 -254.5t92 -369t-92 -368.5t-258.5 -253.5t-378.5 -91t-378.5 91t-258.5 253.5t-92 368.5t92 369t258.5 254.5t378.5 91.5zM819 211q200 0 327.5 132t127.5 339t-128 340t-327 133t-326.5 -133t-127.5 -340t127 -339t327 -132z
M819 1679l-246 -180l-122 131l368 275l369 -275l-123 -131z" />
    <glyph glyph-name="Otilde" unicode="&#xd5;" horiz-adv-x="1638" 
d="M819 1397q212 0 378.5 -91.5t258.5 -254.5t92 -369t-92 -368.5t-258.5 -253.5t-378.5 -91t-378.5 91t-258.5 253.5t-92 368.5t92 369t258.5 254.5t378.5 91.5zM819 211q200 0 327.5 132t127.5 339t-128 340t-327 133t-326.5 -133t-127.5 -340t127 -339t327 -132z
M1079 1780l133 -99q-37 -74 -92 -120q-64 -58 -141 -58q-50 0 -139 35l-72 29q-82 30 -102 30q-40 0 -70 -30q-21 -21 -33 -49l-137 98q32 62 80 110q68 68 156 68q46 0 139 -35l80 -33q64 -26 98 -26q42 0 68 26q14 14 32 54z" />
    <glyph glyph-name="Odieresis" unicode="&#xd6;" horiz-adv-x="1638" 
d="M819 1397q212 0 378.5 -91.5t258.5 -254.5t92 -369t-92 -368.5t-258.5 -253.5t-378.5 -91t-378.5 91t-258.5 253.5t-92 368.5t92 369t258.5 254.5t378.5 91.5zM819 211q200 0 327.5 132t127.5 339t-128 340t-327 133t-326.5 -133t-127.5 -340t127 -339t327 -132z
M442 1661q0 60 44 103.5t104 43.5t103.5 -43.5t43.5 -103.5t-43.5 -104t-103.5 -44t-104 44t-44 104zM901 1661q0 60 44 103.5t104 43.5t103.5 -43.5t43.5 -103.5t-43.5 -104t-103.5 -44t-104 44t-44 104z" />
    <glyph glyph-name="multiply" unicode="&#xd7;" 
d="M90 440l254 254l-254 254l168 168l254 -254l254 254l168 -168l-254 -254l254 -254l-168 -168l-254 254l-254 -254z" />
    <glyph glyph-name="Oslash" unicode="&#xd8;" horiz-adv-x="1662" 
d="M61 63l181 181q-140 199 -140 438q0 309 205 514q201 201 524 201q250 0 439 -127l182 180l150 -150l-181 -180q140 -196 140 -436q0 -153 -53.5 -285t-145.5 -227q-198 -203 -531 -203q-133 0 -235.5 28.5t-202.5 98.5l-182 -182zM1227 928l-647 -647q118 -70 251 -70
q199 0 324 129q131 135 131 342q0 131 -59 246zM436 436l649 647q-116 72 -254 72q-190 0 -315 -121q-139 -133 -139 -358q0 -133 59 -240z" />
    <glyph glyph-name="Ugrave" unicode="&#xd9;" horiz-adv-x="1409" 
d="M156 1366h266v-858q0 -130 65 -203q78 -94 218 -94q139 0 217 94q65 73 65 203v858h266v-836q0 -235 -102 -364q-72 -95 -191.5 -146t-254.5 -51t-255 51t-192 146q-102 129 -102 364v836zM754 1491l-357 250l185 143l286 -291z" />
    <glyph glyph-name="Uacute" unicode="&#xda;" horiz-adv-x="1409" 
d="M156 1366h266v-858q0 -130 65 -203q78 -94 218 -94q139 0 217 94q65 73 65 203v858h266v-836q0 -235 -102 -364q-72 -95 -191.5 -146t-254.5 -51t-255 51t-192 146q-102 129 -102 364v836zM655 1491l-114 102l286 291l185 -143z" />
    <glyph glyph-name="Ucircumflex" unicode="&#xdb;" horiz-adv-x="1409" 
d="M156 1366h266v-858q0 -130 65 -203q78 -94 218 -94q139 0 217 94q65 73 65 203v858h266v-836q0 -235 -102 -364q-72 -95 -191.5 -146t-254.5 -51t-255 51t-192 146q-102 129 -102 364v836zM705 1679l-246 -180l-123 131l369 275l368 -275l-123 -131z" />
    <glyph glyph-name="Udieresis" unicode="&#xdc;" horiz-adv-x="1409" 
d="M156 1366h266v-858q0 -130 65 -203q78 -94 218 -94q139 0 217 94q65 73 65 203v858h266v-836q0 -235 -102 -364q-72 -95 -191.5 -146t-254.5 -51t-255 51t-192 146q-102 129 -102 364v836zM328 1661q0 60 43.5 103.5t103.5 43.5t104 -43.5t44 -103.5t-44 -104t-104 -44
t-103.5 44t-43.5 104zM786 1661q0 60 44 103.5t104 43.5t103.5 -43.5t43.5 -103.5t-43.5 -104t-103.5 -44t-104 44t-44 104z" />
    <glyph glyph-name="Yacute" unicode="&#xdd;" horiz-adv-x="1208" 
d="M465 0v625l-469 741h315l293 -475l293 475h315l-481 -741v-625h-266zM555 1491l-115 102l287 291l184 -143z" />
    <glyph glyph-name="Thorn" unicode="&#xde;" horiz-adv-x="1093" 
d="M156 1366h266v-184h131q126 0 207.5 -21.5t152.5 -83.5q140 -124 140 -329q0 -27 -3.5 -57t-13.5 -75t-35 -91.5t-61 -82.5q-120 -120 -346 -120h-172v-322h-266v1366zM422 952v-401h108q36 0 57.5 1.5t56.5 11.5t61 30q73 58 73 160q0 98 -76 155q-61 43 -188 43h-92z
" />
    <glyph glyph-name="germandbls" unicode="&#xdf;" horiz-adv-x="1163" 
d="M369 0h-250v1073q0 215 117 332q113 113 317 113q200 0 317 -115q56 -55 84.5 -125.5t28.5 -140.5q0 -106 -55 -185q-5 -9 -16 -22.5t-39 -38.5t-60 -43q89 -23 160 -98q17 -17 33.5 -39.5t37.5 -61t33.5 -92.5t12.5 -115q0 -88 -36 -181t-100 -155q-139 -135 -401 -135
h-25v222q67 1 131.5 26.5t102.5 65.5q32 35 50.5 83t18.5 93q0 24 -4.5 49t-16 57.5t-38.5 62.5t-65 50q-74 41 -179 41v213q43 0 87 15t71 40q26 24 40.5 60t14.5 71q0 83 -49 129q-50 47 -133 47q-82 0 -133 -51q-21 -21 -33.5 -49t-17 -62.5t-5.5 -51.5t-1 -48v-1034z
" />
    <glyph glyph-name="agrave" unicode="&#xe0;" horiz-adv-x="1167" 
d="M799 772v115h250v-887h-250v115q-100 -144 -273 -144q-200 0 -326 137t-126 336q0 131 54.5 238t156 170t229.5 63q193 0 285 -143zM578 694q-107 0 -176.5 -71.5t-69.5 -178.5t70 -179t176 -72t175.5 72t69.5 179t-69.5 178.5t-175.5 71.5zM633 1044l-307 275l180 115
l242 -308z" />
    <glyph glyph-name="aacute" unicode="&#xe1;" horiz-adv-x="1167" 
d="M799 772v115h250v-887h-250v115q-100 -144 -273 -144q-200 0 -326 137t-126 336q0 131 54.5 238t156 170t229.5 63q193 0 285 -143zM578 694q-107 0 -176.5 -71.5t-69.5 -178.5t70 -179t176 -72t175.5 72t69.5 179t-69.5 178.5t-175.5 71.5zM723 1434l180 -115l-307 -275
l-115 82z" />
    <glyph glyph-name="acircumflex" unicode="&#xe2;" horiz-adv-x="1167" 
d="M799 772v115h250v-887h-250v115q-100 -144 -273 -144q-200 0 -326 137t-126 336q0 131 54.5 238t156 170t229.5 63q193 0 285 -143zM578 694q-107 0 -176.5 -71.5t-69.5 -178.5t70 -179t176 -72t175.5 72t69.5 179t-69.5 178.5t-175.5 71.5zM584 1233l-226 -189l-122 123
l348 283l348 -283l-123 -123z" />
    <glyph glyph-name="atilde" unicode="&#xe3;" horiz-adv-x="1167" 
d="M799 772v115h250v-887h-250v115q-100 -144 -273 -144q-200 0 -326 137t-126 336q0 131 54.5 238t156 170t229.5 63q193 0 285 -143zM578 694q-107 0 -176.5 -71.5t-69.5 -178.5t70 -179t176 -72t175.5 72t69.5 179t-69.5 178.5t-175.5 71.5zM868 1325l121 -98
q-29 -60 -78 -109q-59 -53 -135 -53q-66 0 -145 33l-70 28q-61 25 -94 25q-35 0 -64 -29q-20 -20 -34 -51l-125 98q34 66 71 103q59 59 148 59q56 0 125 -26l78 -31q74 -29 102 -29q40 0 63 23q21 21 37 57z" />
    <glyph glyph-name="adieresis" unicode="&#xe4;" horiz-adv-x="1167" 
d="M799 772v115h250v-887h-250v115q-100 -144 -273 -144q-200 0 -326 137t-126 336q0 131 54.5 238t156 170t229.5 63q193 0 285 -143zM578 694q-107 0 -176.5 -71.5t-69.5 -178.5t70 -179t176 -72t175.5 72t69.5 179t-69.5 178.5t-175.5 71.5zM258 1200q0 60 44 104t104 44
t103.5 -44t43.5 -104t-43.5 -103.5t-103.5 -43.5t-104 43.5t-44 103.5zM684 1200q0 60 43.5 104t103.5 44t104 -44t44 -104t-44 -103.5t-104 -43.5t-103.5 43.5t-43.5 103.5z" />
    <glyph glyph-name="aring" unicode="&#xe5;" horiz-adv-x="1167" 
d="M799 772v115h250v-887h-250v115q-100 -144 -273 -144q-200 0 -326 137t-126 336q0 131 54.5 238t156 170t229.5 63q193 0 285 -143zM578 694q-107 0 -176.5 -71.5t-69.5 -178.5t70 -179t176 -72t175.5 72t69.5 179t-69.5 178.5t-175.5 71.5zM387 1229q0 78 57.5 135
t135.5 57t135 -57t57 -135t-57 -135.5t-135 -57.5t-135.5 57.5t-57.5 135.5zM500 1229q0 -35 22.5 -57.5t57.5 -22.5t57 22.5t22 57.5t-22 57.5t-57 22.5t-57.5 -22.5t-22.5 -57.5z" />
    <glyph glyph-name="ae" unicode="&#xe6;" horiz-adv-x="1654" 
d="M1346 285l229 -37q-22 -55 -55 -99.5t-67 -72.5t-75 -49t-73.5 -31.5t-69.5 -16.5t-56.5 -7t-39.5 -1q-233 0 -344 168q-128 -168 -357 -168q-175 0 -269.5 83t-94.5 204q0 126 90 205q104 92 285 92q121 0 229 -61l2 43q3 49 -20.5 86.5t-55.5 58.5q-56 37 -166 37
q-107 0 -227 -35v199q141 32 246 32q49 0 87 -4t87 -17.5t91 -46t73 -81.5q120 149 335 149q225 0 345 -145q106 -127 106 -348v-21h-663q-4 -88 43 -149q61 -84 178 -84q140 0 207 117zM315 268q0 -45 42.5 -83t131.5 -38q94 0 141.5 40t47.5 85q0 41 -45 74t-146 33
q-90 0 -131 -34t-41 -77zM926 561h420q-14 86 -75 132t-136 46q-74 0 -134.5 -46.5t-74.5 -131.5z" />
    <glyph glyph-name="ccedilla" unicode="&#xe7;" horiz-adv-x="856" 
d="M786 862v-246q-84 78 -204 78q-118 0 -184 -73t-66 -177q0 -109 73 -180t185 -71q110 0 196 77v-243q-110 -56 -229 -56q-101 0 -190.5 35t-151.5 94q-141 131 -141 340q0 113 41 205.5t112 155.5q129 114 320 114q130 0 239 -53zM455 -94l180 -90l-246 -299l-131 82z
" />
    <glyph glyph-name="egrave" unicode="&#xe8;" horiz-adv-x="1069" 
d="M760 285l229 -37q-12 -29 -26 -55.5t-50 -70t-80.5 -74t-118.5 -54t-161 -23.5q-209 0 -340 125q-139 130 -139 346q0 214 135 349q126 124 334 124q226 0 346 -145q106 -127 106 -348v-21h-663q0 -91 43 -149q61 -84 178 -84q140 0 207 117zM340 561h420q-14 86 -75 132
t-136 46q-74 0 -134.5 -46.5t-74.5 -131.5zM582 1044l-308 275l181 115l241 -308z" />
    <glyph glyph-name="eacute" unicode="&#xe9;" horiz-adv-x="1069" 
d="M760 285l229 -37q-12 -29 -26 -55.5t-50 -70t-80.5 -74t-118.5 -54t-161 -23.5q-209 0 -340 125q-139 130 -139 346q0 214 135 349q126 124 334 124q226 0 346 -145q106 -127 106 -348v-21h-663q0 -91 43 -149q61 -84 178 -84q140 0 207 117zM340 561h420q-14 86 -75 132
t-136 46q-74 0 -134.5 -46.5t-74.5 -131.5zM672 1434l180 -115l-307 -275l-115 82z" />
    <glyph glyph-name="ecircumflex" unicode="&#xea;" horiz-adv-x="1069" 
d="M760 285l229 -37q-12 -29 -26 -55.5t-50 -70t-80.5 -74t-118.5 -54t-161 -23.5q-209 0 -340 125q-139 130 -139 346q0 214 135 349q126 124 334 124q226 0 346 -145q106 -127 106 -348v-21h-663q0 -91 43 -149q61 -84 178 -84q140 0 207 117zM340 561h420q-14 86 -75 132
t-136 46q-74 0 -134.5 -46.5t-74.5 -131.5zM541 1233l-226 -189l-122 123l348 283l348 -283l-123 -123z" />
    <glyph glyph-name="edieresis" unicode="&#xeb;" horiz-adv-x="1069" 
d="M760 285l229 -37q-12 -29 -26 -55.5t-50 -70t-80.5 -74t-118.5 -54t-161 -23.5q-209 0 -340 125q-139 130 -139 346q0 214 135 349q126 124 334 124q226 0 346 -145q106 -127 106 -348v-21h-663q0 -91 43 -149q61 -84 178 -84q140 0 207 117zM340 561h420q-14 86 -75 132
t-136 46q-74 0 -134.5 -46.5t-74.5 -131.5zM180 1200q0 60 44 104t104 44t103.5 -44t43.5 -104t-43.5 -103.5t-103.5 -43.5t-104 43.5t-44 103.5zM606 1200q0 60 44 104t104 44t103.5 -44t43.5 -104t-43.5 -103.5t-103.5 -43.5t-104 43.5t-44 103.5z" />
    <glyph glyph-name="igrave" unicode="&#xec;" horiz-adv-x="487" 
d="M119 887h250v-887h-250v887zM229 1026l-225 344l205 66l156 -363z" />
    <glyph glyph-name="iacute" unicode="&#xed;" horiz-adv-x="487" 
d="M119 887h250v-887h-250v887zM279 1436l204 -66l-225 -344l-135 47z" />
    <glyph glyph-name="icircumflex" unicode="&#xee;" horiz-adv-x="487" 
d="M119 887h250v-887h-250v887zM244 1233l-178 -160l-115 115l293 262l293 -262l-115 -115z" />
    <glyph glyph-name="idieresis" unicode="&#xef;" horiz-adv-x="487" 
d="M119 887h250v-887h-250v887zM-117 1200q0 60 44 104t104 44t103.5 -44t43.5 -104t-43.5 -103.5t-103.5 -43.5t-104 43.5t-44 103.5zM309 1200q0 60 44 104t104 44t103.5 -44t43.5 -104t-43.5 -103.5t-103.5 -43.5t-104 43.5t-44 103.5z" />
    <glyph glyph-name="eth" unicode="&#xf0;" horiz-adv-x="1118" 
d="M137 1204l68 193q274 -20 467 -135l307 100l47 -145l-207 -66q107 -104 164 -250q61 -157 61 -354q0 -299 -165 -455q-127 -121 -326 -121q-208 0 -342 131q-137 137 -137 338q0 210 137 336q117 111 293 111q149 0 252 -103q-12 90 -62 166t-131 121l-401 -149l-45 131
l284 98q-131 50 -264 53zM553 674q-90 0 -152 -62q-69 -65 -69 -182q0 -109 67 -176q61 -61 154 -61q101 0 160 67q61 67 61 170q0 49 -16.5 98t-46.5 80q-62 66 -158 66z" />
    <glyph glyph-name="ntilde" unicode="&#xf1;" horiz-adv-x="1093" 
d="M119 0v887h250v-115q102 143 274 143q71 0 142.5 -25t119.5 -83q70 -87 70 -250v-557h-250v483q0 125 -47 174q-43 45 -117 45q-101 0 -153 -77q-39 -60 -39 -172v-453h-250zM825 1325l121 -98q-29 -60 -78 -109q-59 -53 -135 -53q-66 0 -145 33l-70 28q-61 25 -94 25
q-35 0 -64 -29q-20 -20 -34 -51l-125 98q34 66 71 103q59 59 148 59q56 0 125 -26l78 -31q74 -29 102 -29q40 0 63 23q21 21 37 57z" />
    <glyph glyph-name="ograve" unicode="&#xf2;" horiz-adv-x="1163" 
d="M582 915q223 0 358 -124q69 -62 109.5 -153t40.5 -196q0 -104 -40.5 -194t-109.5 -152q-136 -125 -358 -125q-223 0 -359 125q-68 62 -108.5 152t-40.5 194q0 105 40.5 196t108.5 153q135 124 359 124zM582 193q107 0 178 73t71 176q0 105 -71.5 178.5t-177.5 73.5
t-178 -73.5t-72 -178.5q0 -103 71.5 -176t178.5 -73zM602 1044l-307 275l180 115l242 -308z" />
    <glyph glyph-name="oacute" unicode="&#xf3;" horiz-adv-x="1163" 
d="M582 915q223 0 358 -124q69 -62 109.5 -153t40.5 -196q0 -104 -40.5 -194t-109.5 -152q-136 -125 -358 -125q-223 0 -359 125q-68 62 -108.5 152t-40.5 194q0 105 40.5 196t108.5 153q135 124 359 124zM582 193q107 0 178 73t71 176q0 105 -71.5 178.5t-177.5 73.5
t-178 -73.5t-72 -178.5q0 -103 71.5 -176t178.5 -73zM692 1434l180 -115l-307 -275l-114 82z" />
    <glyph glyph-name="ocircumflex" unicode="&#xf4;" horiz-adv-x="1163" 
d="M582 915q223 0 358 -124q69 -62 109.5 -153t40.5 -196q0 -104 -40.5 -194t-109.5 -152q-136 -125 -358 -125q-223 0 -359 125q-68 62 -108.5 152t-40.5 194q0 105 40.5 196t108.5 153q135 124 359 124zM582 193q107 0 178 73t71 176q0 105 -71.5 178.5t-177.5 73.5
t-178 -73.5t-72 -178.5q0 -103 71.5 -176t178.5 -73zM582 1233l-226 -189l-123 123l349 283l348 -283l-123 -123z" />
    <glyph glyph-name="otilde" unicode="&#xf5;" horiz-adv-x="1163" 
d="M582 915q223 0 358 -124q69 -62 109.5 -153t40.5 -196q0 -104 -40.5 -194t-109.5 -152q-136 -125 -358 -125q-223 0 -359 125q-68 62 -108.5 152t-40.5 194q0 105 40.5 196t108.5 153q135 124 359 124zM582 193q107 0 178 73t71 176q0 105 -71.5 178.5t-177.5 73.5
t-178 -73.5t-72 -178.5q0 -103 71.5 -176t178.5 -73zM834 1325l120 -98q-30 -62 -77 -109q-59 -53 -136 -53q-66 0 -145 33l-70 28q-61 25 -94 25q-34 0 -63 -29q-22 -22 -35 -51l-125 98q33 64 72 103q59 59 147 59q56 0 125 -26l78 -31q74 -29 102 -29q41 0 64 23
q21 21 37 57z" />
    <glyph glyph-name="odieresis" unicode="&#xf6;" horiz-adv-x="1163" 
d="M582 915q223 0 358 -124q69 -62 109.5 -153t40.5 -196q0 -104 -40.5 -194t-109.5 -152q-136 -125 -358 -125q-223 0 -359 125q-68 62 -108.5 152t-40.5 194q0 105 40.5 196t108.5 153q135 124 359 124zM582 193q107 0 178 73t71 176q0 105 -71.5 178.5t-177.5 73.5
t-178 -73.5t-72 -178.5q0 -103 71.5 -176t178.5 -73zM221 1200q0 60 44 104t104 44t103.5 -44t43.5 -104t-43.5 -103.5t-103.5 -43.5t-104 43.5t-44 103.5zM647 1200q0 60 44 104t104 44t103.5 -44t43.5 -104t-43.5 -103.5t-103.5 -43.5t-104 43.5t-44 103.5z" />
    <glyph glyph-name="divide" unicode="&#xf7;" 
d="M367 1047q0 60 42.5 102.5t102.5 42.5t102.5 -42.5t42.5 -102.5t-42.5 -103t-102.5 -43t-102.5 43t-42.5 103zM367 342q0 60 42.5 102.5t102.5 42.5t102.5 -42.5t42.5 -102.5t-42.5 -102.5t-102.5 -42.5t-102.5 42.5t-42.5 102.5zM68 580v229h888v-229h-888z" />
    <glyph glyph-name="oslash" unicode="&#xf8;" horiz-adv-x="1179" 
d="M49 14l133 133q-100 128 -100 295q0 105 40.5 196t108.5 153q138 124 359 124q166 0 287 -73l139 139l114 -104l-135 -136q103 -131 103 -299q0 -104 -40.5 -194t-109.5 -152q-136 -125 -358 -125q-172 0 -291 76l-135 -135zM811 559l-338 -338q55 -28 119 -28
q110 0 178 73q70 73 70 180q0 66 -29 113zM365 330l337 338q-51 26 -106 26q-113 0 -186 -73q-10 -10 -22.5 -27t-30 -62t-17.5 -92q0 -50 25 -110z" />
    <glyph glyph-name="ugrave" unicode="&#xf9;" horiz-adv-x="1097" 
d="M119 887h250v-502q0 -107 53 -156q52 -45 127 -45t127 45q53 49 53 156v502h250v-543q0 -78 -21.5 -146t-87.5 -126q-58 -51 -145 -76t-176 -25t-176.5 25t-145.5 76q-66 58 -87 126t-21 146v543zM537 1044l-308 275l181 115l241 -308z" />
    <glyph glyph-name="uacute" unicode="&#xfa;" horiz-adv-x="1097" 
d="M119 887h250v-502q0 -107 53 -156q52 -45 127 -45t127 45q53 49 53 156v502h250v-543q0 -78 -21.5 -146t-87.5 -126q-58 -51 -145 -76t-176 -25t-176.5 25t-145.5 76q-66 58 -87 126t-21 146v543zM688 1434l180 -115l-307 -275l-115 82z" />
    <glyph glyph-name="ucircumflex" unicode="&#xfb;" horiz-adv-x="1097" 
d="M119 887h250v-502q0 -107 53 -156q52 -45 127 -45t127 45q53 49 53 156v502h250v-543q0 -78 -21.5 -146t-87.5 -126q-58 -51 -145 -76t-176 -25t-176.5 25t-145.5 76q-66 58 -87 126t-21 146v543zM549 1233l-225 -189l-123 123l348 283l348 -283l-123 -123z" />
    <glyph glyph-name="udieresis" unicode="&#xfc;" horiz-adv-x="1097" 
d="M119 887h250v-502q0 -107 53 -156q52 -45 127 -45t127 45q53 49 53 156v502h250v-543q0 -78 -21.5 -146t-87.5 -126q-58 -51 -145 -76t-176 -25t-176.5 25t-145.5 76q-66 58 -87 126t-21 146v543zM188 1200q0 60 44 104t104 44t103.5 -44t43.5 -104t-43.5 -103.5
t-103.5 -43.5t-104 43.5t-44 103.5zM614 1200q0 60 44 104t104 44t103.5 -44t43.5 -104t-43.5 -103.5t-103.5 -43.5t-104 43.5t-44 103.5z" />
    <glyph glyph-name="yacute" unicode="&#xfd;" horiz-adv-x="1101" 
d="M100 -469l326 602l-422 754h291l274 -504l246 504h283l-715 -1356h-283zM690 1434l180 -115l-307 -275l-114 82z" />
    <glyph glyph-name="thorn" unicode="&#xfe;" horiz-adv-x="1167" 
d="M119 1493h250v-721q102 143 288 143q194 0 315.5 -133.5t121.5 -337.5t-124 -338.5t-319 -134.5q-178 0 -282 144v-586h-250v1964zM590 193q106 0 176 72t70 179t-69.5 178.5t-176.5 71.5t-176.5 -71.5t-69.5 -178.5t70 -179t176 -72z" />
    <glyph glyph-name="ydieresis" unicode="&#xff;" horiz-adv-x="1101" 
d="M100 -469l326 602l-422 754h291l274 -504l246 504h283l-715 -1356h-283zM213 1200q0 60 43.5 104t103.5 44t104 -44t44 -104t-44 -103.5t-104 -43.5t-103.5 43.5t-43.5 103.5zM639 1200q0 60 43.5 104t103.5 44t104 -44t44 -104t-44 -103.5t-104 -43.5t-103.5 43.5
t-43.5 103.5z" />
    <glyph glyph-name="Amacron" unicode="&#x100;" horiz-adv-x="1376" 
d="M1085 0l-120 287h-551l-121 -287h-289l588 1366h209l571 -1366h-287zM498 504h389l-195 491zM313 1526v176h750v-176h-750z" />
    <glyph glyph-name="amacron" unicode="&#x101;" horiz-adv-x="1167" 
d="M799 772v115h250v-887h-250v115q-100 -144 -273 -144q-200 0 -326 137t-126 336q0 131 54.5 238t156 170t229.5 63q193 0 285 -143zM578 694q-107 0 -176.5 -71.5t-69.5 -178.5t70 -179t176 -72t175.5 72t69.5 179t-69.5 178.5t-175.5 71.5zM238 1104v164h745v-164h-745z
" />
    <glyph glyph-name="Abreve" unicode="&#x102;" horiz-adv-x="1376" 
d="M1085 0l-120 287h-551l-121 -287h-289l588 1366h209l571 -1366h-287zM498 504h389l-195 491zM852 1782h184q-12 -130 -108 -212.5t-240 -82.5t-240 82.5t-108 212.5h184q10 -52 51.5 -87.5t112.5 -35.5t112.5 35.5t51.5 87.5z" />
    <glyph glyph-name="abreve" unicode="&#x103;" horiz-adv-x="1167" 
d="M799 772v115h250v-887h-250v115q-100 -144 -273 -144q-200 0 -326 137t-126 336q0 131 54.5 238t156 170t229.5 63q193 0 285 -143zM578 694q-107 0 -176.5 -71.5t-69.5 -178.5t70 -179t176 -72t175.5 72t69.5 179t-69.5 178.5t-175.5 71.5zM745 1331h173
q-11 -100 -76 -178q-96 -111 -260 -111t-260 111q-65 78 -76 178h172q9 -55 45 -86q43 -43 119 -43q75 0 118 43q36 31 45 86z" />
    <glyph glyph-name="Aogonek" unicode="&#x104;" horiz-adv-x="1376" 
d="M414 287l-121 -287h-289l588 1366h209l571 -1366h-143q-51 -35 -82 -74q-37 -50 -37 -96q0 -31 20 -51q23 -23 68 -23q41 0 96 25l-28 -141q-67 -35 -138 -35q-89 0 -145 53q-49 49 -49 121q0 71 47 131q39 49 104 90l-120 287h-551zM498 504h389l-193 491z" />
    <glyph glyph-name="aogonek" unicode="&#x105;" horiz-adv-x="1167" 
d="M799 772v115h250v-887h-82q-52 -32 -86 -74q-41 -46 -41 -88q0 -36 30 -59q25 -19 64 -19q49 0 94 25l-29 -137q-55 -35 -127 -35q-90 0 -141 49q-47 47 -47 117q0 75 53 139q41 47 99 82h-37v115q-100 -144 -273 -144q-193 0 -319 129q-133 137 -133 344q0 112 38.5 202
t98.5 149q124 120 303 120q193 0 285 -143zM578 694q-109 0 -177 -71q-69 -72 -69 -179q0 -111 69 -180q71 -71 177 -71q109 0 176 71q69 69 69 180q0 113 -71 181q-69 69 -174 69z" />
    <glyph glyph-name="Cacute" unicode="&#x106;" horiz-adv-x="1236" 
d="M1147 360v-311q-153 -80 -338 -80q-168 0 -286 50t-214 141q-115 111 -167 239t-52 283q0 174 61 309t158 226q191 180 502 180q182 0 336 -84v-312q-44 50 -95.5 84t-99.5 47.5t-78.5 18t-56.5 4.5q-133 0 -237.5 -67t-159.5 -175t-55 -235q0 -110 40 -200.5
t105.5 -147.5t147.5 -88t169 -31q193 0 320 149zM750 1491l-115 102l287 291l184 -143z" />
    <glyph glyph-name="cacute" unicode="&#x107;" horiz-adv-x="856" 
d="M786 862v-246q-84 78 -204 78q-118 0 -184 -73t-66 -177q0 -109 73 -180t185 -71q110 0 196 77v-243q-110 -56 -229 -56q-101 0 -190.5 35t-151.5 94q-141 131 -141 340q0 113 41 205.5t112 155.5q129 114 320 114q130 0 239 -53zM651 1434l180 -115l-307 -275l-114 82z
" />
    <glyph glyph-name="Ccircumflex" unicode="&#x108;" horiz-adv-x="1236" 
d="M1147 360v-311q-153 -80 -338 -80q-168 0 -286 50t-214 141q-115 111 -167 239t-52 283q0 174 61 309t158 226q191 180 502 180q182 0 336 -84v-312q-44 50 -95.5 84t-99.5 47.5t-78.5 18t-56.5 4.5q-133 0 -237.5 -67t-159.5 -175t-55 -235q0 -110 40 -200.5
t105.5 -147.5t147.5 -88t169 -31q193 0 320 149zM778 1679l-246 -180l-122 131l368 275l369 -275l-123 -131z" />
    <glyph glyph-name="ccircumflex" unicode="&#x109;" horiz-adv-x="856" 
d="M786 862v-246q-84 78 -204 78q-118 0 -184 -73t-66 -177q0 -109 73 -180t185 -71q110 0 196 77v-243q-110 -56 -229 -56q-101 0 -190.5 35t-151.5 94q-141 131 -141 340q0 113 41 205.5t112 155.5q129 114 320 114q130 0 239 -53zM532 1233l-225 -189l-123 123l348 283
l349 -283l-123 -123z" />
    <glyph glyph-name="Cdotaccent" unicode="&#x10a;" horiz-adv-x="1236" 
d="M1147 360v-311q-153 -80 -338 -80q-168 0 -286 50t-214 141q-115 111 -167 239t-52 283q0 174 61 309t158 226q191 180 502 180q182 0 336 -84v-312q-44 50 -95.5 84t-99.5 47.5t-78.5 18t-56.5 4.5q-133 0 -237.5 -67t-159.5 -175t-55 -235q0 -110 40 -200.5
t105.5 -147.5t147.5 -88t169 -31q193 0 320 149zM653 1673q0 67 46.5 113.5t113.5 46.5t113.5 -46.5t46.5 -113.5t-46.5 -113.5t-113.5 -46.5t-113.5 46.5t-46.5 113.5z" />
    <glyph glyph-name="cdotaccent" unicode="&#x10b;" horiz-adv-x="856" 
d="M786 862v-246q-84 78 -204 78q-118 0 -184 -73t-66 -177q0 -109 73 -180t185 -71q110 0 196 77v-243q-110 -56 -229 -56q-101 0 -190.5 35t-151.5 94q-141 131 -141 340q0 113 41 205.5t112 155.5q129 114 320 114q130 0 239 -53zM401 1208q0 64 45.5 110t110.5 46
t110.5 -46t45.5 -110t-45.5 -109.5t-110.5 -45.5t-110.5 45.5t-45.5 109.5z" />
    <glyph glyph-name="Ccaron" unicode="&#x10c;" horiz-adv-x="1236" 
d="M1147 360v-311q-153 -80 -338 -80q-168 0 -286 50t-214 141q-115 111 -167 239t-52 283q0 174 61 309t158 226q191 180 502 180q182 0 336 -84v-312q-44 50 -95.5 84t-99.5 47.5t-78.5 18t-56.5 4.5q-133 0 -237.5 -67t-159.5 -175t-55 -235q0 -110 40 -200.5
t105.5 -147.5t147.5 -88t169 -31q193 0 320 149zM778 1724l246 181l123 -131l-369 -275l-368 275l122 131z" />
    <glyph glyph-name="ccaron" unicode="&#x10d;" horiz-adv-x="856" 
d="M786 862v-246q-84 78 -204 78q-118 0 -184 -73t-66 -177q0 -109 73 -180t185 -71q110 0 196 77v-243q-110 -56 -229 -56q-101 0 -190.5 35t-151.5 94q-141 131 -141 340q0 113 41 205.5t112 155.5q129 114 320 114q130 0 239 -53zM532 1262l226 188l123 -123l-349 -283
l-348 283l123 123z" />
    <glyph glyph-name="Dcaron" unicode="&#x10e;" horiz-adv-x="1372" 
d="M156 1366h356q162 0 282.5 -27.5t225.5 -105.5q125 -94 193.5 -237.5t68.5 -313.5q0 -172 -70 -314.5t-204 -236.5q-111 -79 -225.5 -105t-274.5 -26h-352v1366zM422 1137v-908h82q209 0 334 90q81 58 125.5 155t44.5 208q0 109 -44 207t-124 158q-122 90 -336 90h-82z
M594 1724l246 181l123 -131l-369 -275l-369 275l123 131z" />
    <glyph glyph-name="dcaron" unicode="&#x10f;" horiz-adv-x="1454" 
d="M799 772v721h250v-1493h-250v115q-100 -144 -273 -144q-200 0 -326 137t-126 336q0 131 54.5 238t156 170t229.5 63q193 0 285 -143zM578 694q-107 0 -176.5 -71.5t-69.5 -178.5t70 -179t176 -72t175.5 72t69.5 179t-69.5 178.5t-175.5 71.5zM1147 979l135 434l234 -41
l-197 -426z" />
    <glyph glyph-name="Dcroat" unicode="&#x110;" horiz-adv-x="1370" 
d="M156 1366h356q162 0 283 -27.5t225 -105.5q123 -92 191.5 -236.5t68.5 -314.5q0 -171 -70 -313.5t-202 -237.5q-110 -78 -225 -104.5t-275 -26.5h-352v647h-176v205h176v514zM422 1137v-285h250v-205h-250v-418h82q207 0 332 90q81 58 125.5 155t44.5 208
q0 119 -48.5 214.5t-119.5 150.5q-116 90 -334 90h-82z" />
    <glyph glyph-name="dcroat" unicode="&#x111;" horiz-adv-x="1167" 
d="M799 772v373h-451v160h451v188h250v-188h159v-160h-159v-1145h-250v115q-100 -144 -273 -144q-200 0 -326 137t-126 336q0 131 54.5 238t156 170t229.5 63q193 0 285 -143zM578 694q-107 0 -176.5 -71.5t-69.5 -178.5t70 -179t176 -72t175.5 72t69.5 179t-69.5 178.5
t-175.5 71.5z" />
    <glyph glyph-name="Emacron" unicode="&#x112;" horiz-adv-x="1015" 
d="M913 1366v-229h-491v-306h471v-229h-471v-373h491v-229h-757v1366h757zM158 1526v176h749v-176h-749z" />
    <glyph glyph-name="emacron" unicode="&#x113;" horiz-adv-x="1069" 
d="M760 285l229 -37q-12 -29 -26 -55.5t-50 -70t-80.5 -74t-118.5 -54t-161 -23.5q-209 0 -340 125q-139 130 -139 346q0 214 135 349q126 124 334 124q226 0 346 -145q106 -127 106 -348v-21h-663q0 -91 43 -149q61 -84 178 -84q140 0 207 117zM340 561h420q-14 86 -75 132
t-136 46q-74 0 -134.5 -46.5t-74.5 -131.5zM160 1104v164h745v-164h-745z" />
    <glyph glyph-name="Edotaccent" unicode="&#x116;" horiz-adv-x="1015" 
d="M913 1366v-229h-491v-306h471v-229h-471v-373h491v-229h-757v1366h757zM373 1673q0 68 46 114t113 46q68 0 114 -46.5t46 -113.5t-46 -113.5t-114 -46.5q-67 0 -113 46t-46 114z" />
    <glyph glyph-name="edotaccent" unicode="&#x117;" horiz-adv-x="1069" 
d="M760 285l229 -37q-12 -29 -26 -55.5t-50 -70t-80.5 -74t-118.5 -54t-161 -23.5q-209 0 -340 125q-139 130 -139 346q0 214 135 349q126 124 334 124q226 0 346 -145q106 -127 106 -348v-21h-663q0 -91 43 -149q61 -84 178 -84q140 0 207 117zM340 561h420q-14 86 -75 132
t-136 46q-74 0 -134.5 -46.5t-74.5 -131.5zM389 1208q0 64 45.5 110t110.5 46q64 0 109.5 -45.5t45.5 -110.5q0 -64 -45 -109.5t-110 -45.5t-110.5 45.5t-45.5 109.5z" />
    <glyph glyph-name="Eogonek" unicode="&#x118;" horiz-adv-x="1015" 
d="M913 1366v-229h-491v-306h471v-229h-471v-373h491v-229h-82q-49 -34 -81 -74q-37 -50 -37 -96q0 -31 20 -51q23 -23 68 -23q41 0 96 25l-29 -141q-67 -35 -137 -35q-89 0 -145 53q-49 49 -49 121q0 71 47 131q39 49 104 90h-532v1366h757z" />
    <glyph glyph-name="eogonek" unicode="&#x119;" horiz-adv-x="1069" 
d="M760 285l229 -37q-21 -57 -58.5 -102.5t-70 -69.5t-94.5 -62q-79 -48 -113 -88q-41 -51 -41 -88q0 -35 31 -59q25 -19 64 -19q49 0 94 25l-29 -137q-61 -35 -125 -35q-94 0 -143 49q-47 43 -47 117q0 66 37 117q24 36 73 75q-220 0 -354 125q-139 130 -139 340
q0 220 135 355q127 124 332 124q228 0 348 -145q106 -125 106 -348v-21h-663q-3 -87 43 -149q65 -84 178 -84q79 0 137 39q48 34 70 78zM340 561h420q-14 81 -74 131q-56 47 -137 47q-79 0 -135 -47q-61 -46 -74 -131z" />
    <glyph glyph-name="Ecaron" unicode="&#x11a;" horiz-adv-x="1015" 
d="M913 1366v-229h-491v-306h471v-229h-471v-373h491v-229h-757v1366h757zM532 1724l246 181l123 -131l-369 -275l-368 275l123 131z" />
    <glyph glyph-name="ecaron" unicode="&#x11b;" horiz-adv-x="1069" 
d="M760 285l229 -37q-12 -29 -26 -55.5t-50 -70t-80.5 -74t-118.5 -54t-161 -23.5q-209 0 -340 125q-139 130 -139 346q0 214 135 349q126 124 334 124q226 0 346 -145q106 -127 106 -348v-21h-663q0 -91 43 -149q61 -84 178 -84q140 0 207 117zM340 561h420q-14 86 -75 132
t-136 46q-74 0 -134.5 -46.5t-74.5 -131.5zM541 1262l225 188l123 -123l-348 -283l-348 283l122 123z" />
    <glyph glyph-name="Gcircumflex" unicode="&#x11c;" horiz-adv-x="1564" 
d="M848 502v229h627v-16q0 -50 -6 -104.5t-23.5 -139.5t-61.5 -170.5t-110 -150.5q-181 -181 -486 -181q-145 0 -268 40.5t-227 144.5q-20 20 -39.5 43.5t-51.5 73.5t-55 104.5t-40 136t-17 168.5q0 307 201 508q205 209 538 209q180 0 316 -72q157 -80 256 -250l-232 -125
q-54 106 -159 162q-85 43 -193 43q-86 0 -170 -31t-145 -90q-61 -60 -99 -154.5t-38 -205.5q0 -216 135 -346q121 -117 303 -117q159 0 268 82q98 76 129 209h-352zM799 1679l-246 -180l-123 131l369 275l368 -275l-123 -131z" />
    <glyph glyph-name="gcircumflex" unicode="&#x11d;" horiz-adv-x="1163" 
d="M795 772v115h249v-846q0 -126 -23.5 -219t-98.5 -168q-125 -125 -351 -125q-217 0 -331 102q-51 43 -90 115.5t-54 149.5h271q17 -69 61 -107q51 -47 152 -47q92 0 151 55q39 37 51.5 84.5t12.5 112.5v125q-97 -148 -273 -148q-183 0 -307 121q-141 141 -141 352
q0 104 36 197t101 156q121 118 305 118q185 0 279 -143zM578 694q-101 0 -166 -61q-80 -72 -80 -189q0 -105 65 -174q72 -77 181 -77q98 0 165 61q80 74 80 190q0 104 -71 179q-68 71 -174 71zM553 1233l-225 -189l-123 123l348 283l348 -283l-123 -123z" />
    <glyph glyph-name="Gbreve" unicode="&#x11e;" horiz-adv-x="1564" 
d="M848 502v229h627v-16q0 -50 -6 -104.5t-23.5 -139.5t-61.5 -170.5t-110 -150.5q-181 -181 -486 -181q-145 0 -268 40.5t-227 144.5q-20 20 -39.5 43.5t-51.5 73.5t-55 104.5t-40 136t-17 168.5q0 307 201 508q205 209 538 209q180 0 316 -72q157 -80 256 -250l-232 -125
q-54 106 -159 162q-85 43 -193 43q-86 0 -170 -31t-145 -90q-61 -60 -99 -154.5t-38 -205.5q0 -216 135 -346q121 -117 303 -117q159 0 268 82q98 76 129 209h-352zM971 1782h184q-12 -130 -108 -212.5t-240 -82.5t-240 82.5t-108 212.5h184q10 -52 51.5 -87.5t112.5 -35.5
t112.5 35.5t51.5 87.5z" />
    <glyph glyph-name="gbreve" unicode="&#x11f;" horiz-adv-x="1163" 
d="M795 772v115h249v-846q0 -126 -23.5 -219t-98.5 -168q-125 -125 -351 -125q-217 0 -331 102q-51 43 -90 115.5t-54 149.5h271q17 -69 61 -107q51 -47 152 -47q92 0 151 55q39 37 51.5 84.5t12.5 112.5v125q-97 -148 -273 -148q-183 0 -307 121q-141 141 -141 352
q0 104 36 197t101 156q121 118 305 118q185 0 279 -143zM578 694q-101 0 -166 -61q-80 -72 -80 -189q0 -105 65 -174q72 -77 181 -77q98 0 165 61q80 74 80 190q0 104 -71 179q-68 71 -174 71zM717 1331h172q-11 -100 -76 -178q-96 -111 -260 -111t-260 111q-65 78 -76 178
h172q9 -55 45 -86q43 -43 119 -43t119 43q36 31 45 86z" />
    <glyph glyph-name="Gdotaccent" unicode="&#x120;" horiz-adv-x="1564" 
d="M848 502v229h627v-16q0 -50 -6 -104.5t-23.5 -139.5t-61.5 -170.5t-110 -150.5q-181 -181 -486 -181q-145 0 -268 40.5t-227 144.5q-20 20 -39.5 43.5t-51.5 73.5t-55 104.5t-40 136t-17 168.5q0 307 201 508q205 209 538 209q180 0 316 -72q157 -80 256 -250l-232 -125
q-54 106 -159 162q-85 43 -193 43q-86 0 -170 -31t-145 -90q-61 -60 -99 -154.5t-38 -205.5q0 -216 135 -346q121 -117 303 -117q159 0 268 82q98 76 129 209h-352zM674 1673q0 67 46 113.5t114 46.5q67 0 113 -46t46 -114t-46 -114t-113 -46q-68 0 -114 46.5t-46 113.5z
" />
    <glyph glyph-name="gdotaccent" unicode="&#x121;" horiz-adv-x="1163" 
d="M795 772v115h249v-846q0 -126 -23.5 -219t-98.5 -168q-125 -125 -351 -125q-217 0 -331 102q-51 43 -90 115.5t-54 149.5h271q17 -69 61 -107q51 -47 152 -47q92 0 151 55q39 37 51.5 84.5t12.5 112.5v125q-97 -148 -273 -148q-183 0 -307 121q-141 141 -141 352
q0 104 36 197t101 156q121 118 305 118q185 0 279 -143zM578 694q-101 0 -166 -61q-80 -72 -80 -189q0 -105 65 -174q72 -77 181 -77q98 0 165 61q80 74 80 190q0 104 -71 179q-68 71 -174 71zM397 1208q0 64 45.5 110t110.5 46t110.5 -46t45.5 -110t-45.5 -109.5
t-110.5 -45.5t-110.5 45.5t-45.5 109.5z" />
    <glyph glyph-name="Gcommaaccent" unicode="&#x122;" horiz-adv-x="1564" 
d="M848 502v229h627v-16q0 -50 -6 -104.5t-23.5 -139.5t-61.5 -170.5t-110 -150.5q-181 -181 -486 -181q-145 0 -268 40.5t-227 144.5q-20 20 -39.5 43.5t-51.5 73.5t-55 104.5t-40 136t-17 168.5q0 307 201 508q205 209 538 209q180 0 316 -72q157 -80 256 -250l-232 -125
q-54 106 -159 162q-85 43 -193 43q-86 0 -170 -31t-145 -90q-61 -60 -99 -154.5t-38 -205.5q0 -216 135 -346q121 -117 303 -117q159 0 268 82q98 76 129 209h-352zM573 -528l140 426l229 -33l-205 -418z" />
    <glyph glyph-name="gcommaaccent" unicode="&#x123;" horiz-adv-x="1163" 
d="M795 772v115h249v-846q0 -126 -23.5 -219t-98.5 -168q-125 -125 -351 -125q-217 0 -331 102q-51 43 -90 115.5t-54 149.5h271q17 -69 61 -107q51 -47 152 -47q92 0 151 55q39 37 51.5 84.5t12.5 112.5v125q-97 -148 -273 -148q-183 0 -307 121q-141 141 -141 352
q0 104 36 197t101 156q121 118 305 118q185 0 279 -143zM578 694q-101 0 -166 -61q-80 -72 -80 -189q0 -105 65 -174q72 -77 181 -77q98 0 165 61q80 74 80 190q0 104 -71 179q-68 71 -174 71zM766 1413l-139 -426l-230 33l205 418z" />
    <glyph glyph-name="Hcircumflex" unicode="&#x124;" horiz-adv-x="1421" 
d="M422 1366v-528h577v528h267v-1366h-267v608h-577v-608h-266v1366h266zM711 1679l-246 -180l-123 131l369 275l368 -275l-123 -131z" />
    <glyph glyph-name="hcircumflex" unicode="&#x125;" horiz-adv-x="1093" 
d="M119 0v1493h250v-721q102 143 274 143q71 0 142.5 -25t119.5 -83q70 -87 70 -250v-557h-250v483q0 125 -47 174q-43 45 -117 45q-101 0 -153 -77q-39 -60 -39 -172v-453h-250zM266 1745l-225 -189l-123 123l348 283l348 -283l-122 -123z" />
    <glyph glyph-name="Hbar" unicode="&#x126;" horiz-adv-x="1421" 
d="M422 1366v-109h577v109h267v-109h123v-196h-123v-1061h-267v608h-577v-608h-266v1061h-123v196h123v109h266zM999 1061h-577v-223h577v223z" />
    <glyph glyph-name="hbar" unicode="&#x127;" horiz-adv-x="1114" 
d="M139 0v1145h-159v160h159v188h250v-188h410v-160h-410v-373q102 143 275 143q71 0 142.5 -25t119.5 -83q42 -52 55.5 -112t13.5 -138v-557h-250v483q0 125 -47 174q-43 45 -116 45q-102 0 -154 -77q-39 -60 -39 -172v-453h-250z" />
    <glyph glyph-name="Imacron" unicode="&#x12a;" horiz-adv-x="577" 
d="M156 1366h266v-1366h-266v1366zM2 1526v176h573v-176h-573z" />
    <glyph glyph-name="imacron" unicode="&#x12b;" horiz-adv-x="487" 
d="M119 887h250v-887h-250v887zM-6 1104v164h500v-164h-500z" />
    <glyph glyph-name="Iogonek" unicode="&#x12e;" horiz-adv-x="577" 
d="M156 1366h266v-1366q-51 -35 -82 -74q-37 -50 -37 -96q0 -30 21 -51q23 -23 67 -23q41 0 96 25l-28 -141q-67 -35 -137 -35q-90 0 -146 53q-49 49 -49 121q0 71 47 131q38 48 105 90h-123v1366z" />
    <glyph glyph-name="iogonek" unicode="&#x12f;" horiz-adv-x="487" 
d="M119 887h250v-887q-52 -32 -86 -74q-41 -46 -41 -88q0 -36 30 -59q25 -19 64 -19q49 0 94 25l-29 -137q-55 -35 -127 -35q-90 0 -141 49q-47 47 -47 117q0 75 53 139q41 47 99 82h-119v887zM94 1262q0 61 44 105t106 44t105.5 -43.5t43.5 -105.5t-44 -106t-105 -44
q-62 0 -106 44t-44 106z" />
    <glyph glyph-name="Idotaccent" unicode="&#x130;" horiz-adv-x="577" 
d="M156 1366h266v-1366h-266v1366zM129 1673q0 67 46.5 113.5t113.5 46.5t113.5 -46.5t46.5 -113.5t-46.5 -113.5t-113.5 -46.5t-113.5 46.5t-46.5 113.5z" />
    <glyph glyph-name="dotlessi" unicode="&#x131;" horiz-adv-x="487" 
d="M119 887h250v-887h-250v887z" />
    <glyph glyph-name="Jcircumflex" unicode="&#x134;" horiz-adv-x="798" 
d="M377 1366h266v-922q0 -59 -4 -104t-18.5 -107t-49 -114t-88.5 -88q-94 -62 -223 -62q-181 0 -313 127l162 195q51 -74 133 -74q75 0 104 47q15 22 22.5 64.5t8 68t0.5 88.5v881zM492 1679l-246 -180l-123 131l369 275l368 -275l-123 -131z" />
    <glyph glyph-name="jcircumflex" unicode="&#x135;" horiz-adv-x="487" 
d="M119 887h250v-1356h-250v1356zM244 1233l-178 -160l-115 115l293 262l293 -262l-115 -115z" />
    <glyph glyph-name="Kcommaaccent" unicode="&#x136;" horiz-adv-x="1302" 
d="M422 1366v-578l502 578h336l-578 -631l608 -735h-352l-485 612l-31 -30v-582h-266v1366h266zM432 -528l139 426l230 -33l-205 -418z" />
    <glyph glyph-name="kcommaaccent" unicode="&#x137;" horiz-adv-x="1048" 
d="M119 1493h250v-930l331 324h324l-416 -389l449 -498h-332l-330 379l-26 -25v-354h-250v1493zM307 -528l139 426l230 -33l-205 -418z" />
    <glyph glyph-name="Lacute" unicode="&#x139;" horiz-adv-x="872" 
d="M156 1366h266v-1137h422v-229h-688v1366zM360 1491l-114 102l286 291l185 -143z" />
    <glyph glyph-name="lacute" unicode="&#x13a;" horiz-adv-x="487" 
d="M119 1493h250v-1493h-250v1493zM383 1966l180 -115l-307 -274l-115 82z" />
    <glyph glyph-name="Lcommaaccent" unicode="&#x13b;" horiz-adv-x="872" 
d="M156 1366h266v-1137h422v-229h-688v1366zM266 -528l140 426l229 -33l-205 -418z" />
    <glyph glyph-name="lcommaaccent" unicode="&#x13c;" horiz-adv-x="487" 
d="M119 1493h250v-1493h-250v1493zM20 -528l140 426l229 -33l-205 -418z" />
    <glyph glyph-name="Lcaron" unicode="&#x13d;" horiz-adv-x="872" 
d="M156 1366h266v-1137h422v-229h-688v1366zM532 958l136 435l233 -41l-196 -426z" />
    <glyph glyph-name="lcaron" unicode="&#x13e;" horiz-adv-x="774" 
d="M119 1493h250v-1493h-250v1493zM467 979l135 434l234 -41l-197 -426z" />
    <glyph glyph-name="Ldot" unicode="&#x13f;" horiz-adv-x="872" 
d="M156 1366h266v-1137h422v-229h-688v1366zM561 686q0 68 46.5 114t113.5 46t113.5 -46t46.5 -114t-46.5 -114t-113.5 -46t-113.5 46t-46.5 114z" />
    <glyph glyph-name="ldot" unicode="&#x140;" horiz-adv-x="790" 
d="M119 1493h250v-1493h-250v1493zM483 748q0 64 45.5 109.5t110.5 45.5t110.5 -45.5t45.5 -109.5t-45.5 -110t-110.5 -46t-110.5 46t-45.5 110z" />
    <glyph glyph-name="Lslash" unicode="&#x141;" horiz-adv-x="872" 
d="M156 1366h266v-463l209 133v-205l-209 -133v-469h422v-229h-688v569l-176 -112v205l176 112v592z" />
    <glyph glyph-name="lslash" unicode="&#x142;" horiz-adv-x="487" 
d="M119 1493h250v-428l151 111v-185l-151 -110v-881h-250v745l-152 -110v184l152 111v563z" />
    <glyph glyph-name="Nacute" unicode="&#x143;" horiz-adv-x="1593" 
d="M422 0h-266v1366h184l831 -911v911h267v-1366h-185l-831 913v-913zM748 1491l-115 102l287 291l184 -143z" />
    <glyph glyph-name="nacute" unicode="&#x144;" horiz-adv-x="1093" 
d="M119 0v887h250v-115q102 143 274 143q71 0 142.5 -25t119.5 -83q70 -87 70 -250v-557h-250v483q0 125 -47 174q-43 45 -117 45q-101 0 -153 -77q-39 -60 -39 -172v-453h-250zM686 1434l180 -115l-307 -275l-115 82z" />
    <glyph glyph-name="Ncommaaccent" unicode="&#x145;" horiz-adv-x="1593" 
d="M422 0h-266v1366h184l831 -911v911h267v-1366h-185l-831 913v-913zM571 -528l140 426l229 -33l-205 -418z" />
    <glyph glyph-name="ncommaaccent" unicode="&#x146;" horiz-adv-x="1093" 
d="M119 0v887h250v-115q102 143 274 143q71 0 142.5 -25t119.5 -83q70 -87 70 -250v-557h-250v483q0 125 -47 174q-43 45 -117 45q-101 0 -153 -77q-39 -60 -39 -172v-453h-250zM328 -528l139 426l229 -33l-204 -418z" />
    <glyph glyph-name="Ncaron" unicode="&#x147;" horiz-adv-x="1593" 
d="M422 0h-266v1366h184l831 -911v911h267v-1366h-185l-831 913v-913zM797 1724l245 181l123 -131l-368 -275l-369 275l123 131z" />
    <glyph glyph-name="ncaron" unicode="&#x148;" horiz-adv-x="1093" 
d="M119 0v887h250v-115q102 143 274 143q71 0 142.5 -25t119.5 -83q70 -87 70 -250v-557h-250v483q0 125 -47 174q-43 45 -117 45q-101 0 -153 -77q-39 -60 -39 -172v-453h-250zM594 1262l225 188l123 -123l-348 -283l-348 283l123 123z" />
    <glyph glyph-name="Omacron" unicode="&#x14c;" horiz-adv-x="1638" 
d="M819 1397q212 0 378.5 -91.5t258.5 -254.5t92 -369t-92 -368.5t-258.5 -253.5t-378.5 -91t-378.5 91t-258.5 253.5t-92 368.5t92 369t258.5 254.5t378.5 91.5zM819 211q200 0 327.5 132t127.5 339t-128 340t-327 133t-326.5 -133t-127.5 -340t127 -339t327 -132z
M444 1526v176h750v-176h-750z" />
    <glyph glyph-name="omacron" unicode="&#x14d;" horiz-adv-x="1163" 
d="M582 915q223 0 358 -124q69 -62 109.5 -153t40.5 -196q0 -104 -40.5 -194t-109.5 -152q-136 -125 -358 -125q-223 0 -359 125q-68 62 -108.5 152t-40.5 194q0 105 40.5 196t108.5 153q135 124 359 124zM582 193q107 0 178 73t71 176q0 105 -71.5 178.5t-177.5 73.5
t-178 -73.5t-72 -178.5q0 -103 71.5 -176t178.5 -73zM209 1104v164h745v-164h-745z" />
    <glyph glyph-name="Obreve" unicode="&#x14e;" horiz-adv-x="1638" 
d="M819 1397q212 0 378.5 -91.5t258.5 -254.5t92 -369t-92 -368.5t-258.5 -253.5t-378.5 -91t-378.5 91t-258.5 253.5t-92 368.5t92 369t258.5 254.5t378.5 91.5zM819 211q200 0 327.5 132t127.5 339t-128 340t-327 133t-326.5 -133t-127.5 -340t127 -339t327 -132z
M983 1782h184q-12 -130 -108 -212.5t-240 -82.5t-240 82.5t-108 212.5h184q10 -52 51.5 -87.5t112.5 -35.5t112.5 35.5t51.5 87.5z" />
    <glyph glyph-name="obreve" unicode="&#x14f;" horiz-adv-x="1163" 
d="M582 915q223 0 358 -124q69 -62 109.5 -153t40.5 -196q0 -104 -40.5 -194t-109.5 -152q-136 -125 -358 -125q-223 0 -359 125q-68 62 -108.5 152t-40.5 194q0 105 40.5 196t108.5 153q135 124 359 124zM582 193q107 0 178 73t71 176q0 105 -71.5 178.5t-177.5 73.5
t-178 -73.5t-72 -178.5q0 -103 71.5 -176t178.5 -73zM745 1331h173q-11 -100 -76 -178q-96 -111 -260 -111t-260 111q-65 78 -76 178h172q9 -55 45 -86q43 -43 119 -43q75 0 118 43q36 31 45 86z" />
    <glyph glyph-name="Ohungarumlaut" unicode="&#x150;" horiz-adv-x="1638" 
d="M819 1397q212 0 378.5 -91.5t258.5 -254.5t92 -369t-92 -368.5t-258.5 -253.5t-378.5 -91t-378.5 91t-258.5 253.5t-92 368.5t92 369t258.5 254.5t378.5 91.5zM819 211q200 0 327.5 132t127.5 339t-128 340t-327 133t-326.5 -133t-127.5 -340t127 -339t327 -132z
M713 1886l184 -121l-295 -274l-115 82zM1122 1884l185 -119l-295 -274l-115 82z" />
    <glyph glyph-name="ohungarumlaut" unicode="&#x151;" horiz-adv-x="1163" 
d="M582 915q223 0 358 -124q69 -62 109.5 -153t40.5 -196q0 -104 -40.5 -194t-109.5 -152q-136 -125 -358 -125q-223 0 -359 125q-68 62 -108.5 152t-40.5 194q0 105 40.5 196t108.5 153q135 124 359 124zM582 193q107 0 178 73t71 176q0 105 -71.5 178.5t-177.5 73.5
t-178 -73.5t-72 -178.5q0 -103 71.5 -176t178.5 -73zM487 1413l168 -119l-270 -274l-102 82zM872 1411l168 -117l-270 -274l-102 82z" />
    <glyph glyph-name="OE" unicode="&#x152;" horiz-adv-x="2125" 
d="M2023 1366v-229h-479v-306h459v-229h-459v-373h479v-229h-745v184q-176 -215 -471 -215q-207 0 -371 92t-255 254.5t-91 366.5q0 151 53.5 283.5t146.5 227.5t226.5 149.5t286.5 54.5q185 0 338 -92q81 -50 137 -123v184h745zM809 211q195 0 319.5 132.5t124.5 338.5
t-124.5 339.5t-319.5 133.5q-196 0 -320 -132.5t-124 -340.5q0 -207 124.5 -339t319.5 -132z" />
    <glyph glyph-name="oe" unicode="&#x153;" horiz-adv-x="1802" 
d="M1493 285l229 -37q-11 -27 -25 -53t-50.5 -70t-80.5 -75t-118.5 -55t-161.5 -24q-232 0 -348 172q-38 -49 -102 -94q-116 -78 -265 -78q-210 0 -350 125q-147 135 -147 346q0 214 147 349q135 124 350 124q233 0 365 -161q115 161 340 161q223 0 346 -145
q107 -129 107 -348v-21h-664q-4 -88 43 -149q61 -84 178 -84q140 0 207 117zM571 193q93 0 166.5 67t73.5 182q0 105 -68 178.5t-172 73.5t-171.5 -73.5t-67.5 -178.5q0 -115 73 -182t166 -67zM1073 561h420q-14 86 -75 132t-136 46q-74 0 -134.5 -46.5t-74.5 -131.5z" />
    <glyph glyph-name="Racute" unicode="&#x154;" horiz-adv-x="1175" 
d="M156 1366h395q227 0 348 -102q135 -114 135 -308q0 -101 -41 -184.5t-119 -136.5q-62 -44 -149 -60l426 -575h-332l-364 549h-33v-549h-266v1366zM422 1149v-412h76q24 0 47.5 2t65.5 13.5t72 31.5t53.5 61.5t23.5 98.5q0 48 -15 85.5t-42 58.5t-53 34.5t-60 18.5
t-51 6.5t-37 1.5h-80zM539 1491l-115 102l287 291l184 -143z" />
    <glyph glyph-name="racute" unicode="&#x155;" horiz-adv-x="737" 
d="M119 0v887h250v-133q18 35 42 63.5t39.5 40.5t28.5 19q59 38 148 38q48 0 106 -20l-33 -233q-46 32 -116 32q-109 0 -166 -71q-22 -27 -33.5 -65t-13.5 -65t-2 -67v-426h-250zM528 1434l181 -115l-308 -275l-114 82z" />
    <glyph glyph-name="Rcommaaccent" unicode="&#x156;" horiz-adv-x="1175" 
d="M156 1366h395q227 0 348 -102q135 -114 135 -308q0 -101 -41 -184.5t-119 -136.5q-62 -44 -149 -60l426 -575h-332l-364 549h-33v-549h-266v1366zM422 1149v-412h76q24 0 47.5 2t65.5 13.5t72 31.5t53.5 61.5t23.5 98.5q0 48 -15 85.5t-42 58.5t-53 34.5t-60 18.5
t-51 6.5t-37 1.5h-80zM369 -528l139 426l229 -33l-205 -418z" />
    <glyph glyph-name="rcommaaccent" unicode="&#x157;" horiz-adv-x="737" 
d="M119 0v887h250v-133q18 35 42 63.5t39.5 40.5t28.5 19q59 38 148 38q48 0 106 -20l-33 -233q-46 32 -116 32q-109 0 -166 -71q-22 -27 -33.5 -65t-13.5 -65t-2 -67v-426h-250zM184 -528l140 426l229 -33l-205 -418z" />
    <glyph glyph-name="Rcaron" unicode="&#x158;" horiz-adv-x="1175" 
d="M156 1366h395q227 0 348 -102q135 -114 135 -308q0 -101 -41 -184.5t-119 -136.5q-62 -44 -149 -60l426 -575h-332l-364 549h-33v-549h-266v1366zM422 1149v-412h76q24 0 47.5 2t65.5 13.5t72 31.5t53.5 61.5t23.5 98.5q0 48 -15 85.5t-42 58.5t-53 34.5t-60 18.5
t-51 6.5t-37 1.5h-80zM553 1724l246 181l123 -131l-369 -275l-369 275l123 131z" />
    <glyph glyph-name="rcaron" unicode="&#x159;" horiz-adv-x="737" 
d="M119 0v887h250v-133q18 35 42 63.5t39.5 40.5t28.5 19q59 38 148 38q48 0 106 -20l-33 -233q-46 32 -116 32q-109 0 -166 -71q-22 -27 -33.5 -65t-13.5 -65t-2 -67v-426h-250zM430 1262l225 188l123 -123l-348 -283l-348 283l123 123z" />
    <glyph glyph-name="Sacute" unicode="&#x15a;" horiz-adv-x="1093" 
d="M967 1237l-140 -182q-88 116 -223 116q-51 0 -89.5 -14.5t-59 -39t-30 -51t-9.5 -54.5q0 -54 43 -92q23 -21 55.5 -35.5t108.5 -42.5q100 -35 164.5 -65t111.5 -72q117 -105 117 -287q0 -200 -131.5 -324.5t-343.5 -124.5q-89 0 -168 24.5t-136.5 66.5t-96 81.5
t-70.5 85.5l174 166q46 -93 125.5 -137.5t160.5 -44.5q92 0 151.5 51.5t59.5 136.5q0 73 -53 123q-24 22 -64 42.5t-65 29.5t-82 29q-152 53 -227 118q-109 94 -109 254q0 78 26.5 148t78.5 128t138.5 92t195.5 34q231 0 387 -160zM545 1491l-115 102l287 291l184 -143z" />
    <glyph glyph-name="sacute" unicode="&#x15b;" horiz-adv-x="827" 
d="M725 821l-123 -145q-63 59 -145 59q-44 0 -70.5 -19.5t-26.5 -51.5q0 -54 80 -80l60 -19q51 -17 81.5 -28.5t75.5 -39t68 -59.5q45 -62 45 -147q0 -135 -98 -225q-104 -95 -266 -95q-207 0 -345 148l132 151q39 -45 91 -73.5t105 -28.5q54 0 88.5 25.5t34.5 70.5
q0 62 -78 90l-57 21q-42 15 -67.5 26t-62 32.5t-61.5 47.5q-67 70 -67 170q0 61 25.5 114t66.5 87q80 63 231 63q159 0 283 -94zM553 1434l180 -115l-307 -275l-115 82z" />
    <glyph glyph-name="Scircumflex" unicode="&#x15c;" horiz-adv-x="1093" 
d="M967 1237l-140 -182q-88 116 -223 116q-51 0 -89.5 -14.5t-59 -39t-30 -51t-9.5 -54.5q0 -54 43 -92q23 -21 55.5 -35.5t108.5 -42.5q100 -35 164.5 -65t111.5 -72q117 -105 117 -287q0 -200 -131.5 -324.5t-343.5 -124.5q-89 0 -168 24.5t-136.5 66.5t-96 81.5
t-70.5 85.5l174 166q46 -93 125.5 -137.5t160.5 -44.5q92 0 151.5 51.5t59.5 136.5q0 73 -53 123q-24 22 -64 42.5t-65 29.5t-82 29q-152 53 -227 118q-109 94 -109 254q0 78 26.5 148t78.5 128t138.5 92t195.5 34q231 0 387 -160zM573 1679l-245 -180l-123 131l368 275
l369 -275l-123 -131z" />
    <glyph glyph-name="scircumflex" unicode="&#x15d;" horiz-adv-x="827" 
d="M725 821l-123 -145q-63 59 -145 59q-44 0 -70.5 -19.5t-26.5 -51.5q0 -54 80 -80l60 -19q51 -17 81.5 -28.5t75.5 -39t68 -59.5q45 -62 45 -147q0 -135 -98 -225q-104 -95 -266 -95q-207 0 -345 148l132 151q39 -45 91 -73.5t105 -28.5q54 0 88.5 25.5t34.5 70.5
q0 62 -78 90l-57 21q-42 15 -67.5 26t-62 32.5t-61.5 47.5q-67 70 -67 170q0 61 25.5 114t66.5 87q80 63 231 63q159 0 283 -94zM430 1233l-225 -189l-123 123l348 283l348 -283l-123 -123z" />
    <glyph glyph-name="Scedilla" unicode="&#x15e;" horiz-adv-x="1093" 
d="M967 1237l-140 -182q-88 116 -223 116q-51 0 -89.5 -14.5t-59 -39t-30 -51t-9.5 -54.5q0 -54 43 -92q23 -21 55.5 -35.5t108.5 -42.5q100 -35 164.5 -65t111.5 -72q117 -105 117 -287q0 -200 -131.5 -324.5t-343.5 -124.5q-89 0 -168 24.5t-136.5 66.5t-96 81.5
t-70.5 85.5l174 166q46 -93 125.5 -137.5t160.5 -44.5q92 0 151.5 51.5t59.5 136.5q0 73 -53 123q-24 22 -64 42.5t-65 29.5t-82 29q-152 53 -227 118q-109 94 -109 254q0 78 26.5 148t78.5 128t138.5 92t195.5 34q231 0 387 -160zM500 -94l196 -90l-250 -316l-135 74z" />
    <glyph glyph-name="scedilla" unicode="&#x15f;" horiz-adv-x="827" 
d="M725 821l-123 -145q-63 59 -145 59q-44 0 -70.5 -19.5t-26.5 -51.5q0 -54 80 -80l60 -19q51 -17 81.5 -28.5t75.5 -39t68 -59.5q45 -62 45 -147q0 -135 -98 -225q-104 -95 -266 -95q-207 0 -345 148l132 151q39 -45 91 -73.5t105 -28.5q54 0 88.5 25.5t34.5 70.5
q0 62 -78 90l-57 21q-42 15 -67.5 26t-62 32.5t-61.5 47.5q-67 70 -67 170q0 61 25.5 114t66.5 87q80 63 231 63q159 0 283 -94zM373 -94l180 -90l-246 -299l-131 82z" />
    <glyph glyph-name="Scaron" unicode="&#x160;" horiz-adv-x="1093" 
d="M967 1237l-140 -182q-88 116 -223 116q-51 0 -89.5 -14.5t-59 -39t-30 -51t-9.5 -54.5q0 -54 43 -92q23 -21 55.5 -35.5t108.5 -42.5q100 -35 164.5 -65t111.5 -72q117 -105 117 -287q0 -200 -131.5 -324.5t-343.5 -124.5q-89 0 -168 24.5t-136.5 66.5t-96 81.5
t-70.5 85.5l174 166q46 -93 125.5 -137.5t160.5 -44.5q92 0 151.5 51.5t59.5 136.5q0 73 -53 123q-24 22 -64 42.5t-65 29.5t-82 29q-152 53 -227 118q-109 94 -109 254q0 78 26.5 148t78.5 128t138.5 92t195.5 34q231 0 387 -160zM573 1724l246 181l123 -131l-369 -275
l-368 275l123 131z" />
    <glyph glyph-name="scaron" unicode="&#x161;" horiz-adv-x="827" 
d="M725 821l-123 -145q-63 59 -145 59q-44 0 -70.5 -19.5t-26.5 -51.5q0 -54 80 -80l60 -19q51 -17 81.5 -28.5t75.5 -39t68 -59.5q45 -62 45 -147q0 -135 -98 -225q-104 -95 -266 -95q-207 0 -345 148l132 151q39 -45 91 -73.5t105 -28.5q54 0 88.5 25.5t34.5 70.5
q0 62 -78 90l-57 21q-42 15 -67.5 26t-62 32.5t-61.5 47.5q-67 70 -67 170q0 61 25.5 114t66.5 87q80 63 231 63q159 0 283 -94zM430 1262l225 188l123 -123l-348 -283l-348 283l123 123z" />
    <glyph glyph-name="Tcedilla" unicode="&#x162;" horiz-adv-x="905" 
d="M893 1137h-307v-1137h-267v1137h-307v229h881v-229zM397 -94l197 -90l-250 -316l-135 74z" />
    <glyph glyph-name="tcedilla" unicode="&#x163;" horiz-adv-x="552" 
d="M541 674h-172v-674h-250v674h-99v213h99v303h250v-303h172v-213zM209 -94l180 -90l-246 -299l-131 82z" />
    <glyph glyph-name="Tcaron" unicode="&#x164;" horiz-adv-x="905" 
d="M893 1137h-307v-1137h-267v1137h-307v229h881v-229zM453 1724l245 181l123 -131l-368 -275l-369 275l123 131z" />
    <glyph glyph-name="tcaron" unicode="&#x165;" horiz-adv-x="757" 
d="M541 674h-172v-674h-250v674h-99v213h99v303h250v-303h172v-213zM451 979l135 434l233 -41l-196 -426z" />
    <glyph glyph-name="Utilde" unicode="&#x168;" horiz-adv-x="1409" 
d="M156 1366h266v-858q0 -130 65 -203q78 -94 218 -94q139 0 217 94q65 73 65 203v858h266v-836q0 -235 -102 -364q-72 -95 -191.5 -146t-254.5 -51t-255 51t-192 146q-102 129 -102 364v836zM965 1780l133 -99q-37 -74 -92 -120q-64 -58 -142 -58q-50 0 -139 35l-72 29
q-82 30 -102 30q-40 0 -70 -30q-19 -19 -32 -49l-138 98q32 62 80 110q68 68 156 68q47 0 139 -35l80 -33q64 -26 98 -26q42 0 68 26q16 16 33 54z" />
    <glyph glyph-name="utilde" unicode="&#x169;" horiz-adv-x="1097" 
d="M119 887h250v-502q0 -107 53 -156q52 -45 127 -45t127 45q53 49 53 156v502h250v-543q0 -78 -21.5 -146t-87.5 -126q-58 -51 -145 -76t-176 -25t-176.5 25t-145.5 76q-66 58 -87 126t-21 146v543zM801 1325l121 -98q-29 -60 -78 -109q-59 -53 -135 -53q-67 0 -146 33
l-69 28q-61 25 -95 25t-63 -29q-22 -22 -35 -51l-125 98q33 64 72 103q59 59 147 59q56 0 125 -26l78 -31q74 -29 102 -29q41 0 64 23q21 21 37 57z" />
    <glyph glyph-name="Umacron" unicode="&#x16a;" horiz-adv-x="1409" 
d="M156 1366h266v-858q0 -130 65 -203q78 -94 218 -94q139 0 217 94q65 73 65 203v858h266v-836q0 -235 -102 -364q-72 -95 -191.5 -146t-254.5 -51t-255 51t-192 146q-102 129 -102 364v836zM330 1526v176h749v-176h-749z" />
    <glyph glyph-name="umacron" unicode="&#x16b;" horiz-adv-x="1097" 
d="M119 887h250v-502q0 -107 53 -156q52 -45 127 -45t127 45q53 49 53 156v502h250v-543q0 -78 -21.5 -146t-87.5 -126q-58 -51 -145 -76t-176 -25t-176.5 25t-145.5 76q-66 58 -87 126t-21 146v543zM176 1104v164h746v-164h-746z" />
    <glyph glyph-name="Ubreve" unicode="&#x16c;" horiz-adv-x="1409" 
d="M156 1366h266v-858q0 -130 65 -203q78 -94 218 -94q139 0 217 94q65 73 65 203v858h266v-836q0 -235 -102 -364q-72 -95 -191.5 -146t-254.5 -51t-255 51t-192 146q-102 129 -102 364v836zM868 1782h185q-12 -130 -108 -212.5t-240 -82.5t-240.5 82.5t-108.5 212.5h185
q10 -52 51.5 -87.5t112.5 -35.5t112 35t51 88z" />
    <glyph glyph-name="ubreve" unicode="&#x16d;" horiz-adv-x="1097" 
d="M119 887h250v-502q0 -107 53 -156q52 -45 127 -45t127 45q53 49 53 156v502h250v-543q0 -78 -21.5 -146t-87.5 -126q-58 -51 -145 -76t-176 -25t-176.5 25t-145.5 76q-66 58 -87 126t-21 146v543zM713 1331h172q-11 -100 -76 -178q-96 -111 -260 -111t-260 111
q-65 78 -76 178h172q9 -55 45 -86q43 -43 119 -43t119 43q36 31 45 86z" />
    <glyph glyph-name="Uring" unicode="&#x16e;" horiz-adv-x="1409" 
d="M156 1366h266v-858q0 -130 65 -203q78 -94 218 -94q139 0 217 94q65 73 65 203v858h266v-836q0 -235 -102 -364q-72 -95 -191.5 -146t-254.5 -51t-255 51t-192 146q-102 129 -102 364v836zM623 1692q0 -35 23.5 -58.5t58.5 -23.5t58 23.5t23 58.5t-23 58.5t-58 23.5
t-58.5 -23.5t-23.5 -58.5zM502 1692q0 86 58.5 144t144.5 58t144 -58t58 -144t-58 -144.5t-144 -58.5t-144.5 58.5t-58.5 144.5z" />
    <glyph glyph-name="uring" unicode="&#x16f;" horiz-adv-x="1097" 
d="M119 887h250v-502q0 -107 53 -156q52 -45 127 -45t127 45q53 49 53 156v502h250v-543q0 -78 -21.5 -146t-87.5 -126q-58 -51 -145 -76t-176 -25t-176.5 25t-145.5 76q-66 58 -87 126t-21 146v543zM356 1229q0 78 57.5 135t135.5 57t135 -57t57 -135t-57 -135.5
t-135 -57.5t-135.5 57.5t-57.5 135.5zM469 1229q0 -35 22.5 -57.5t57.5 -22.5t57.5 22.5t22.5 57.5t-22.5 57.5t-57.5 22.5t-57.5 -22.5t-22.5 -57.5z" />
    <glyph glyph-name="Uhungarumlaut" unicode="&#x170;" horiz-adv-x="1409" 
d="M156 1366h266v-858q0 -130 65 -203q78 -94 218 -94q139 0 217 94q65 73 65 203v858h266v-836q0 -235 -102 -364q-72 -95 -191.5 -146t-254.5 -51t-255 51t-192 146q-102 129 -102 364v836zM598 1886l184 -121l-295 -274l-114 82zM1008 1884l184 -119l-295 -274l-115 82z
" />
    <glyph glyph-name="uhungarumlaut" unicode="&#x171;" horiz-adv-x="1097" 
d="M119 887h250v-502q0 -107 53 -156q52 -45 127 -45t127 45q53 49 53 156v502h250v-543q0 -78 -21.5 -146t-87.5 -126q-58 -51 -145 -76t-176 -25t-176.5 25t-145.5 76q-66 58 -87 126t-21 146v543zM455 1413l168 -119l-271 -274l-102 82zM840 1411l168 -117l-271 -274
l-102 82z" />
    <glyph glyph-name="Uogonek" unicode="&#x172;" horiz-adv-x="1409" 
d="M156 1366h266v-858q0 -130 65 -203q78 -94 218 -94q139 0 217 94q65 73 65 203v858h266v-836q0 -232 -102 -364q-36 -48 -79 -79t-114 -69q-35 -20 -49.5 -28.5t-37 -25.5t-37.5 -34q-41 -47 -41 -100q0 -31 20 -51q23 -23 68 -23q41 0 96 25l-29 -141q-67 -35 -137 -35
q-89 0 -145 53q-50 47 -50 121q0 61 31 108q26 42 76 82q-41 0 -84 5t-115.5 21.5t-143.5 60.5t-122 110q-102 132 -102 364v836z" />
    <glyph glyph-name="uogonek" unicode="&#x173;" horiz-adv-x="1097" 
d="M119 887h250v-502q0 -107 53 -156q52 -45 127 -45t127 45q53 49 53 156v502h250v-543q0 -164 -90 -254q-31 -32 -119 -84q-79 -51 -106 -78q-43 -43 -43 -90q0 -36 30 -59q25 -19 64 -19q48 0 94 25l-29 -137q-63 -35 -127 -35q-92 0 -141 49q-47 43 -47 117q0 57 33 110
q29 46 77 82q-232 0 -348 101q-66 58 -87 126t-21 146v543z" />
    <glyph glyph-name="Ydieresis" unicode="&#x178;" horiz-adv-x="1208" 
d="M465 0v625l-469 741h315l293 -475l293 475h315l-481 -741v-625h-266zM227 1661q0 60 44 103.5t104 43.5t103.5 -43.5t43.5 -103.5t-43.5 -104t-103.5 -44t-104 44t-44 104zM686 1661q0 60 44 103.5t104 43.5t103.5 -43.5t43.5 -103.5t-43.5 -104t-103.5 -44t-104 44
t-44 104z" />
    <glyph glyph-name="Zacute" unicode="&#x179;" horiz-adv-x="1196" 
d="M1151 1366l-664 -1137h631v-229h-1073l664 1137h-559v229h1001zM586 1491l-115 102l287 291l184 -143z" />
    <glyph glyph-name="zacute" unicode="&#x17a;" horiz-adv-x="991" 
d="M967 887l-504 -674h469v-213h-907l503 674h-426v213h865zM635 1434l180 -115l-307 -275l-115 82z" />
    <glyph glyph-name="Zdotaccent" unicode="&#x17b;" horiz-adv-x="1196" 
d="M1151 1366l-664 -1137h631v-229h-1073l664 1137h-559v229h1001zM475 1673q0 67 46.5 113.5t113.5 46.5t113.5 -46.5t46.5 -113.5t-46.5 -113.5t-113.5 -46.5t-113.5 46.5t-46.5 113.5z" />
    <glyph glyph-name="zdotaccent" unicode="&#x17c;" horiz-adv-x="991" 
d="M967 887l-504 -674h469v-213h-907l503 674h-426v213h865zM356 1208q0 64 46 110t110 46t110 -46t46 -110t-45.5 -109.5t-110.5 -45.5t-110.5 45.5t-45.5 109.5z" />
    <glyph glyph-name="Zcaron" unicode="&#x17d;" horiz-adv-x="1196" 
d="M1151 1366l-664 -1137h631v-229h-1073l664 1137h-559v229h1001zM635 1724l246 181l123 -131l-369 -275l-369 275l123 131z" />
    <glyph glyph-name="zcaron" unicode="&#x17e;" horiz-adv-x="991" 
d="M967 887l-504 -674h469v-213h-907l503 674h-426v213h865zM512 1262l225 188l123 -123l-348 -283l-348 283l123 123z" />
    <glyph glyph-name="uni018F" unicode="&#x18f;" horiz-adv-x="1560" 
d="M90 772h1102q-25 168 -145.5 275.5t-286.5 107.5q-100 0 -197.5 -44.5t-167.5 -139.5l-231 125q114 148 270 224.5t332 76.5q153 0 283.5 -52.5t223 -145.5t145 -226.5t52.5 -290.5t-52.5 -290t-144.5 -226t-222.5 -145t-282.5 -52q-356 0 -539 267q-68 98 -103.5 218
t-35.5 242v76zM1190 567h-799q8 -130 86 -225q50 -60 126 -95.5t169 -35.5q80 0 157 29.5t136 87.5q97 96 125 239z" />
    <glyph glyph-name="florin" unicode="&#x192;" horiz-adv-x="1163" 
d="M455 711h-123l33 176h122l50 266q31 177 118 264q96 99 254 99q97 0 178 -39l-40 -220q-57 31 -113 31q-52 0 -92 -35q-40 -38 -54 -123l-47 -243h222l-33 -176h-221l-95 -545q-29 -159 -61.5 -253.5t-101.5 -162.5q-121 -119 -357 -119q-48 0 -100 9l39 229q35 -6 65 -6
q105 0 164 53q41 37 63.5 108t41.5 181z" />
    <glyph glyph-name="uni01CF" unicode="&#x1cf;" horiz-adv-x="577" 
d="M156 1366h266v-1366h-266v1366zM289 1720l188 164l111 -110l-299 -254l-299 254l110 110z" />
    <glyph glyph-name="uni01D0" unicode="&#x1d0;" horiz-adv-x="487" 
d="M119 887h250v-887h-250v887zM244 1290l178 160l115 -115l-293 -262l-293 262l115 115z" />
    <glyph glyph-name="uni01DD" unicode="&#x1dd;" horiz-adv-x="1069" 
d="M326 610l-230 37q55 131 165.5 199.5t262.5 68.5q202 0 332 -124q139 -133 139 -347q0 -213 -135 -348q-127 -125 -334 -125q-226 0 -346 146q-106 127 -106 348v41h663q-3 76 -43 129q-60 84 -170 84q-60 0 -113 -26.5t-85 -82.5zM733 346h-428q13 -94 73.5 -146.5
t141.5 -52.5t141 53.5t72 145.5z" />
    <glyph glyph-name="Gcaron" unicode="&#x1e6;" horiz-adv-x="1564" 
d="M848 502v229h627v-16q0 -50 -6 -104.5t-23.5 -139.5t-61.5 -170.5t-110 -150.5q-181 -181 -486 -181q-145 0 -268 40.5t-227 144.5q-20 20 -39.5 43.5t-51.5 73.5t-55 104.5t-40 136t-17 168.5q0 307 201 508q205 209 538 209q180 0 316 -72q157 -80 256 -250l-232 -125
q-54 106 -159 162q-85 43 -193 43q-86 0 -170 -31t-145 -90q-61 -60 -99 -154.5t-38 -205.5q0 -216 135 -346q121 -117 303 -117q159 0 268 82q98 76 129 209h-352zM782 1724l246 181l123 -131l-369 -275l-368 275l123 131z" />
    <glyph glyph-name="gcaron" unicode="&#x1e7;" horiz-adv-x="1163" 
d="M795 772v115h249v-846q0 -126 -23.5 -219t-98.5 -168q-125 -125 -351 -125q-217 0 -331 102q-51 43 -90 115.5t-54 149.5h271q17 -69 61 -107q51 -47 152 -47q92 0 151 55q39 37 51.5 84.5t12.5 112.5v125q-97 -148 -273 -148q-183 0 -307 121q-141 141 -141 352
q0 104 36 197t101 156q121 118 305 118q185 0 279 -143zM578 694q-101 0 -166 -61q-80 -72 -80 -189q0 -105 65 -174q72 -77 181 -77q98 0 165 61q80 74 80 190q0 104 -71 179q-68 71 -174 71zM582 1262l225 188l123 -123l-348 -283l-349 283l123 123z" />
    <glyph glyph-name="AEacute" unicode="&#x1fc;" horiz-adv-x="1884" 
d="M1092 0l-121 287h-551l-121 -287h-287l592 1366h721l90 -229h-502l123 -306h494l94 -229h-496l150 -373h504l90 -229h-780zM504 504h389l-188 491zM893 1491l-115 102l287 291l184 -143z" />
    <glyph glyph-name="aeacute" unicode="&#x1fd;" horiz-adv-x="1654" 
d="M1346 285l229 -37q-22 -55 -55 -99.5t-67 -72.5t-75 -49t-73.5 -31.5t-69.5 -16.5t-56.5 -7t-39.5 -1q-233 0 -344 168q-128 -168 -357 -168q-175 0 -269.5 83t-94.5 204q0 126 90 205q104 92 285 92q121 0 229 -61l2 43q3 49 -20.5 86.5t-55.5 58.5q-56 37 -166 37
q-107 0 -227 -35v199q141 32 246 32q49 0 87 -4t87 -17.5t91 -46t73 -81.5q120 149 335 149q225 0 345 -145q106 -127 106 -348v-21h-663q-4 -88 43 -149q61 -84 178 -84q140 0 207 117zM315 268q0 -45 42.5 -83t131.5 -38q94 0 141.5 40t47.5 85q0 41 -45 74t-146 33
q-90 0 -131 -34t-41 -77zM926 561h420q-14 86 -75 132t-136 46q-74 0 -134.5 -46.5t-74.5 -131.5zM967 1434l180 -115l-307 -275l-115 82z" />
    <glyph glyph-name="Scommaaccent" unicode="&#x218;" horiz-adv-x="1093" 
d="M967 1237l-140 -182q-88 116 -223 116q-51 0 -89.5 -14.5t-59 -39t-30 -51t-9.5 -54.5q0 -54 43 -92q23 -21 55.5 -35.5t108.5 -42.5q100 -35 164.5 -65t111.5 -72q117 -105 117 -287q0 -200 -131.5 -324.5t-343.5 -124.5q-89 0 -168 24.5t-136.5 66.5t-96 81.5
t-70.5 85.5l174 166q46 -93 125.5 -137.5t160.5 -44.5q92 0 151.5 51.5t59.5 136.5q0 73 -53 123q-24 22 -64 42.5t-65 29.5t-82 29q-152 53 -227 118q-109 94 -109 254q0 78 26.5 148t78.5 128t138.5 92t195.5 34q231 0 387 -160zM328 -528l139 426l229 -33l-204 -418z" />
    <glyph glyph-name="scommaaccent" unicode="&#x219;" horiz-adv-x="827" 
d="M725 821l-123 -145q-63 59 -145 59q-44 0 -70.5 -19.5t-26.5 -51.5q0 -54 80 -80l60 -19q51 -17 81.5 -28.5t75.5 -39t68 -59.5q45 -62 45 -147q0 -135 -98 -225q-104 -95 -266 -95q-207 0 -345 148l132 151q39 -45 91 -73.5t105 -28.5q54 0 88.5 25.5t34.5 70.5
q0 62 -78 90l-57 21q-42 15 -67.5 26t-62 32.5t-61.5 47.5q-67 70 -67 170q0 61 25.5 114t66.5 87q80 63 231 63q159 0 283 -94zM184 -528l140 426l229 -33l-205 -418z" />
    <glyph glyph-name="Tcommaaccent" unicode="&#x21a;" horiz-adv-x="905" 
d="M893 1137h-307v-1137h-267v1137h-307v229h881v-229zM205 -528l139 426l229 -33l-204 -418z" />
    <glyph glyph-name="tcommaaccent" unicode="&#x21b;" horiz-adv-x="552" 
d="M541 674h-172v-674h-250v674h-99v213h99v303h250v-303h172v-213zM20 -528l140 426l229 -33l-205 -418z" />
    <glyph glyph-name="uni0228" unicode="&#x228;" horiz-adv-x="1015" 
d="M913 1366v-229h-491v-306h471v-229h-471v-373h491v-229h-757v1366h757zM516 -94l197 -90l-250 -316l-135 74z" />
    <glyph glyph-name="uni0229" unicode="&#x229;" horiz-adv-x="1069" 
d="M760 285l229 -37q-12 -29 -26 -55.5t-50 -70t-80.5 -74t-118.5 -54t-161 -23.5q-209 0 -340 125q-139 130 -139 346q0 214 135 349q126 124 334 124q226 0 346 -145q106 -127 106 -348v-21h-663q0 -91 43 -149q61 -84 178 -84q140 0 207 117zM340 561h420q-14 86 -75 132
t-136 46q-74 0 -134.5 -46.5t-74.5 -131.5zM559 -94l180 -90l-245 -299l-132 82z" />
    <glyph glyph-name="uni0237" unicode="&#x237;" horiz-adv-x="487" 
d="M119 887h250v-1356h-250v1356z" />
    <glyph glyph-name="uni0259" unicode="&#x259;" horiz-adv-x="1069" 
d="M326 610l-230 37q55 131 165.5 199.5t262.5 68.5q202 0 332 -124q139 -133 139 -347q0 -213 -135 -348q-127 -125 -334 -125q-226 0 -346 146q-106 127 -106 348v41h663q-3 76 -43 129q-60 84 -170 84q-60 0 -113 -26.5t-85 -82.5zM733 346h-428q13 -94 73.5 -146.5
t141.5 -52.5t141 53.5t72 145.5z" />
    <glyph glyph-name="afii57929" unicode="&#x2bc;" 
d="M328 979l135 434l233 -41l-196 -426z" />
    <glyph glyph-name="circumflex" unicode="&#x2c6;" 
d="M512 1233l-225 -189l-123 123l348 283l348 -283l-123 -123z" />
    <glyph glyph-name="caron" unicode="&#x2c7;" 
d="M512 1262l225 188l123 -123l-348 -283l-348 283l123 123z" />
    <glyph glyph-name="uni02C9" unicode="&#x2c9;" 
d="M139 1104v164h746v-164h-746z" />
    <glyph glyph-name="breve" unicode="&#x2d8;" 
d="M676 1331h172q-11 -100 -76 -178q-96 -111 -260 -111t-260 111q-65 78 -76 178h172q9 -55 45 -86q43 -43 119 -43t119 43q36 31 45 86z" />
    <glyph glyph-name="dotaccent" unicode="&#x2d9;" 
d="M356 1208q0 64 46 110t110 46t110 -46t46 -110t-45.5 -109.5t-110.5 -45.5t-110.5 45.5t-45.5 109.5z" />
    <glyph glyph-name="ring" unicode="&#x2da;" 
d="M319 1229q0 78 57.5 135t135.5 57t135.5 -57t57.5 -135t-57.5 -135.5t-135.5 -57.5t-135.5 57.5t-57.5 135.5zM432 1229q0 -35 22.5 -57.5t57.5 -22.5t57.5 22.5t22.5 57.5t-22.5 57.5t-57.5 22.5t-57.5 -22.5t-22.5 -57.5z" />
    <glyph glyph-name="ogonek" unicode="&#x2db;" 
d="M573 0h119q-50 -33 -74 -61q-40 -44 -40 -89q0 -34 24 -57.5t68 -23.5q43 0 96 24l-29 -137q-58 -35 -129 -35q-89 0 -137.5 48t-48.5 116q0 70 53 133q45 52 98 82z" />
    <glyph glyph-name="tilde" unicode="&#x2dc;" 
d="M764 1325l121 -98q-29 -60 -78 -109q-59 -53 -135 -53q-67 0 -146 33l-69 28q-61 25 -95 25t-63 -29q-22 -22 -35 -51l-125 98q33 64 72 103q59 59 147 59q56 0 125 -26l78 -31q74 -29 103 -29q40 0 63 23q21 21 37 57z" />
    <glyph glyph-name="hungarumlaut" unicode="&#x2dd;" 
d="M418 1413l168 -119l-271 -274l-102 82zM803 1411l168 -117l-271 -274l-102 82z" />
    <glyph glyph-name="acutecomb" unicode="&#x301;" horiz-adv-x="4" 
d="M-369 1434l181 -115l-308 -275l-114 82z" />
    <glyph glyph-name="uni0394" unicode="&#x394;" horiz-adv-x="1368" 
d="M1331 0h-1294l508 1366h270zM682 1061l-285 -832h570z" />
    <glyph glyph-name="uni0394" unicode="&#x2206;" horiz-adv-x="1368" 
d="M1331 0h-1294l508 1366h270zM682 1061l-285 -832h570z" />
    <glyph glyph-name="uni03A9" unicode="&#x3a9;" horiz-adv-x="1368" 
d="M61 0v229h291q-95 59 -145 111q-75 76 -114.5 182t-39.5 228q0 130 43 247t122 206t199.5 141.5t266.5 52.5t266.5 -52.5t199.5 -141.5t122 -206t43 -247q0 -122 -39.5 -228t-114.5 -182q-50 -52 -145 -111h291v-229h-549v229q69 33 121 83t82 98q37 62 58 149.5
t21 167.5q0 101 -30 184t-80.5 135.5t-113.5 80.5t-132 28t-132 -28t-113.5 -80.5t-80.5 -135.5t-30 -184q0 -79 21.5 -166.5t58.5 -150.5q75 -120 202 -181v-229h-549z" />
    <glyph glyph-name="uni03A9" unicode="&#x2126;" horiz-adv-x="1368" 
d="M61 0v229h291q-95 59 -145 111q-75 76 -114.5 182t-39.5 228q0 130 43 247t122 206t199.5 141.5t266.5 52.5t266.5 -52.5t199.5 -141.5t122 -206t43 -247q0 -122 -39.5 -228t-114.5 -182q-50 -52 -145 -111h291v-229h-549v229q69 33 121 83t82 98q37 62 58 149.5
t21 167.5q0 101 -30 184t-80.5 135.5t-113.5 80.5t-132 28t-132 -28t-113.5 -80.5t-80.5 -135.5t-30 -184q0 -79 21.5 -166.5t58.5 -150.5q75 -120 202 -181v-229h-549z" />
    <glyph glyph-name="pi" unicode="&#x3c0;" horiz-adv-x="1298" 
d="M479 0h-250v674h-155v213h1151v-213h-156v-674h-250v674h-340v-674z" />
    <glyph glyph-name="afii10023" unicode="&#x401;" horiz-adv-x="1015" 
d="M913 1366v-229h-491v-306h471v-229h-471v-373h491v-229h-757v1366h757zM156 1661q0 60 43.5 103.5t103.5 43.5t104 -43.5t44 -103.5t-44 -104t-104 -44t-103.5 44t-43.5 104zM614 1661q0 60 44 103.5t104 43.5t103.5 -43.5t43.5 -103.5t-43.5 -104t-103.5 -44t-104 44
t-44 104z" />
    <glyph glyph-name="afii10051" unicode="&#x402;" horiz-adv-x="1351" 
d="M1016 1137h-451v-349q140 48 281 48q171 0 278 -62q187 -107 187 -358q0 -137 -45.5 -223.5t-110.5 -129.5q-109 -75 -301 -75q-63 0 -137 12v229q68 -12 131 -12q86 0 129 37q59 50 59 152q0 125 -84 172q-48 28 -141 28q-124 0 -246 -47v-559h-266v1137h-287v229h1004
v-229z" />
    <glyph glyph-name="afii10052" unicode="&#x403;" horiz-adv-x="892" 
d="M881 1366v-229h-459v-1137h-266v1366h725zM524 1491l-114 102l286 291l185 -143z" />
    <glyph glyph-name="afii10053" unicode="&#x404;" horiz-adv-x="1251" 
d="M1161 360v-311q-163 -80 -358 -80q-319 0 -510 191q-32 31 -61.5 70.5t-64.5 104t-56 155t-21 192.5q0 156 54 298.5t151 236.5q189 180 510 180q194 0 356 -84v-312q-19 21 -44.5 42t-70.5 49t-108.5 45.5t-134.5 17.5q-171 0 -289.5 -101t-148.5 -253h653v-230h-653
q31 -171 161 -265.5t291 -94.5q206 0 344 149z" />
    <glyph glyph-name="afii10054" unicode="&#x405;" horiz-adv-x="1093" 
d="M967 1237l-140 -182q-88 116 -223 116q-51 0 -89.5 -14.5t-59 -39t-30 -51t-9.5 -54.5q0 -54 43 -92q23 -21 55.5 -35.5t108.5 -42.5q100 -35 164.5 -65t111.5 -72q117 -105 117 -287q0 -200 -131.5 -324.5t-343.5 -124.5q-89 0 -168 24.5t-136.5 66.5t-96 81.5
t-70.5 85.5l174 166q46 -93 125.5 -137.5t160.5 -44.5q92 0 151.5 51.5t59.5 136.5q0 73 -53 123q-24 22 -64 42.5t-65 29.5t-82 29q-152 53 -227 118q-109 94 -109 254q0 78 26.5 148t78.5 128t138.5 92t195.5 34q231 0 387 -160z" />
    <glyph glyph-name="afii10055" unicode="&#x406;" horiz-adv-x="577" 
d="M156 1366h266v-1366h-266v1366z" />
    <glyph glyph-name="afii10056" unicode="&#x407;" horiz-adv-x="577" 
d="M156 1366h266v-1366h-266v1366zM12 1661q0 59 35 103t84 44t84 -44t35 -103t-35 -103.5t-84 -44.5t-84 44.5t-35 103.5zM319 1661q0 59 35 103t84 44t84 -44t35 -103t-35 -103.5t-84 -44.5t-84 44.5t-35 103.5z" />
    <glyph glyph-name="afii10057" unicode="&#x408;" horiz-adv-x="798" 
d="M377 1366h266v-922q0 -59 -4 -104t-18.5 -107t-49 -114t-88.5 -88q-94 -62 -223 -62q-181 0 -313 127l162 195q51 -74 133 -74q75 0 104 47q15 22 22.5 64.5t8 68t0.5 88.5v881z" />
    <glyph glyph-name="afii10058" unicode="&#x409;" horiz-adv-x="1933" 
d="M287 1366h930v-535h213q214 0 335 -112q127 -117 127 -305q0 -139 -73 -246q-114 -168 -387 -168h-482v1137h-397v-607v-64t-2.5 -63.5t-7.5 -71.5t-15.5 -65.5t-26 -69.5t-39.5 -59.5t-56 -58.5q-106 -90 -273 -90q-58 0 -113 12v229q40 -12 76 -12q74 0 123 49
q25 25 40 57.5t20.5 83t6.5 80t1 97.5v782zM1217 602v-373h155q19 0 35 1t49 5.5t57.5 17t50.5 31.5t40 52.5t14 77.5q0 36 -10.5 66.5t-36 59.5t-75.5 45.5t-120 16.5h-159z" />
    <glyph glyph-name="afii10059" unicode="&#x40a;" horiz-adv-x="1982" 
d="M422 1366v-528h577v528h267v-535h213q215 0 336 -112q127 -117 127 -305q0 -137 -74 -246q-114 -168 -387 -168h-482v608h-577v-608h-266v1366h266zM1266 602v-373h155q19 0 35 1t49 5.5t57.5 17t50.5 31.5t40 52.5t14 77.5q0 36 -10.5 66.5t-36 59.5t-75.5 45.5
t-120 16.5h-159z" />
    <glyph glyph-name="afii10060" unicode="&#x40b;" horiz-adv-x="1413" 
d="M975 1137h-410v-316q147 15 244 15q249 0 365 -88q57 -42 89 -102.5t40 -110.5t8 -115v-420h-267v373q0 41 -2.5 66.5t-18 61.5t-46.5 60q-58 45 -195 45q-116 0 -217 -14v-592h-266v1137h-287v229h963v-229z" />
    <glyph glyph-name="afii10061" unicode="&#x40c;" horiz-adv-x="1302" 
d="M422 1366v-578l502 578h336l-578 -631l608 -735h-352l-485 612l-31 -30v-582h-266v1366h266zM602 1491l-115 102l287 291l184 -143z" />
    <glyph glyph-name="afii10062" unicode="&#x40e;" horiz-adv-x="1249" 
d="M4 1366h311l347 -688l292 688h291l-633 -1366h-290l190 381zM266 1729l185 73q15 -40 41.5 -66.5t57.5 -36.5t49.5 -13t35.5 -3t35.5 3t49.5 13t57.5 36.5t41.5 66.5l185 -73q-41 -107 -136 -168.5t-233 -61.5t-233 61.5t-136 168.5z" />
    <glyph glyph-name="afii10145" unicode="&#x40f;" horiz-adv-x="1384" 
d="M156 0v1366h266v-1137h541v1137h266v-1366h-414v-340h-246v340h-413z" />
    <glyph glyph-name="afii10017" unicode="&#x410;" horiz-adv-x="1376" 
d="M1085 0l-120 287h-551l-121 -287h-289l588 1366h209l571 -1366h-287zM498 504h389l-195 491z" />
    <glyph glyph-name="afii10018" unicode="&#x411;" horiz-adv-x="1167" 
d="M156 0v1366h790v-229h-524v-314h184q218 0 342 -110q129 -116 129 -303q0 -134 -76 -244q-117 -166 -393 -166h-452zM422 594v-365h127q76 0 129 16.5t78.5 44.5t36 56.5t10.5 61.5q0 36 -11 66t-37 58.5t-77.5 45t-124.5 16.5h-131z" />
    <glyph glyph-name="afii10019" unicode="&#x412;" horiz-adv-x="1167" 
d="M156 1366h338q42 0 71 -1.5t79.5 -8.5t97 -26.5t85.5 -49.5q60 -46 93.5 -121t33.5 -162q0 -61 -17.5 -111.5t-46 -82t-48.5 -47.5t-41 -27q104 -16 178 -86q98 -93 98 -256q0 -172 -116 -276q-126 -111 -347 -111h-458v1366zM422 1149v-350h76q20 0 38 1.5t51.5 11.5
t57 27t42 53t18.5 85q0 88 -57.5 130t-147.5 42h-78zM422 594v-377h115q120 0 182 37q84 50 84 158q0 109 -101 155q-57 27 -182 27h-98z" />
    <glyph glyph-name="afii10020" unicode="&#x413;" horiz-adv-x="892" 
d="M881 1366v-229h-459v-1137h-266v1366h725z" />
    <glyph glyph-name="afii10021" unicode="&#x414;" horiz-adv-x="1372" 
d="M287 1366h921v-1137h144v-536h-246v307h-840v-307h-246v536q70 -3 127.5 50t90.5 135q49 123 49 358v594zM545 1137v-365q0 -257 -47 -381q-36 -95 -107 -162h551v908h-397z" />
    <glyph glyph-name="afii10022" unicode="&#x415;" horiz-adv-x="1015" 
d="M913 1366v-229h-491v-306h471v-229h-471v-373h491v-229h-757v1366h757z" />
    <glyph glyph-name="afii10024" unicode="&#x416;" horiz-adv-x="1830" 
d="M788 1366h254v-578l455 578h303l-522 -631l541 -735h-308l-438 612l-31 -30v-582h-254v582l-30 30l-439 -612h-307l541 735l-522 631h303l454 -578v578z" />
    <glyph glyph-name="afii10025" unicode="&#x417;" horiz-adv-x="1228" 
d="M324 1055l-140 182q91 81 192 120.5t228 39.5q206 0 327.5 -97.5t121.5 -259.5q0 -91 -43 -167t-125 -121q122 -31 188 -127.5t66 -225.5q0 -193 -152 -311.5t-391 -118.5q-177 0 -308 67.5t-206 190.5l174 166q31 -69 90 -116.5t123.5 -67t132.5 -19.5q129 0 195.5 59.5
t66.5 143.5q0 209 -299 209h-123v229h123q104 0 166 46.5t62 128.5q0 75 -50 116t-145 41q-175 0 -274 -108z" />
    <glyph glyph-name="afii10026" unicode="&#x418;" horiz-adv-x="1515" 
d="M156 1366h266v-909l749 909h189v-1366h-266v913l-750 -913h-188v1366z" />
    <glyph glyph-name="afii10027" unicode="&#x419;" horiz-adv-x="1515" 
d="M156 1366h266v-909l749 909h189v-1366h-266v913l-750 -913h-188v1366zM389 1729l184 73q15 -40 42 -66.5t58 -36.5t49.5 -13t35.5 -3t35.5 3t49.5 13t57.5 36.5t41.5 66.5l184 -73q-41 -107 -135.5 -168.5t-232.5 -61.5t-233 61.5t-136 168.5z" />
    <glyph glyph-name="afii10028" unicode="&#x41a;" horiz-adv-x="1302" 
d="M422 1366v-578l502 578h336l-578 -631l608 -735h-352l-485 612l-31 -30v-582h-266v1366h266z" />
    <glyph glyph-name="afii10029" unicode="&#x41b;" horiz-adv-x="1372" 
d="M287 1366h930v-1366h-267v1137h-397v-607v-64t-2.5 -63.5t-7.5 -71.5t-15.5 -65.5t-26 -69.5t-39.5 -59.5t-56 -58.5q-106 -90 -273 -90q-58 0 -113 12v229q40 -12 76 -12q74 0 123 49q25 25 40 57.5t20.5 83t6.5 80t1 97.5v782z" />
    <glyph glyph-name="afii10030" unicode="&#x41c;" horiz-adv-x="1781" 
d="M86 0l254 1366h192l363 -868l379 868h192l230 -1366h-271l-122 842l-367 -842h-90l-350 842l-140 -842h-270z" />
    <glyph glyph-name="afii10031" unicode="&#x41d;" horiz-adv-x="1421" 
d="M422 1366v-528h577v528h267v-1366h-267v608h-577v-608h-266v1366h266z" />
    <glyph glyph-name="afii10032" unicode="&#x41e;" horiz-adv-x="1638" 
d="M819 1397q212 0 378.5 -91.5t258.5 -254.5t92 -369t-92 -368.5t-258.5 -253.5t-378.5 -91t-378.5 91t-258.5 253.5t-92 368.5t92 369t258.5 254.5t378.5 91.5zM819 211q200 0 327.5 132t127.5 339t-128 340t-327 133t-326.5 -133t-127.5 -340t127 -339t327 -132z" />
    <glyph glyph-name="afii10033" unicode="&#x41f;" horiz-adv-x="1392" 
d="M156 1366h1081v-1366h-266v1137h-549v-1137h-266v1366z" />
    <glyph glyph-name="afii10034" unicode="&#x420;" horiz-adv-x="1093" 
d="M156 1366h397q126 0 208 -21t152 -83q140 -124 140 -330q0 -27 -3.5 -57t-13.5 -75t-35 -91t-61 -82q-121 -121 -346 -121h-172v-506h-266v1366zM422 1137v-402h108q36 0 57.5 1.5t56.5 11.5t61 30q73 58 73 160q0 99 -76 156q-61 43 -188 43h-92z" />
    <glyph glyph-name="afii10035" unicode="&#x421;" horiz-adv-x="1236" 
d="M1147 360v-311q-153 -80 -338 -80q-168 0 -286 50t-214 141q-115 111 -167 239t-52 283q0 174 61 309t158 226q191 180 502 180q182 0 336 -84v-312q-44 50 -95.5 84t-99.5 47.5t-78.5 18t-56.5 4.5q-133 0 -237.5 -67t-159.5 -175t-55 -235q0 -110 40 -200.5
t105.5 -147.5t147.5 -88t169 -31q193 0 320 149z" />
    <glyph glyph-name="afii10036" unicode="&#x422;" horiz-adv-x="905" 
d="M893 1137h-307v-1137h-267v1137h-307v229h881v-229z" />
    <glyph glyph-name="afii10037" unicode="&#x423;" horiz-adv-x="1249" 
d="M4 1366h311l347 -688l292 688h291l-633 -1366h-290l190 381z" />
    <glyph glyph-name="afii10038" unicode="&#x424;" horiz-adv-x="1699" 
d="M717 0v188h-37q-238 0 -385 103q-205 146 -205 434t205 434q147 103 385 103h37v159h266v-159h37q238 0 385 -103q205 -146 205 -434t-205 -434q-147 -103 -385 -103h-37v-188h-266zM717 418v614h-41q-124 0 -201 -57q-110 -83 -110 -250q0 -162 110 -250
q46 -36 92.5 -46.5t108.5 -10.5h41zM983 1032v-614h41q130 0 203 57q108 85 108 250q0 85 -29.5 149.5t-78.5 100.5q-77 57 -203 57h-41z" />
    <glyph glyph-name="afii10039" unicode="&#x425;" horiz-adv-x="1310" 
d="M16 0l484 721l-408 645h320l239 -424l252 424h320l-420 -645l467 -721h-320l-299 500l-315 -500h-320z" />
    <glyph glyph-name="afii10040" unicode="&#x426;" horiz-adv-x="1413" 
d="M156 0v1366h266v-1137h541v1137h266v-1137h164v-536h-246v307h-991z" />
    <glyph glyph-name="afii10041" unicode="&#x427;" horiz-adv-x="1269" 
d="M848 0v545q-147 -15 -244 -15q-248 0 -364 88q-82 61 -110 144t-28 184v420h267v-373q0 -41 2.5 -66.5t18 -61.5t46.5 -60q58 -45 195 -45q116 0 217 14v592h266v-1366h-266z" />
    <glyph glyph-name="afii10042" unicode="&#x428;" horiz-adv-x="1986" 
d="M156 0v1366h266v-1137h438v1137h266v-1137h439v1137h266v-1366h-1675z" />
    <glyph glyph-name="afii10043" unicode="&#x429;" horiz-adv-x="2015" 
d="M156 0v1366h266v-1137h438v1137h266v-1137h439v1137h266v-1137h164v-536h-246v307h-1593z" />
    <glyph glyph-name="afii10044" unicode="&#x42a;" horiz-adv-x="1282" 
d="M299 0v1137h-287v229h553v-535h213q215 0 336 -112q127 -117 127 -305q0 -137 -74 -246q-114 -168 -387 -168h-481zM565 602v-373h156q19 0 35 1t49 5.5t57.5 17t50.5 31.5t40 52.5t14 77.5q0 36 -10.5 66.5t-36 59.5t-75.5 45.5t-120 16.5h-160z" />
    <glyph glyph-name="afii10045" unicode="&#x42b;" horiz-adv-x="1638" 
d="M156 0v1366h266v-535h213q215 0 336 -112q127 -117 127 -305q0 -137 -74 -246q-114 -168 -387 -168h-481zM422 602v-373h156q19 0 35 1t48.5 5.5t57.5 17t50.5 31.5t39.5 52.5t14 77.5q0 36 -10.5 66.5t-35.5 59.5t-75 45.5t-120 16.5h-160zM1217 1366h266v-1366h-266
v1366z" />
    <glyph glyph-name="afii10046" unicode="&#x42c;" horiz-adv-x="1138" 
d="M156 0v1366h266v-535h213q215 0 336 -112q127 -117 127 -305q0 -137 -74 -246q-114 -168 -387 -168h-481zM422 602v-373h156q19 0 35 1t48.5 5.5t57.5 17t50.5 31.5t39.5 52.5t14 77.5q0 36 -10.5 66.5t-35.5 59.5t-75 45.5t-120 16.5h-160z" />
    <glyph glyph-name="afii10047" unicode="&#x42d;" horiz-adv-x="1251" 
d="M90 49v311q145 -149 361 -149q159 0 283.5 94.5t152.5 265.5h-613v230h609q-28 168 -149 261t-273 93q-219 0 -371 -154v312q162 84 356 84q321 0 510 -180q97 -94 151 -236.5t54 -298.5q0 -102 -21 -192.5t-56 -155t-64.5 -104t-61.5 -70.5q-191 -191 -509 -191
q-196 0 -359 80z" />
    <glyph glyph-name="afii10048" unicode="&#x42e;" horiz-adv-x="2101" 
d="M422 838h188q35 202 172 350q194 209 525 209q155 0 287 -54t223 -148t142.5 -226.5t51.5 -286.5t-51.5 -286t-143 -226t-223 -147.5t-286.5 -53.5q-308 0 -498 183q-189 184 -207 456h-180v-608h-266v1366h266v-528zM1307 211q192 0 311 130.5t119 340.5
q0 95 -25.5 174.5t-67.5 134t-98 92t-116.5 55t-122.5 17.5t-122.5 -17.5t-116.5 -55t-98 -92t-67.5 -134t-25.5 -174.5q0 -210 119 -340.5t311 -130.5z" />
    <glyph glyph-name="afii10049" unicode="&#x42f;" horiz-adv-x="1163" 
d="M1008 1366v-1366h-267v528h-49l-348 -528h-319l405 553q-82 13 -149 61t-110.5 133.5t-43.5 196.5q0 200 135 318q72 63 157 83.5t193 20.5h396zM741 1149h-82q-20 0 -37 -1.5t-51 -6.5t-60 -18.5t-53 -34.5t-42 -58.5t-15 -85.5q0 -43 12.5 -77t30 -55t45 -36.5
t49.5 -22.5t51.5 -11t43 -4.5t31.5 -0.5h77v412z" />
    <glyph glyph-name="afii10065" unicode="&#x430;" horiz-adv-x="1167" 
d="M799 772v115h250v-887h-250v115q-100 -144 -273 -144q-200 0 -326 137t-126 336q0 131 54.5 238t156 170t229.5 63q193 0 285 -143zM578 694q-107 0 -176.5 -71.5t-69.5 -178.5t70 -179t176 -72t175.5 72t69.5 179t-69.5 178.5t-175.5 71.5z" />
    <glyph glyph-name="afii10066" unicode="&#x431;" horiz-adv-x="1179" 
d="M827 1475h230q-42 -247 -291 -320l-92 -27q-13 -4 -59 -16.5t-70.5 -20.5t-61 -26.5t-61.5 -42.5q-41 -38 -68.5 -98t-31.5 -129h4q48 60 133.5 90t177.5 30q205 0 332 -124q22 -21 42.5 -48.5t43.5 -70t37 -101.5t14 -125q0 -212 -150 -350q-136 -125 -352 -125
q-225 0 -354 117q-52 47 -86.5 106t-49 123t-19.5 112.5t-5 107.5q0 414 135 598q33 45 76 81t78.5 56.5t88 38t80 24t77.5 17.5q97 20 142 47.5t60 75.5zM598 193q109 0 179.5 71.5t70.5 177.5q0 108 -69.5 180t-180.5 72t-180.5 -72t-69.5 -180q0 -106 70.5 -177.5
t179.5 -71.5z" />
    <glyph glyph-name="afii10067" unicode="&#x432;" horiz-adv-x="933" 
d="M119 887h391q42 0 67.5 -1.5t68.5 -14.5t75 -37q86 -66 86 -175q0 -58 -32 -107t-91 -75q67 -13 117 -57q67 -60 67 -166q0 -125 -94 -197q-77 -57 -199 -57h-456v887zM369 535h114q39 0 66 16q33 20 33 61q0 43 -29 64q-20 14 -74 14h-110v-155zM369 197h116q63 0 93 22
q32 24 32 72q0 43 -32 63q-32 21 -86 21h-123v-178z" />
    <glyph glyph-name="afii10068" unicode="&#x433;" horiz-adv-x="696" 
d="M119 0v887h565v-213h-315v-674h-250z" />
    <glyph glyph-name="afii10069" unicode="&#x434;" horiz-adv-x="1085" 
d="M201 887h737v-674h131v-471h-225v258h-611v-258h-225v471q54 3 94.5 35.5t63.5 77.5q35 74 35 227v334zM688 213v461h-262v-197q0 -181 -98 -264h360z" />
    <glyph glyph-name="afii10070" unicode="&#x435;" horiz-adv-x="1069" 
d="M760 285l229 -37q-12 -29 -26 -55.5t-50 -70t-80.5 -74t-118.5 -54t-161 -23.5q-209 0 -340 125q-139 130 -139 346q0 214 135 349q126 124 334 124q226 0 346 -145q106 -127 106 -348v-21h-663q0 -91 43 -149q61 -84 178 -84q140 0 207 117zM340 561h420q-14 86 -75 132
t-136 46q-74 0 -134.5 -46.5t-74.5 -131.5z" />
    <glyph glyph-name="afii10072" unicode="&#x436;" horiz-adv-x="1368" 
d="M571 887h226v-344l266 344h291l-338 -404l356 -483h-303l-240 348l-32 -37v-311h-226v311l-32 37l-240 -348h-303l356 483l-338 404h291l266 -344v344z" />
    <glyph glyph-name="afii10073" unicode="&#x437;" horiz-adv-x="901" 
d="M209 649l-115 156q137 110 336 110q149 0 236 -59q100 -69 100 -188q0 -122 -123 -191q67 -16 117 -59q67 -60 67 -164q0 -129 -102 -205q-53 -40 -132.5 -59t-158.5 -19q-238 0 -381 148l123 151q50 -47 115.5 -70.5t122.5 -23.5q85 0 120 30.5t35 69.5q0 50 -47 74
q-35 17 -106 17h-105v180h101q67 0 98 20q31 21 31 62q0 39 -32 64.5t-103 25.5q-115 0 -197 -70z" />
    <glyph glyph-name="afii10074" unicode="&#x438;" horiz-adv-x="1146" 
d="M119 887h250v-547l409 547h250v-887h-250v547l-409 -547h-250v887z" />
    <glyph glyph-name="afii10075" unicode="&#x439;" horiz-adv-x="1146" 
d="M119 887h250v-547l409 547h250v-887h-250v547l-409 -547h-250v887zM745 1331l164 -78q-21 -60 -61 -104t-89 -66t-94.5 -31.5t-91.5 -9.5t-91 9.5t-94 31.5t-89 66t-61 104l163 78q12 -56 60 -92.5t112 -36.5q60 0 109 33.5t63 95.5z" />
    <glyph glyph-name="afii10076" unicode="&#x43a;" 
d="M119 887h250v-344l331 344h312l-402 -395l422 -492h-319l-307 367l-37 -37v-330h-250v887z" />
    <glyph glyph-name="afii10077" unicode="&#x43b;" 
d="M905 887v-887h-250v674h-241v-326q0 -171 -84 -262q-10 -11 -26 -23.5t-45.5 -30.5t-74 -29t-94.5 -11q-41 0 -74 8v213q24 -4 39 -4q69 0 103 43q30 37 30 113v522h717z" />
    <glyph glyph-name="afii10078" unicode="&#x43c;" horiz-adv-x="1228" 
d="M25 0l161 887h185l243 -510l244 510h184l162 -887h-250l-73 481l-222 -481h-90l-221 481l-74 -481h-249z" />
    <glyph glyph-name="afii10079" unicode="&#x43d;" horiz-adv-x="1085" 
d="M119 0v887h250v-314h348v314h250v-887h-250v360h-348v-360h-250z" />
    <glyph glyph-name="afii10080" unicode="&#x43e;" horiz-adv-x="1163" 
d="M582 915q223 0 358 -124q69 -62 109.5 -153t40.5 -196q0 -104 -40.5 -194t-109.5 -152q-136 -125 -358 -125q-223 0 -359 125q-68 62 -108.5 152t-40.5 194q0 105 40.5 196t108.5 153q135 124 359 124zM582 193q107 0 178 73t71 176q0 105 -71.5 178.5t-177.5 73.5
t-178 -73.5t-72 -178.5q0 -103 71.5 -176t178.5 -73z" />
    <glyph glyph-name="afii10081" unicode="&#x43f;" horiz-adv-x="1077" 
d="M119 887h839v-887h-249v674h-340v-674h-250v887z" />
    <glyph glyph-name="afii10082" unicode="&#x440;" horiz-adv-x="1167" 
d="M369 115v-584h-250v1356h250v-115q101 143 288 143q186 0 304 -118q133 -133 133 -353q0 -223 -140 -358q-124 -115 -301 -115q-178 0 -284 144zM590 694q-97 0 -162 -59q-84 -72 -84 -191q0 -120 82 -192q67 -59 164 -59q101 0 168 63q38 35 58 85.5t20 102.5
q0 51 -20 102t-56 85q-69 63 -170 63z" />
    <glyph glyph-name="afii10083" unicode="&#x441;" horiz-adv-x="856" 
d="M786 862v-246q-84 78 -204 78q-118 0 -184 -73t-66 -177q0 -109 73 -180t185 -71q110 0 196 77v-243q-110 -56 -229 -56q-101 0 -190.5 35t-151.5 94q-141 131 -141 340q0 113 41 205.5t112 155.5q129 114 320 114q130 0 239 -53z" />
    <glyph glyph-name="afii10084" unicode="&#x442;" horiz-adv-x="765" 
d="M754 674h-246v-674h-250v674h-246v213h742v-213z" />
    <glyph glyph-name="afii10085" unicode="&#x443;" horiz-adv-x="1101" 
d="M100 -469l326 602l-422 754h291l274 -504l246 504h283l-715 -1356h-283z" />
    <glyph glyph-name="afii10086" unicode="&#x444;" horiz-adv-x="1413" 
d="M582 -469v457h-21q-83 0 -166 22t-145 66q-73 50 -124.5 141.5t-51.5 226.5t51.5 226t124.5 143q121 86 311 86h21v467h249v-467h21q190 0 311 -86q73 -52 124.5 -143t51.5 -226t-51.5 -226.5t-124.5 -141.5q-62 -44 -145 -66t-166 -22h-21v-457h-249zM582 209v469
q-93 4 -158 -41q-92 -63 -92 -193q0 -132 90 -192q61 -43 160 -43zM831 678v-469q99 0 160 43q90 60 90 192q0 130 -92 193q-65 45 -158 41z" />
    <glyph glyph-name="afii10087" unicode="&#x445;" horiz-adv-x="1159" 
d="M4 0l422 483l-340 404h315l181 -230l184 230h315l-346 -404l420 -483h-319l-254 309l-258 -309h-320z" />
    <glyph glyph-name="afii10088" unicode="&#x446;" horiz-adv-x="1110" 
d="M119 0v887h250v-674h331v674h250v-674h144v-471h-226v258h-749z" />
    <glyph glyph-name="afii10089" unicode="&#x447;" horiz-adv-x="991" 
d="M623 0v303q-105 -20 -209 -20q-162 0 -248 82q-49 46 -64.5 96t-15.5 112v314h250v-262q0 -68 31 -97q34 -32 127 -32q62 0 129 12v379h249v-887h-249z" />
    <glyph glyph-name="afii10090" unicode="&#x448;" horiz-adv-x="1560" 
d="M119 0v887h250v-674h286v674h250v-674h287v674h250v-887h-1323z" />
    <glyph glyph-name="afii10091" unicode="&#x449;" horiz-adv-x="1601" 
d="M119 0v887h250v-674h286v674h250v-674h287v674h250v-674h143v-471h-225v258h-1241z" />
    <glyph glyph-name="afii10092" unicode="&#x44a;" horiz-adv-x="1032" 
d="M12 887h467v-316h195q156 0 237 -90q68 -71 68 -190q0 -144 -94 -225q-76 -66 -199 -66h-457v674h-217v213zM479 197h117q62 0 92 22q33 25 33 72q0 42 -33 63q-32 21 -86 21h-123v-178z" />
    <glyph glyph-name="afii10093" unicode="&#x44b;" horiz-adv-x="1331" 
d="M119 887h250v-316h194q157 0 238 -90q67 -70 67 -190q0 -144 -94 -225q-76 -66 -199 -66h-456v887zM369 197h116q63 0 93 22q32 24 32 72q0 43 -32 63q-32 21 -86 21h-123v-178zM963 887h249v-887h-249v887z" />
    <glyph glyph-name="afii10094" unicode="&#x44c;" horiz-adv-x="921" 
d="M119 887h250v-316h194q157 0 238 -90q67 -70 67 -190q0 -144 -94 -225q-76 -66 -199 -66h-456v887zM369 197h116q63 0 93 22q32 24 32 72q0 43 -32 63q-32 21 -86 21h-123v-178z" />
    <glyph glyph-name="afii10095" unicode="&#x44d;" horiz-adv-x="888" 
d="M70 18v242q106 -86 258 -86q108 0 164 49q56 50 59 135h-367v181h367q-12 81 -68 125q-60 55 -157 55q-141 0 -252 -76v217q133 55 270 55q221 0 346 -133q125 -130 125 -340q0 -110 -36 -199.5t-95 -146.5q-59 -59 -148 -93t-192 -34q-160 0 -274 49z" />
    <glyph glyph-name="afii10096" unicode="&#x44e;" horiz-adv-x="1536" 
d="M369 553h120q22 137 127 238q130 124 347 124t352 -124q67 -60 107 -152.5t40 -196.5q0 -102 -40 -193t-107 -153q-135 -125 -352 -125q-215 0 -347 125q-105 101 -127 244h-120v-340h-250v887h250v-334zM963 193q104 0 172.5 72.5t68.5 176.5q0 107 -68 179.5t-173 72.5
t-173.5 -72.5t-68.5 -179.5q0 -104 69 -176.5t173 -72.5z" />
    <glyph glyph-name="afii10097" unicode="&#x44f;" horiz-adv-x="942" 
d="M41 0l262 332q-86 12 -143 69q-70 70 -70 189q0 137 107 223q41 33 93.5 50t89.5 20.5t91 3.5h352v-887h-250v311h-28l-217 -311h-287zM573 492v198h-108q-21 0 -30 -0.5t-25 -6t-29 -17.5q-33 -30 -33 -78q0 -50 33 -74q30 -22 84 -22h108z" />
    <glyph glyph-name="afii10071" unicode="&#x451;" horiz-adv-x="1069" 
d="M760 285l229 -37q-12 -29 -26 -55.5t-50 -70t-80.5 -74t-118.5 -54t-161 -23.5q-209 0 -340 125q-139 130 -139 346q0 214 135 349q126 124 334 124q226 0 346 -145q106 -127 106 -348v-21h-663q0 -91 43 -149q61 -84 178 -84q140 0 207 117zM340 561h420q-14 86 -75 132
t-136 46q-74 0 -134.5 -46.5t-74.5 -131.5zM184 1200q0 60 44 104t104 44t103.5 -44t43.5 -104t-43.5 -103.5t-103.5 -43.5t-104 43.5t-44 103.5zM610 1200q0 60 44 104t104 44t103.5 -44t43.5 -104t-43.5 -103.5t-103.5 -43.5t-104 43.5t-44 103.5z" />
    <glyph glyph-name="afii10099" unicode="&#x452;" horiz-adv-x="1114" 
d="M139 0v1063h-159v160h159v270h250v-270h410v-160h-410v-373q103 144 275 144q71 0 142.5 -25t119.5 -84q42 -52 55.5 -112t13.5 -138v-651q0 -169 -100 -240q-79 -55 -217 -55q-78 0 -141 18v222q51 -19 96 -19q66 0 94 45q18 31 18 123v483q0 125 -47 174
q-44 46 -116 46q-102 0 -154 -78q-39 -60 -39 -172v-371h-250z" />
    <glyph glyph-name="afii10100" unicode="&#x453;" horiz-adv-x="696" 
d="M119 0v887h565v-213h-315v-674h-250zM528 1434l181 -115l-308 -275l-114 82z" />
    <glyph glyph-name="afii10101" unicode="&#x454;" horiz-adv-x="888" 
d="M819 254v-242q-95 -41 -237 -41q-100 0 -199 30t-166 89q-68 61 -105.5 155t-37.5 191q0 207 137 340q139 139 364 139q142 0 240 -61v-217q-107 82 -231 82q-98 0 -168 -60q-64 -52 -84 -127h393v-180h-393q4 -44 27 -79.5t55 -55.5q61 -41 188 -41q133 0 217 78z" />
    <glyph glyph-name="afii10102" unicode="&#x455;" horiz-adv-x="827" 
d="M725 821l-123 -145q-63 59 -145 59q-44 0 -70.5 -19.5t-26.5 -51.5q0 -54 80 -80l60 -19q51 -17 81.5 -28.5t75.5 -39t68 -59.5q45 -62 45 -147q0 -135 -98 -225q-104 -95 -266 -95q-207 0 -345 148l132 151q39 -45 91 -73.5t105 -28.5q54 0 88.5 25.5t34.5 70.5
q0 62 -78 90l-57 21q-42 15 -67.5 26t-62 32.5t-61.5 47.5q-67 70 -67 170q0 61 25.5 114t66.5 87q80 63 231 63q159 0 283 -94z" />
    <glyph glyph-name="afii10103" unicode="&#x456;" horiz-adv-x="487" 
d="M119 887h250v-887h-250v887zM94 1262q0 61 44 105t106 44t105.5 -43.5t43.5 -105.5t-44 -106t-105 -44q-62 0 -106 44t-44 106z" />
    <glyph glyph-name="afii10104" unicode="&#x457;" horiz-adv-x="561" 
d="M156 887h250v-887h-250v887zM16 1264q0 59 35 103t84 44q45 0 81 -41t36 -106t-36.5 -106.5t-80.5 -41.5q-49 0 -84 44.5t-35 103.5zM309 1264q0 65 36 106t81 41q49 0 84 -44t35 -103t-35 -103.5t-84 -44.5q-44 0 -80.5 41.5t-36.5 106.5z" />
    <glyph glyph-name="afii10105" unicode="&#x458;" horiz-adv-x="487" 
d="M119 887h250v-1356h-250v1356zM94 1262q0 61 44 105t106 44t105.5 -43.5t43.5 -105.5t-44 -106t-105 -44q-62 0 -106 44t-44 106z" />
    <glyph glyph-name="afii10106" unicode="&#x459;" horiz-adv-x="1458" 
d="M905 887v-316h195q155 0 237 -90q68 -71 68 -190q0 -144 -94 -225q-76 -66 -199 -66h-457v674h-241v-326q0 -171 -84 -262q-10 -11 -26 -23.5t-45.5 -30.5t-74 -29t-94.5 -11q-41 0 -74 8v213q24 -4 39 -4q69 0 103 43q30 37 30 113v522h717zM905 197h117q62 0 92 22
q33 25 33 72q0 42 -33 63q-32 21 -86 21h-123v-178z" />
    <glyph glyph-name="afii10107" unicode="&#x45a;" horiz-adv-x="1519" 
d="M119 0v887h250v-314h348v314h250v-316h194q156 0 238 -90q67 -70 67 -190q0 -144 -94 -225q-76 -66 -198 -66h-457v360h-348v-360h-250zM967 197h116q63 0 93 22q32 24 32 72q0 43 -32 63q-32 21 -86 21h-123v-178z" />
    <glyph glyph-name="afii10108" unicode="&#x45b;" horiz-adv-x="1114" 
d="M139 0v1063h-159v160h159v270h250v-270h410v-160h-410v-373q103 144 275 144q71 0 142.5 -25t119.5 -84q42 -52 55.5 -112t13.5 -138v-475h-250v401q0 125 -47 174q-44 46 -116 46q-102 0 -154 -78q-39 -60 -39 -172v-371h-250z" />
    <glyph glyph-name="afii10109" unicode="&#x45c;" 
d="M119 887h250v-344l331 344h312l-402 -395l422 -492h-319l-307 367l-37 -37v-330h-250v887zM651 1434l180 -115l-307 -275l-114 82z" />
    <glyph glyph-name="afii10110" unicode="&#x45e;" horiz-adv-x="1101" 
d="M100 -469l326 602l-422 754h291l274 -504l246 504h283l-715 -1356h-283zM733 1331l164 -78q-21 -60 -61 -104t-89 -66t-94.5 -31.5t-91.5 -9.5t-91.5 9.5t-94.5 31.5t-89 66t-61 104l164 78q12 -56 60 -92.5t112 -36.5q60 0 109 33.5t63 95.5z" />
    <glyph glyph-name="afii10193" unicode="&#x45f;" horiz-adv-x="1069" 
d="M119 0v887h250v-674h331v674h250v-887h-303v-279h-225v279h-303z" />
    <glyph glyph-name="afii10146" unicode="&#x462;" horiz-adv-x="1269" 
d="M287 0v1018h-307v205h307v198h266v-198h410v-205h-410v-219h213q212 0 336 -107q127 -110 127 -284q0 -139 -74 -244q-117 -164 -387 -164h-481zM553 594v-377h156q16 0 29 0.5t40 4t47.5 10.5t46 21t42.5 33t28.5 50t11.5 70q0 36 -10.5 66.5t-35.5 59.5t-75 45.5
t-120 16.5h-160z" />
    <glyph glyph-name="afii10194" unicode="&#x463;" horiz-adv-x="1032" 
d="M479 555h195q159 0 239 -90q66 -75 66 -182q0 -140 -94 -220q-76 -63 -199 -63h-457v707h-217v180h217v479h250v-479h287v-180h-287v-152zM479 197h117q62 0 92 22q33 25 33 72q0 42 -33 63q-32 21 -86 21h-123v-178z" />
    <glyph glyph-name="afii10147" unicode="&#x472;" horiz-adv-x="1634" 
d="M817 1397q212 0 378 -91.5t257.5 -254.5t91.5 -369q0 -205 -92 -367.5t-258 -254t-377 -91.5t-377 91.5t-258 254t-92 367.5q0 206 91.5 369t257.5 254.5t378 91.5zM1266 592h-897q24 -162 146 -271.5t302 -109.5t302.5 110t146.5 271zM373 797h889q-33 164 -158.5 261
t-286.5 97t-286 -96.5t-158 -261.5z" />
    <glyph glyph-name="afii10195" unicode="&#x473;" horiz-adv-x="1163" 
d="M582 915q223 0 358 -124q69 -62 109.5 -153t40.5 -196q0 -104 -40.5 -194t-109.5 -152q-136 -125 -358 -125q-223 0 -359 125q-68 62 -108.5 152t-40.5 194q0 105 40.5 196t108.5 153q135 124 359 124zM831 377h-499q15 -92 86 -150.5t164 -58.5t163.5 58.5t85.5 150.5z
M340 537h483q-20 83 -89 132.5t-152 49.5t-152.5 -49.5t-89.5 -132.5z" />
    <glyph glyph-name="afii10148" unicode="&#x474;" horiz-adv-x="1318" 
d="M4 1366h291l364 -917l365 917h291l-578 -1366h-159z" />
    <glyph glyph-name="afii10196" unicode="&#x475;" horiz-adv-x="1032" 
d="M4 887h279l233 -500l234 500h278l-446 -887h-131z" />
    <glyph glyph-name="afii10050" unicode="&#x490;" horiz-adv-x="974" 
d="M156 0v1366h561v307h246v-536h-541v-1137h-266z" />
    <glyph glyph-name="afii10098" unicode="&#x491;" horiz-adv-x="778" 
d="M119 0v887h422v258h225v-471h-397v-674h-250z" />
    <glyph glyph-name="uni0492" unicode="&#x492;" horiz-adv-x="892" 
d="M156 0v631h-197v205h197v530h725v-229h-459v-301h328v-205h-328v-631h-266z" />
    <glyph glyph-name="uni0493" unicode="&#x493;" horiz-adv-x="696" 
d="M119 0v324h-139v176h139v387h565v-213h-315v-174h204v-176h-204v-324h-250z" />
    <glyph glyph-name="uni0494" unicode="&#x494;" horiz-adv-x="1208" 
d="M872 1137h-450v-349q140 48 280 48q172 0 279 -62q186 -106 186 -358q0 -138 -45.5 -224t-109.5 -129q-109 -75 -301 -75q-64 0 -138 12v229q67 -12 132 -12q86 0 129 37q59 50 59 152q0 125 -84 172q-48 28 -141 28q-124 0 -246 -47v-559h-266v1366h716v-229z" />
    <glyph glyph-name="uni0495" unicode="&#x495;" horiz-adv-x="933" 
d="M119 0v887h565v-213h-315v-191h37q184 0 288 -67q53 -33 89 -81t51 -99.5t20.5 -89t5.5 -74.5q0 -194 -137 -334q-143 -143 -354 -164v221q90 11 153 74q80 77 80 199q0 94 -53 147q-55 55 -164 55h-16v-270h-250z" />
    <glyph glyph-name="uni0496" unicode="&#x496;" horiz-adv-x="1830" 
d="M788 1366h254v-578l455 578h303l-522 -631l371 -506h170v-536h-246v307h-62l-438 612l-31 -30v-582h-254v582l-30 30l-439 -612h-307l541 735l-522 631h303l454 -578v578z" />
    <glyph glyph-name="uni0497" unicode="&#x497;" horiz-adv-x="1368" 
d="M571 887h226v-344l266 344h291l-338 -404l198 -270h154v-471h-225v258h-74l-240 348l-32 -37v-311h-226v311l-32 37l-240 -348h-303l356 483l-338 404h291l266 -344v344z" />
    <glyph glyph-name="uni0498" unicode="&#x498;" horiz-adv-x="1228" 
d="M324 1055l-140 182q82 73 178 115q110 45 250 45q119 0 207 -35.5t142 -89.5q92 -92 92 -234q0 -42 -12 -92.5t-33 -85.5q-41 -71 -123 -108q60 -17 110.5 -52t81.5 -79q62 -87 62 -211q0 -168 -115 -289q-115 -119 -291 -137v-324h-246v317q-119 6 -231 78
q-102 65 -174 172l174 166q41 -81 119 -137q93 -66 227 -66q129 0 201 64q61 55 61 139q0 39 -15.5 79t-43.5 67q-68 63 -240 63h-123v229h123q111 0 172 52q56 49 56 118q0 73 -45 115q-49 47 -158 47q-146 0 -266 -108z" />
    <glyph glyph-name="uni0499" unicode="&#x499;" horiz-adv-x="901" 
d="M209 649l-115 156q61 48 135 78q85 32 201 32q149 0 236 -59q100 -66 100 -186q0 -77 -43 -131q-29 -37 -80 -62q67 -16 117 -59q67 -63 67 -162q0 -115 -84 -193q-82 -76 -196 -81v-261h-225v263q-155 18 -269 135l123 151q45 -43 103 -65q74 -29 135 -29q71 0 110 25
q45 27 45 75q0 50 -47 74q-35 17 -106 17h-105v180h101q67 0 98 20q31 21 31 62q0 45 -39 69q-35 21 -96 21q-47 0 -103 -17q-50 -15 -94 -53z" />
    <glyph glyph-name="uni049A" unicode="&#x49a;" horiz-adv-x="1302" 
d="M156 1366h266v-578l502 578h336l-578 -631l418 -506h190v-536h-246v307h-106l-485 612l-31 -30v-582h-266v1366z" />
    <glyph glyph-name="uni049B" unicode="&#x49b;" 
d="M119 887h250v-344l331 344h312l-402 -395l240 -279h174v-471h-225v258h-86l-307 367l-37 -37v-330h-250v887z" />
    <glyph glyph-name="uni049C" unicode="&#x49c;" horiz-adv-x="1474" 
d="M156 1366h266v-549h141v328h197v-328l389 549h295l-467 -631l485 -735h-311l-391 612v-348h-197v348h-141v-612h-266v1366z" />
    <glyph glyph-name="uni049D" unicode="&#x49d;" horiz-adv-x="1175" 
d="M119 887h250v-338h98v205h164v-205l254 338h278l-315 -395l315 -492h-286l-246 389v-246h-164v246h-98v-389h-250v887z" />
    <glyph glyph-name="uni04A0" unicode="&#x4a0;" horiz-adv-x="1445" 
d="M299 0v1137h-287v229h553v-578l502 578h336l-578 -631l609 -735h-353l-485 612l-31 -30v-582h-266z" />
    <glyph glyph-name="uni04A1" unicode="&#x4a1;" horiz-adv-x="1196" 
d="M229 0v674h-217v213h467v-344l332 344h311l-401 -395l422 -492h-320l-307 367l-37 -37v-330h-250z" />
    <glyph glyph-name="uni04A2" unicode="&#x4a2;" horiz-adv-x="1449" 
d="M156 0v1366h266v-528h577v528h267v-1137h164v-536h-246v307h-185v608h-577v-608h-266z" />
    <glyph glyph-name="uni04A3" unicode="&#x4a3;" horiz-adv-x="1126" 
d="M119 0v887h250v-314h348v314h250v-674h143v-471h-225v258h-168v360h-348v-360h-250z" />
    <glyph glyph-name="uni04A4" unicode="&#x4a4;" horiz-adv-x="1736" 
d="M156 0v1366h266v-528h577v528h725v-229h-458v-1137h-267v608h-577v-608h-266z" />
    <glyph glyph-name="uni04A5" unicode="&#x4a5;" horiz-adv-x="1294" 
d="M119 0v887h250v-314h348v314h565v-213h-315v-674h-250v360h-348v-360h-250z" />
    <glyph glyph-name="uni04AA" unicode="&#x4aa;" horiz-adv-x="1236" 
d="M1147 360v-311q-93 -56 -213 -69v-320h-246v317q-230 28 -397 201q-201 207 -201 504q0 174 60.5 308t158.5 227q191 180 502 180q182 0 336 -84v-312q-68 79 -155 116.5t-175 37.5q-183 0 -303 -117q-149 -143 -149 -360q0 -105 36.5 -191.5t96.5 -146.5
q64 -64 151.5 -96.5t177.5 -32.5q193 0 320 149z" />
    <glyph glyph-name="uni04AB" unicode="&#x4ab;" horiz-adv-x="856" 
d="M786 862v-246q-86 78 -204 78q-107 0 -181 -69q-69 -69 -69 -179q0 -114 76 -186q70 -67 182 -67q108 0 196 77v-243q-52 -30 -120 -45v-261h-226v265q-133 26 -225 114q-141 131 -141 342q0 111 41.5 203.5t111.5 155.5q130 114 328 114q125 0 231 -53z" />
    <glyph glyph-name="uni04AE" unicode="&#x4ae;" horiz-adv-x="1208" 
d="M465 0v625l-469 741h315l293 -475l293 475h315l-481 -741v-625h-266z" />
    <glyph glyph-name="uni04AF" unicode="&#x4af;" horiz-adv-x="1032" 
d="M4 887h279l233 -500l234 500h278l-387 -770v-586h-250v586z" />
    <glyph glyph-name="uni04B0" unicode="&#x4b0;" horiz-adv-x="1208" 
d="M465 0v420h-369v205h369l-469 741h315l293 -475l293 475h315l-481 -741h369v-205h-369v-420h-266z" />
    <glyph glyph-name="uni04B1" unicode="&#x4b1;" horiz-adv-x="1032" 
d="M4 887h279l233 -500l234 500h278l-387 -770v-76h287v-197h-287v-313h-250v313h-287v197h287v76z" />
    <glyph glyph-name="uni04B2" unicode="&#x4b2;" horiz-adv-x="1310" 
d="M16 0l484 721l-408 645h320l239 -424l252 424h320l-420 -645l317 -492h150v-536h-246v307h-74l-299 500l-315 -500h-320z" />
    <glyph glyph-name="uni04B3" unicode="&#x4b3;" horiz-adv-x="1155" 
d="M4 0l422 483l-340 404h315l181 -230l184 230h315l-346 -404l234 -270h182v-471h-225v258h-90l-254 309l-258 -309h-320z" />
    <glyph glyph-name="uni04B6" unicode="&#x4b6;" horiz-adv-x="1298" 
d="M848 0v545q-147 -15 -244 -15q-248 0 -364 88q-82 61 -110 144t-28 184v420h267v-373q0 -41 2.5 -66.5t18 -61.5t46.5 -60q58 -45 195 -45q116 0 217 14v592h266v-1137h164v-536h-246v307h-184z" />
    <glyph glyph-name="uni04B7" unicode="&#x4b7;" horiz-adv-x="1032" 
d="M623 0v303q-105 -20 -209 -20q-162 0 -248 82q-49 46 -64.5 96t-15.5 112v314h250v-262q0 -68 31 -97q34 -32 127 -32q62 0 129 12v379h249v-674h144v-471h-225v258h-168z" />
    <glyph glyph-name="uni04B8" unicode="&#x4b8;" horiz-adv-x="1351" 
d="M930 0v569q-104 -8 -168 -10v-307h-197v307q-86 0 -176.5 21.5t-148.5 62.5q-43 31 -72 68.5t-42.5 79t-18.5 77t-5 78.5v420h267v-373q0 -44 2.5 -69.5t18 -61t46.5 -59.5q51 -39 129 -39v369h197v-369q73 0 168 10v592h266v-1366h-266z" />
    <glyph glyph-name="uni04B9" unicode="&#x4b9;" horiz-adv-x="1105" 
d="M737 0v328q-61 -10 -110 -13v-184h-164v184q-71 0 -150.5 17.5t-134.5 58.5q-56 43 -74 94t-18 117v285h250v-262q0 -69 41 -101q35 -24 86 -28v217h164v-221q54 0 110 16v379h250v-887h-250z" />
    <glyph glyph-name="uni04BA" unicode="&#x4ba;" horiz-adv-x="1269" 
d="M422 1366v-504q147 15 244 15q246 0 364 -89q57 -42 89 -102t40 -110t8 -115v-461h-266v414q0 41 -2.5 66.5t-18 61.5t-46.5 60q-58 45 -195 45q-116 0 -217 -14v-633h-266v1366h266z" />
    <glyph glyph-name="uni04BB" unicode="&#x4bb;" horiz-adv-x="1093" 
d="M119 0v1493h250v-721q102 143 274 143q71 0 142.5 -25t119.5 -83q70 -87 70 -250v-557h-250v483q0 125 -47 174q-43 45 -117 45q-101 0 -153 -77q-39 -60 -39 -172v-453h-250z" />
    <glyph glyph-name="uni04C0" unicode="&#x4c0;" horiz-adv-x="577" 
d="M156 1366h266v-1366h-266v1366z" />
    <glyph glyph-name="uni04C1" unicode="&#x4c1;" horiz-adv-x="1830" 
d="M788 1366h254v-578l455 578h303l-522 -631l541 -735h-308l-438 612l-31 -30v-582h-254v582l-30 30l-439 -612h-307l541 735l-522 631h303l454 -578v578zM547 1729l184 73q15 -40 41.5 -66.5t57.5 -36.5t49.5 -13t35.5 -3t35.5 3t49.5 13t58 36.5t42 66.5l184 -73
q-41 -107 -136 -168.5t-233 -61.5t-232.5 61.5t-135.5 168.5z" />
    <glyph glyph-name="uni04C2" unicode="&#x4c2;" horiz-adv-x="1368" 
d="M571 887h226v-344l266 344h291l-338 -404l356 -483h-303l-240 348l-32 -37v-311h-226v311l-32 37l-240 -348h-303l356 483l-338 404h291l266 -344v344zM856 1331l164 -78q-21 -60 -61 -104t-89 -66t-94.5 -31.5t-91.5 -9.5t-91.5 9.5t-94.5 31.5t-89 66t-61 104l164 78
q12 -56 60 -92.5t112 -36.5q60 0 109 33.5t63 95.5z" />
    <glyph glyph-name="uni04C3" unicode="&#x4c3;" horiz-adv-x="1269" 
d="M156 1366h266v-578l502 578h336l-498 -541q44 0 90.5 -5.5t121 -34t124.5 -78.5q110 -112 110 -310q0 -192 -116 -311q-59 -61 -127 -85t-162 -24q-138 0 -262 62l69 211q71 -43 154 -43q76 0 121 45q49 49 49 133q0 101 -55 156q-65 65 -222 65q-105 0 -235 -14v-592
h-266v1366z" />
    <glyph glyph-name="uni04C4" unicode="&#x4c4;" horiz-adv-x="983" 
d="M119 887h250v-371l303 371h311l-387 -416q123 -21 201 -96q114 -106 114 -303t-137 -334q-143 -143 -354 -164v221q87 11 153 74q80 76 80 217q0 102 -59 154q-58 51 -172 51h-53v-291h-250v887z" />
    <glyph glyph-name="uni04C7" unicode="&#x4c7;" horiz-adv-x="1421" 
d="M156 0v1366h266v-528h577v528h267v-1542q0 -141 -74 -217q-76 -78 -227 -78q-95 0 -174 18v230q50 -19 94 -19q55 0 84 29q30 32 30 139v682h-577v-608h-266z" />
    <glyph glyph-name="uni04C8" unicode="&#x4c8;" horiz-adv-x="1085" 
d="M119 0v887h250v-314h348v314h250v-1063q0 -168 -101 -240q-79 -55 -217 -55q-78 0 -141 18v222q51 -19 96 -19q66 0 94 45q19 33 19 123v442h-348v-360h-250z" />
    <glyph glyph-name="uni04D0" unicode="&#x4d0;" horiz-adv-x="1376" 
d="M1085 0l-120 287h-551l-121 -287h-289l588 1366h209l571 -1366h-287zM498 504h389l-195 491zM319 1729l185 73q15 -40 41.5 -66.5t57.5 -36.5t49.5 -13t35.5 -3t35.5 3t49.5 13t57.5 36.5t41.5 66.5l185 -73q-41 -107 -136 -168.5t-233 -61.5t-233 61.5t-136 168.5z" />
    <glyph glyph-name="uni04D1" unicode="&#x4d1;" horiz-adv-x="1167" 
d="M799 772v115h250v-887h-250v115q-100 -144 -273 -144q-200 0 -326 137t-126 336q0 131 54.5 238t156 170t229.5 63q193 0 285 -143zM578 694q-107 0 -176.5 -71.5t-69.5 -178.5t70 -179t176 -72t175.5 72t69.5 179t-69.5 178.5t-175.5 71.5zM756 1331l164 -78
q-21 -60 -61 -104t-89 -66t-94.5 -31.5t-91.5 -9.5t-91.5 9.5t-94.5 31.5t-89 66t-61 104l164 78q12 -56 60 -92.5t112 -36.5q60 0 109 33.5t63 95.5z" />
    <glyph glyph-name="uni04D2" unicode="&#x4d2;" horiz-adv-x="1376" 
d="M1085 0l-120 287h-551l-121 -287h-289l588 1366h209l571 -1366h-287zM498 504h389l-195 491zM311 1661q0 60 44 103.5t104 43.5t103.5 -43.5t43.5 -103.5t-43.5 -104t-103.5 -44t-104 44t-44 104zM770 1661q0 60 44 103.5t104 43.5t103.5 -43.5t43.5 -103.5t-43.5 -104
t-103.5 -44t-104 44t-44 104z" />
    <glyph glyph-name="uni04D3" unicode="&#x4d3;" horiz-adv-x="1167" 
d="M799 772v115h250v-887h-250v115q-100 -144 -273 -144q-200 0 -326 137t-126 336q0 131 54.5 238t156 170t229.5 63q193 0 285 -143zM578 694q-107 0 -176.5 -71.5t-69.5 -178.5t70 -179t176 -72t175.5 72t69.5 179t-69.5 178.5t-175.5 71.5zM223 1200q0 60 44 104t104 44
t103.5 -44t43.5 -104t-43.5 -103.5t-103.5 -43.5t-104 43.5t-44 103.5zM649 1200q0 60 44 104t104 44t103.5 -44t43.5 -104t-43.5 -103.5t-103.5 -43.5t-104 43.5t-44 103.5z" />
    <glyph glyph-name="uni04D4" unicode="&#x4d4;" horiz-adv-x="1884" 
d="M1092 0l-121 287h-551l-121 -287h-287l592 1366h721l90 -229h-502l123 -306h494l94 -229h-496l150 -373h504l90 -229h-780zM504 504h389l-188 491z" />
    <glyph glyph-name="uni04D5" unicode="&#x4d5;" horiz-adv-x="1654" 
d="M1346 285l229 -37q-22 -55 -55 -99.5t-67 -72.5t-75 -49t-73.5 -31.5t-69.5 -16.5t-56.5 -7t-39.5 -1q-233 0 -344 168q-128 -168 -357 -168q-175 0 -269.5 83t-94.5 204q0 126 90 205q104 92 285 92q121 0 229 -61l2 43q3 49 -20.5 86.5t-55.5 58.5q-56 37 -166 37
q-107 0 -227 -35v199q141 32 246 32q49 0 87 -4t87 -17.5t91 -46t73 -81.5q120 149 335 149q225 0 345 -145q106 -127 106 -348v-21h-663q-4 -88 43 -149q61 -84 178 -84q140 0 207 117zM315 268q0 -45 42.5 -83t131.5 -38q94 0 141.5 40t47.5 85q0 41 -45 74t-146 33
q-90 0 -131 -34t-41 -77zM926 561h420q-14 86 -75 132t-136 46q-74 0 -134.5 -46.5t-74.5 -131.5z" />
    <glyph glyph-name="uni04D6" unicode="&#x4d6;" horiz-adv-x="1015" 
d="M913 1366v-229h-491v-306h471v-229h-471v-373h491v-229h-757v1366h757zM164 1729l184 73q15 -40 41.5 -66.5t57.5 -36.5t49.5 -13t35.5 -3t35.5 3t49.5 13t58 36.5t42 66.5l184 -73q-41 -107 -136 -168.5t-233 -61.5t-232.5 61.5t-135.5 168.5z" />
    <glyph glyph-name="uni04D7" unicode="&#x4d7;" horiz-adv-x="1069" 
d="M760 285l229 -37q-12 -29 -26 -55.5t-50 -70t-80.5 -74t-118.5 -54t-161 -23.5q-209 0 -340 125q-139 130 -139 346q0 214 135 349q126 124 334 124q226 0 346 -145q106 -127 106 -348v-21h-663q0 -91 43 -149q61 -84 178 -84q140 0 207 117zM340 561h420q-14 86 -75 132
t-136 46q-74 0 -134.5 -46.5t-74.5 -131.5zM717 1331l164 -78q-21 -60 -61 -104t-89 -66t-94.5 -31.5t-91.5 -9.5t-91.5 9.5t-94.5 31.5t-89 66t-61 104l164 78q12 -56 60 -92.5t112 -36.5q60 0 109 33.5t63 95.5z" />
    <glyph glyph-name="uni04D8" unicode="&#x4d8;" horiz-adv-x="1560" 
d="M90 772h1102q-25 168 -145.5 275.5t-286.5 107.5q-100 0 -197.5 -44.5t-167.5 -139.5l-231 125q114 148 270 224.5t332 76.5q153 0 283.5 -52.5t223 -145.5t145 -226.5t52.5 -290.5t-52.5 -290t-144.5 -226t-222.5 -145t-282.5 -52q-356 0 -539 267q-68 98 -103.5 218
t-35.5 242v76zM1190 567h-799q8 -130 86 -225q50 -60 126 -95.5t169 -35.5q80 0 157 29.5t136 87.5q97 96 125 239z" />
    <glyph glyph-name="afii10846" unicode="&#x4d9;" horiz-adv-x="1069" 
d="M326 610l-230 37q55 131 165.5 199.5t262.5 68.5q202 0 332 -124q139 -133 139 -347q0 -213 -135 -348q-127 -125 -334 -125q-226 0 -346 146q-106 127 -106 348v41h663q-3 76 -43 129q-60 84 -170 84q-60 0 -113 -26.5t-85 -82.5zM733 346h-428q13 -94 73.5 -146.5
t141.5 -52.5t141 53.5t72 145.5z" />
    <glyph glyph-name="uni04DA" unicode="&#x4da;" horiz-adv-x="1560" 
d="M90 772h1102q-25 168 -145.5 275.5t-286.5 107.5q-100 0 -197.5 -44.5t-167.5 -139.5l-231 125q114 148 270 224.5t332 76.5q153 0 283.5 -52.5t223 -145.5t145 -226.5t52.5 -290.5t-52.5 -290t-144.5 -226t-222.5 -145t-282.5 -52q-356 0 -539 267q-68 98 -103.5 218
t-35.5 242v76zM1190 567h-799q8 -130 86 -225q50 -60 126 -95.5t169 -35.5q80 0 157 29.5t136 87.5q97 96 125 239zM406 1661q0 60 43.5 103.5t103.5 43.5t103.5 -43.5t43.5 -103.5t-43.5 -104t-103.5 -44t-103.5 44t-43.5 104zM864 1661q0 60 44 103.5t104 43.5
t103.5 -43.5t43.5 -103.5t-43.5 -104t-103.5 -44t-104 44t-44 104z" />
    <glyph glyph-name="uni04DB" unicode="&#x4db;" horiz-adv-x="1069" 
d="M326 610l-230 37q55 131 165.5 199.5t262.5 68.5q202 0 332 -124q139 -133 139 -347q0 -213 -135 -348q-127 -125 -334 -125q-226 0 -346 146q-106 127 -106 348v41h663q-3 76 -43 129q-60 84 -170 84q-60 0 -113 -26.5t-85 -82.5zM733 346h-428q13 -94 73.5 -146.5
t141.5 -52.5t141 53.5t72 145.5zM172 1200q0 60 43.5 104t103.5 44t104 -44t44 -104t-44 -103.5t-104 -43.5t-103.5 43.5t-43.5 103.5zM598 1200q0 60 43.5 104t103.5 44t104 -44t44 -104t-44 -103.5t-104 -43.5t-103.5 43.5t-43.5 103.5z" />
    <glyph glyph-name="uni04DC" unicode="&#x4dc;" horiz-adv-x="1830" 
d="M788 1366h254v-578l455 578h303l-522 -631l541 -735h-308l-438 612l-31 -30v-582h-254v582l-30 30l-439 -612h-307l541 735l-522 631h303l454 -578v578zM539 1661q0 60 43.5 103.5t103.5 43.5t104 -43.5t44 -103.5t-44 -104t-104 -44t-103.5 44t-43.5 104zM997 1661
q0 60 44 103.5t104 43.5t103.5 -43.5t43.5 -103.5t-43.5 -104t-103.5 -44t-104 44t-44 104z" />
    <glyph glyph-name="uni04DD" unicode="&#x4dd;" horiz-adv-x="1368" 
d="M571 887h226v-344l266 344h291l-338 -404l356 -483h-303l-240 348l-32 -37v-311h-226v311l-32 37l-240 -348h-303l356 483l-338 404h291l266 -344v344zM324 1200q0 60 43.5 104t103.5 44t103.5 -44t43.5 -104t-43.5 -103.5t-103.5 -43.5t-103.5 43.5t-43.5 103.5z
M750 1200q0 60 43.5 104t103.5 44t103.5 -44t43.5 -104t-43.5 -103.5t-103.5 -43.5t-103.5 43.5t-43.5 103.5z" />
    <glyph glyph-name="uni04DE" unicode="&#x4de;" horiz-adv-x="1228" 
d="M324 1055l-140 182q91 81 192 120.5t228 39.5q206 0 327.5 -97.5t121.5 -259.5q0 -91 -43 -167t-125 -121q122 -31 188 -127.5t66 -225.5q0 -193 -152 -311.5t-391 -118.5q-177 0 -308 67.5t-206 190.5l174 166q31 -69 90 -116.5t123.5 -67t132.5 -19.5q129 0 195.5 59.5
t66.5 143.5q0 209 -299 209h-123v229h123q104 0 166 46.5t62 128.5q0 75 -50 116t-145 41q-175 0 -274 -108zM238 1661q0 60 43.5 103.5t103.5 43.5t103.5 -43.5t43.5 -103.5t-43.5 -104t-103.5 -44t-103.5 44t-43.5 104zM696 1661q0 60 44 103.5t104 43.5t103.5 -43.5
t43.5 -103.5t-43.5 -104t-103.5 -44t-104 44t-44 104z" />
    <glyph glyph-name="uni04DF" unicode="&#x4df;" horiz-adv-x="901" 
d="M209 649l-115 156q137 110 336 110q149 0 236 -59q100 -69 100 -188q0 -122 -123 -191q67 -16 117 -59q67 -60 67 -164q0 -129 -102 -205q-53 -40 -132.5 -59t-158.5 -19q-238 0 -381 148l123 151q50 -47 115.5 -70.5t122.5 -23.5q85 0 120 30.5t35 69.5q0 50 -47 74
q-35 17 -106 17h-105v180h101q67 0 98 20q31 21 31 62q0 39 -32 64.5t-103 25.5q-115 0 -197 -70zM78 1200q0 60 43.5 104t103.5 44t104 -44t44 -104t-44 -103.5t-104 -43.5t-103.5 43.5t-43.5 103.5zM504 1200q0 60 43.5 104t103.5 44t104 -44t44 -104t-44 -103.5
t-104 -43.5t-103.5 43.5t-43.5 103.5z" />
    <glyph glyph-name="uni04E2" unicode="&#x4e2;" horiz-adv-x="1515" 
d="M156 1366h266v-909l749 909h189v-1366h-266v913l-750 -913h-188v1366zM403 1526v176h750v-176h-750z" />
    <glyph glyph-name="uni04E3" unicode="&#x4e3;" horiz-adv-x="1146" 
d="M119 887h250v-547l409 547h250v-887h-250v547l-409 -547h-250v887zM201 1104v164h745v-164h-745z" />
    <glyph glyph-name="uni04E4" unicode="&#x4e4;" horiz-adv-x="1515" 
d="M156 1366h266v-909l749 909h189v-1366h-266v913l-750 -913h-188v1366zM401 1661q0 60 44 103.5t104 43.5t103.5 -43.5t43.5 -103.5t-43.5 -104t-103.5 -44t-104 44t-44 104zM860 1661q0 60 44 103.5t104 43.5t103.5 -43.5t43.5 -103.5t-43.5 -104t-103.5 -44t-104 44
t-44 104z" />
    <glyph glyph-name="uni04E5" unicode="&#x4e5;" horiz-adv-x="1146" 
d="M119 887h250v-547l409 547h250v-887h-250v547l-409 -547h-250v887zM213 1200q0 60 43.5 104t103.5 44t104 -44t44 -104t-44 -103.5t-104 -43.5t-103.5 43.5t-43.5 103.5zM639 1200q0 60 43.5 104t103.5 44t104 -44t44 -104t-44 -103.5t-104 -43.5t-103.5 43.5
t-43.5 103.5z" />
    <glyph glyph-name="uni04E6" unicode="&#x4e6;" horiz-adv-x="1638" 
d="M819 1397q212 0 378.5 -91.5t258.5 -254.5t92 -369t-92 -368.5t-258.5 -253.5t-378.5 -91t-378.5 91t-258.5 253.5t-92 368.5t92 369t258.5 254.5t378.5 91.5zM819 211q200 0 327.5 132t127.5 339t-128 340t-327 133t-326.5 -133t-127.5 -340t127 -339t327 -132z
M442 1661q0 60 44 103.5t104 43.5t103.5 -43.5t43.5 -103.5t-43.5 -104t-103.5 -44t-104 44t-44 104zM901 1661q0 60 44 103.5t104 43.5t103.5 -43.5t43.5 -103.5t-43.5 -104t-103.5 -44t-104 44t-44 104z" />
    <glyph glyph-name="uni04E7" unicode="&#x4e7;" horiz-adv-x="1163" 
d="M582 915q223 0 358 -124q69 -62 109.5 -153t40.5 -196q0 -104 -40.5 -194t-109.5 -152q-136 -125 -358 -125q-223 0 -359 125q-68 62 -108.5 152t-40.5 194q0 105 40.5 196t108.5 153q135 124 359 124zM582 193q107 0 178 73t71 176q0 105 -71.5 178.5t-177.5 73.5
t-178 -73.5t-72 -178.5q0 -103 71.5 -176t178.5 -73zM221 1200q0 60 44 104t104 44t103.5 -44t43.5 -104t-43.5 -103.5t-103.5 -43.5t-104 43.5t-44 103.5zM647 1200q0 60 44 104t104 44t103.5 -44t43.5 -104t-43.5 -103.5t-103.5 -43.5t-104 43.5t-44 103.5z" />
    <glyph glyph-name="uni04E8" unicode="&#x4e8;" horiz-adv-x="1634" 
d="M817 1397q212 0 378 -91.5t257.5 -254.5t91.5 -369q0 -205 -92 -367.5t-258 -254t-377 -91.5t-377 91.5t-258 254t-92 367.5q0 206 91.5 369t257.5 254.5t378 91.5zM1266 592h-897q24 -162 146 -271.5t302 -109.5t302.5 110t146.5 271zM373 797h889q-33 164 -158.5 261
t-286.5 97t-286 -96.5t-158 -261.5z" />
    <glyph glyph-name="uni04E9" unicode="&#x4e9;" horiz-adv-x="1163" 
d="M582 915q223 0 358 -124q69 -62 109.5 -153t40.5 -196q0 -104 -40.5 -194t-109.5 -152q-136 -125 -358 -125q-223 0 -359 125q-68 62 -108.5 152t-40.5 194q0 105 40.5 196t108.5 153q135 124 359 124zM831 377h-499q15 -92 86 -150.5t164 -58.5t163.5 58.5t85.5 150.5z
M340 537h483q-20 83 -89 132.5t-152 49.5t-152.5 -49.5t-89.5 -132.5z" />
    <glyph glyph-name="uni04EA" unicode="&#x4ea;" horiz-adv-x="1634" 
d="M817 1397q212 0 378 -91.5t257.5 -254.5t91.5 -369q0 -205 -92 -367.5t-258 -254t-377 -91.5t-377 91.5t-258 254t-92 367.5q0 206 91.5 369t257.5 254.5t378 91.5zM1266 592h-897q24 -162 146 -271.5t302 -109.5t302.5 110t146.5 271zM373 797h889q-33 164 -158.5 261
t-286.5 97t-286 -96.5t-158 -261.5zM442 1661q0 60 44 103.5t104 43.5t103.5 -43.5t43.5 -103.5t-43.5 -104t-103.5 -44t-104 44t-44 104zM901 1661q0 60 44 103.5t104 43.5t103.5 -43.5t43.5 -103.5t-43.5 -104t-103.5 -44t-104 44t-44 104z" />
    <glyph glyph-name="uni04EB" unicode="&#x4eb;" horiz-adv-x="1163" 
d="M582 915q223 0 358 -124q69 -62 109.5 -153t40.5 -196q0 -104 -40.5 -194t-109.5 -152q-136 -125 -358 -125q-223 0 -359 125q-68 62 -108.5 152t-40.5 194q0 105 40.5 196t108.5 153q135 124 359 124zM831 377h-499q15 -92 86 -150.5t164 -58.5t163.5 58.5t85.5 150.5z
M340 537h483q-20 83 -89 132.5t-152 49.5t-152.5 -49.5t-89.5 -132.5zM221 1200q0 60 44 104t104 44t103.5 -44t43.5 -104t-43.5 -103.5t-103.5 -43.5t-104 43.5t-44 103.5zM647 1200q0 60 44 104t104 44t103.5 -44t43.5 -104t-43.5 -103.5t-103.5 -43.5t-104 43.5
t-44 103.5z" />
    <glyph glyph-name="uni04EE" unicode="&#x4ee;" horiz-adv-x="1249" 
d="M4 1366h311l347 -688l292 688h291l-633 -1366h-290l190 381zM260 1526v176h750v-176h-750z" />
    <glyph glyph-name="uni04EF" unicode="&#x4ef;" horiz-adv-x="1101" 
d="M100 -469l326 602l-422 754h291l274 -504l246 504h283l-715 -1356h-283zM178 1104v164h746v-164h-746z" />
    <glyph glyph-name="uni04F0" unicode="&#x4f0;" horiz-adv-x="1249" 
d="M4 1366h311l347 -688l292 688h291l-633 -1366h-290l190 381zM279 1661q0 60 43.5 103.5t103.5 43.5t103.5 -43.5t43.5 -103.5t-43.5 -104t-103.5 -44t-103.5 44t-43.5 104zM737 1661q0 60 44 103.5t104 43.5t103.5 -43.5t43.5 -103.5t-43.5 -104t-103.5 -44t-104 44
t-44 104z" />
    <glyph glyph-name="uni04F1" unicode="&#x4f1;" horiz-adv-x="1101" 
d="M100 -469l326 602l-422 754h291l274 -504l246 504h283l-715 -1356h-283zM190 1200q0 60 44 104t104 44t103.5 -44t43.5 -104t-43.5 -103.5t-103.5 -43.5t-104 43.5t-44 103.5zM616 1200q0 60 44 104t104 44t103.5 -44t43.5 -104t-43.5 -103.5t-103.5 -43.5t-104 43.5
t-44 103.5z" />
    <glyph glyph-name="uni04F2" unicode="&#x4f2;" horiz-adv-x="1249" 
d="M4 1366h311l347 -688l292 688h291l-633 -1366h-290l190 381zM549 1886l184 -121l-295 -274l-114 82zM958 1884l185 -119l-295 -274l-115 82z" />
    <glyph glyph-name="uni04F3" unicode="&#x4f3;" horiz-adv-x="1101" 
d="M100 -469l326 602l-422 754h291l274 -504l246 504h283l-715 -1356h-283zM457 1413l168 -119l-271 -274l-102 82zM842 1411l168 -117l-271 -274l-102 82z" />
    <glyph glyph-name="uni04F4" unicode="&#x4f4;" horiz-adv-x="1269" 
d="M848 0v545q-147 -15 -244 -15q-248 0 -364 88q-82 61 -110 144t-28 184v420h267v-373q0 -41 2.5 -66.5t18 -61.5t46.5 -60q58 -45 195 -45q116 0 217 14v592h266v-1366h-266zM246 1661q0 60 43.5 103.5t103.5 43.5t104 -43.5t44 -103.5t-44 -104t-104 -44t-103.5 44
t-43.5 104zM705 1661q0 60 43.5 103.5t103.5 43.5t103.5 -43.5t43.5 -103.5t-43.5 -104t-103.5 -44t-103.5 44t-43.5 104z" />
    <glyph glyph-name="uni04F5" unicode="&#x4f5;" horiz-adv-x="991" 
d="M623 0v303q-105 -20 -209 -20q-162 0 -248 82q-49 46 -64.5 96t-15.5 112v314h250v-262q0 -68 31 -97q34 -32 127 -32q62 0 129 12v379h249v-887h-249zM123 1200q0 60 43.5 104t103.5 44t104 -44t44 -104t-44 -103.5t-104 -43.5t-103.5 43.5t-43.5 103.5zM549 1200
q0 60 43.5 104t103.5 44t104 -44t44 -104t-44 -103.5t-104 -43.5t-103.5 43.5t-43.5 103.5z" />
    <glyph glyph-name="uni04F8" unicode="&#x4f8;" horiz-adv-x="1638" 
d="M156 0v1366h266v-535h213q215 0 336 -112q127 -117 127 -305q0 -137 -74 -246q-114 -168 -387 -168h-481zM422 602v-373h156q19 0 35 1t48.5 5.5t57.5 17t50.5 31.5t39.5 52.5t14 77.5q0 36 -10.5 66.5t-35.5 59.5t-75 45.5t-120 16.5h-160zM1217 1366h266v-1366h-266
v1366zM442 1661q0 60 44 103.5t104 43.5t103.5 -43.5t43.5 -103.5t-43.5 -104t-103.5 -44t-104 44t-44 104zM901 1661q0 60 44 103.5t104 43.5t103.5 -43.5t43.5 -103.5t-43.5 -104t-103.5 -44t-104 44t-44 104z" />
    <glyph glyph-name="uni04F9" unicode="&#x4f9;" horiz-adv-x="1331" 
d="M119 887h250v-316h194q157 0 238 -90q67 -70 67 -190q0 -144 -94 -225q-76 -66 -199 -66h-456v887zM369 197h116q63 0 93 22q32 24 32 72q0 43 -32 63q-32 21 -86 21h-123v-178zM963 887h249v-887h-249v887zM305 1200q0 60 44 104t104 44t103.5 -44t43.5 -104
t-43.5 -103.5t-103.5 -43.5t-104 43.5t-44 103.5zM731 1200q0 60 44 104t104 44t103.5 -44t43.5 -104t-43.5 -103.5t-103.5 -43.5t-104 43.5t-44 103.5z" />
    <glyph glyph-name="uni1E9E" unicode="&#x1e9e;" horiz-adv-x="1175" 
d="M590 811l155 193q0 43 -13.5 81.5t-35.5 57.5q-42 37 -108 37q-75 0 -119 -47q-22 -24 -33 -54.5t-12.5 -49t-1.5 -48.5v-981h-266v958q0 201 123 324q115 115 305 115q162 0 264 -72q78 -56 119 -143.5t41 -190.5l-203 -219q142 -41 213 -141q67 -94 67 -248
q0 -67 -34.5 -149t-98.5 -138q-134 -118 -362 -125v217q104 6 162 58q59 56 59 162q0 93 -63 153q-52 50 -158 60v190z" />
    <glyph glyph-name="uni2010" unicode="&#x2010;" horiz-adv-x="737" 
d="M102 356v230h533v-230h-533z" />
    <glyph glyph-name="uni2011" unicode="&#x2011;" horiz-adv-x="737" 
d="M102 356v230h533v-230h-533z" />
    <glyph glyph-name="figuredash" unicode="&#x2012;" horiz-adv-x="1310" 
d="M143 592v213h1024v-213h-1024z" />
    <glyph glyph-name="endash" unicode="&#x2013;" horiz-adv-x="1310" 
d="M143 365v213h1024v-213h-1024z" />
    <glyph glyph-name="emdash" unicode="&#x2014;" horiz-adv-x="1720" 
d="M143 365v213h1434v-213h-1434z" />
    <glyph glyph-name="afii00208" unicode="&#x2015;" horiz-adv-x="1720" 
d="M143 365v213h1434v-213h-1434z" />
    <glyph glyph-name="quoteleft" unicode="&#x2018;" horiz-adv-x="622" 
d="M532 1366l-217 -551l-229 27l289 542z" />
    <glyph glyph-name="quoteright" unicode="&#x2019;" horiz-adv-x="622" 
d="M86 842l217 551l229 -27l-288 -543z" />
    <glyph glyph-name="quotesinglbase" unicode="&#x201a;" horiz-adv-x="757" 
d="M86 -268l217 551l229 -27l-288 -543z" />
    <glyph glyph-name="quotedblleft" unicode="&#x201c;" horiz-adv-x="1007" 
d="M918 1366l-218 -551l-229 27l289 542zM532 1366l-217 -551l-229 27l289 542z" />
    <glyph glyph-name="quotedblright" unicode="&#x201d;" horiz-adv-x="1007" 
d="M86 842l217 551l229 -27l-288 -543zM471 842l217 551l230 -27l-289 -543z" />
    <glyph glyph-name="quotedblbase" unicode="&#x201e;" horiz-adv-x="1167" 
d="M86 -268l217 551l229 -27l-288 -543zM471 -268l217 551l230 -27l-289 -543z" />
    <glyph glyph-name="dagger" unicode="&#x2020;" horiz-adv-x="1163" 
d="M463 1067v426h237v-426h324v-213h-324v-1223h-237v1223h-324v213h324z" />
    <glyph glyph-name="daggerdbl" unicode="&#x2021;" horiz-adv-x="1163" 
d="M463 1067v426h237v-426h324v-213h-324v-494h324v-213h-324v-516h-237v516h-324v213h324v494h-324v213h324z" />
    <glyph glyph-name="bullet" unicode="&#x2022;" horiz-adv-x="2048" 
d="M737 696q0 118 84.5 202.5t202.5 84.5t202.5 -84.5t84.5 -202.5t-84 -202t-203 -84t-203 84t-84 202z" />
    <glyph glyph-name="ellipsis" unicode="&#x2026;" horiz-adv-x="1732" 
d="M129 133q0 67 46.5 113.5t113.5 46.5t113.5 -46.5t46.5 -113.5t-46.5 -113.5t-113.5 -46.5t-113.5 46.5t-46.5 113.5zM707 133q0 68 46 114t113 46q68 0 114 -46.5t46 -113.5t-46 -113.5t-114 -46.5q-67 0 -113 46t-46 114zM1284 133q0 67 46 113.5t114 46.5t114 -46.5
t46 -113.5t-46 -113.5t-114 -46.5t-114 46.5t-46 113.5z" />
    <glyph glyph-name="perthousand" unicode="&#x2030;" horiz-adv-x="2396" 
d="M406 1382q157 0 250.5 -90.5t93.5 -232.5t-93.5 -233t-250.5 -91t-251 91t-94 233t94 232.5t251 90.5zM406 883q75 0 123.5 49.5t48.5 126.5t-48.5 126.5t-123.5 49.5t-124 -50t-49 -126t49 -126t124 -50zM332 6l813 1405l108 -61l-813 -1407zM1180 627q157 0 250.5 -91
t93.5 -233t-93.5 -232.5t-250.5 -90.5t-250.5 90.5t-93.5 232.5t93.5 233t250.5 91zM1180 127q75 0 123.5 49.5t48.5 126.5t-48.5 126.5t-123.5 49.5t-123.5 -49.5t-48.5 -126.5t48.5 -126.5t123.5 -49.5zM1991 627q157 0 250.5 -91t93.5 -233t-93.5 -232.5t-250.5 -90.5
t-250.5 90.5t-93.5 232.5t93.5 233t250.5 91zM1991 127q75 0 123.5 49.5t48.5 126.5t-48.5 126.5t-123.5 49.5t-123.5 -49.5t-48.5 -126.5t48.5 -126.5t123.5 -49.5z" />
    <glyph glyph-name="guilsinglleft" unicode="&#x2039;" horiz-adv-x="651" 
d="M299 449l250 -336l-143 -103l-324 439l324 438l143 -103z" />
    <glyph glyph-name="guilsinglright" unicode="&#x203a;" horiz-adv-x="651" 
d="M352 449l-250 335l144 103l323 -438l-323 -439l-144 103z" />
    <glyph glyph-name="fraction" unicode="&#x2044;" horiz-adv-x="512" 
d="M-205 6l813 1405l109 -61l-813 -1407z" />
    <glyph glyph-name="uni2080" unicode="&#x2080;" horiz-adv-x="778" 
d="M389 -18q-64 0 -123 27.5t-106 79t-75 135t-28 186.5t28 186.5t75 135t106 79t123 27.5t123 -27.5t106 -79t75 -135t28 -186.5t-28 -186.5t-75 -135t-106 -79t-123 -27.5zM389 690q-63 0 -111.5 -68.5t-48.5 -211.5q0 -83 17 -142.5t44.5 -87.5t51.5 -39.5t47 -11.5
t47 11.5t51.5 39.5t44.5 87.5t17 142.5q0 143 -48.5 211.5t-111.5 68.5z" />
    <glyph glyph-name="uni2081" unicode="&#x2081;" horiz-adv-x="778" 
d="M340 0v672h-164v147h336v-819h-172z" />
    <glyph glyph-name="uni2082" unicode="&#x2082;" horiz-adv-x="778" 
d="M49 0l244 274q4 5 41 46.5t61.5 70.5t42.5 55q47 66 47 132q0 51 -30 81.5t-86 30.5q-61 0 -96 -36t-35 -91h-172q4 125 85.5 200t208.5 75q134 0 215.5 -75.5t81.5 -184.5q0 -80 -37.5 -144.5t-107.5 -142.5l-127 -144h279v-147h-615z" />
    <glyph glyph-name="uni2083" unicode="&#x2083;" horiz-adv-x="778" 
d="M252 596h-160q12 117 87.5 179.5t189.5 62.5q134 0 201 -66t67 -156q0 -51 -23.5 -99.5t-78.5 -76.5q66 -23 99.5 -74.5t33.5 -121.5q0 -110 -79 -186t-224 -76q-126 0 -212 71t-96 193h172q6 -53 42 -85t94 -32q65 0 98 36.5t33 86.5q0 46 -33.5 79.5t-102.5 33.5h-41
v135h41q55 0 84 31t29 73q0 40 -27 69t-81 29q-49 0 -80 -30t-33 -76z" />
    <glyph glyph-name="uni2084" unicode="&#x2084;" horiz-adv-x="778" 
d="M621 834v-549h96v-140h-96v-145h-164v145h-408v72l408 617h164zM254 285h203v313z" />
    <glyph glyph-name="uni2085" unicode="&#x2085;" horiz-adv-x="778" 
d="M627 819v-147h-277l-26 -119q32 4 55 4q136 0 210.5 -79.5t74.5 -196.5q0 -60 -20 -113t-59.5 -95t-105 -66.5t-149.5 -24.5q-158 0 -264 104l53 147q86 -104 207 -104q80 0 123 45t43 105q0 64 -49 107.5t-138 43.5t-158 -53h-10l99 442h391z" />
    <glyph glyph-name="uni2086" unicode="&#x2086;" horiz-adv-x="778" 
d="M418 864l127 -96l-195 -248q49 19 96 19q109 0 188 -71t79 -196q0 -56 -19.5 -106.5t-57.5 -92.5t-102 -66.5t-145 -24.5q-152 0 -237.5 81.5t-85.5 200.5q0 120 100 256zM389 117q64 0 108 40.5t44 102.5t-44 102.5t-108 40.5t-107.5 -40.5t-43.5 -102.5t43.5 -102.5
t107.5 -40.5z" />
    <glyph glyph-name="uni2087" unicode="&#x2087;" horiz-adv-x="778" 
d="M115 53l370 619h-415v147h688l-498 -842z" />
    <glyph glyph-name="uni2088" unicode="&#x2088;" horiz-adv-x="778" 
d="M238 428q-57 26 -87 74t-30 108q0 96 70.5 162t197.5 66t197.5 -66t70.5 -162q0 -60 -29.5 -108t-86.5 -74q50 -17 84 -52t47.5 -73.5t13.5 -79.5q0 -104 -81.5 -172.5t-215.5 -68.5t-215.5 68.5t-81.5 172.5q0 64 36 122.5t110 82.5zM389 702q-44 0 -79.5 -27.5
t-35.5 -78.5t35.5 -79t79.5 -28t79.5 28t35.5 79t-35.5 78.5t-79.5 27.5zM389 354q-54 0 -89.5 -34t-35.5 -84q0 -52 35.5 -85.5t89.5 -33.5t89.5 33.5t35.5 85.5q0 50 -35.5 84t-89.5 34z" />
    <glyph glyph-name="uni2089" unicode="&#x2089;" horiz-adv-x="778" 
d="M360 -45l-127 96l195 248q-46 -18 -96 -18q-109 0 -187.5 70.5t-78.5 195.5q0 56 19.5 107t57 92.5t101.5 66.5t145 25q152 0 238 -82t86 -201q0 -125 -97 -256zM389 702q-64 0 -107.5 -40.5t-43.5 -102.5t43.5 -102.5t107.5 -40.5t108 40.5t44 102.5t-44 102.5
t-108 40.5z" />
    <glyph glyph-name="Euro" unicode="&#x20ac;" horiz-adv-x="1163" 
d="M1094 352v-299q-156 -84 -377 -84q-308 0 -471 178q-111 121 -133 285h-154l74 184h61q-9 68 0 129h-135l74 185h86q38 173 164 293q83 80 206.5 127t270.5 47q198 0 354 -90l-104 -224q-112 72 -267 72q-70 0 -127 -17t-92 -40.5t-61.5 -57t-39 -58.5t-20.5 -52h549
l-73 -185h-510q-7 -73 0 -129h473l-74 -184h-360q19 -76 73 -127.5t120.5 -72.5t143.5 -21q222 0 349 141z" />
    <glyph glyph-name="uni20B4" unicode="&#x20b4;" horiz-adv-x="1163" 
d="M293 1055l-139 182q71 61 170 106q125 54 260 54q89 0 163.5 -18.5t135.5 -75.5q90 -87 90 -209q0 -87 -53 -164h143v-185h-291l-133 -129h424v-184h-567q-37 -42 -37 -98q0 -60 49 -94q44 -29 108 -29q90 0 160 49q59 38 103 109l163 -181q-71 -90 -184 -153
q-126 -66 -287 -66q-172 0 -270 84q-102 87 -102 213q0 97 43 166h-152v184h283l133 129h-416v185h565q50 47 50 108q0 63 -46 101q-42 35 -106 35q-83 0 -164 -48q-55 -30 -96 -71z" />
    <glyph glyph-name="uni20B6" unicode="&#x20b6;" horiz-adv-x="1163" 
d="M604 1366q127 0 209 -21t152 -83q139 -123 139 -334q0 -182 -113 -295q-125 -121 -346 -121h-172v-129h377v-184h-377v-199h-266v199h-144v184h144v129h-144v223h144v631h397zM473 1137v-402h109q36 0 57 1.5t56 11.5t61 30q73 58 73 160q0 100 -75 156q-61 43 -189 43
h-92z" />
    <glyph glyph-name="uni20B6" unicode="&#x20cf;" horiz-adv-x="1163" 
d="M604 1366q127 0 209 -21t152 -83q139 -123 139 -334q0 -182 -113 -295q-125 -121 -346 -121h-172v-129h377v-184h-377v-199h-266v199h-144v184h144v129h-144v223h144v631h397zM473 1137v-402h109q36 0 57 1.5t56 11.5t61 30q73 58 73 160q0 100 -75 156q-61 43 -189 43
h-92z" />
    <glyph glyph-name="uni20B6" unicode="&#x20ce;" horiz-adv-x="1163" 
d="M604 1366q127 0 209 -21t152 -83q139 -123 139 -334q0 -182 -113 -295q-125 -121 -346 -121h-172v-129h377v-184h-377v-199h-266v199h-144v184h144v129h-144v223h144v631h397zM473 1137v-402h109q36 0 57 1.5t56 11.5t61 30q73 58 73 160q0 100 -75 156q-61 43 -189 43
h-92z" />
    <glyph glyph-name="uni20B6" unicode="&#x20cd;" horiz-adv-x="1163" 
d="M604 1366q127 0 209 -21t152 -83q139 -123 139 -334q0 -182 -113 -295q-125 -121 -346 -121h-172v-129h377v-184h-377v-199h-266v199h-144v184h144v129h-144v223h144v631h397zM473 1137v-402h109q36 0 57 1.5t56 11.5t61 30q73 58 73 160q0 100 -75 156q-61 43 -189 43
h-92z" />
    <glyph glyph-name="uni20B6" unicode="&#x20cc;" horiz-adv-x="1163" 
d="M604 1366q127 0 209 -21t152 -83q139 -123 139 -334q0 -182 -113 -295q-125 -121 -346 -121h-172v-129h377v-184h-377v-199h-266v199h-144v184h144v129h-144v223h144v631h397zM473 1137v-402h109q36 0 57 1.5t56 11.5t61 30q73 58 73 160q0 100 -75 156q-61 43 -189 43
h-92z" />
    <glyph glyph-name="uni20B6" unicode="&#x20cb;" horiz-adv-x="1163" 
d="M604 1366q127 0 209 -21t152 -83q139 -123 139 -334q0 -182 -113 -295q-125 -121 -346 -121h-172v-129h377v-184h-377v-199h-266v199h-144v184h144v129h-144v223h144v631h397zM473 1137v-402h109q36 0 57 1.5t56 11.5t61 30q73 58 73 160q0 100 -75 156q-61 43 -189 43
h-92z" />
    <glyph glyph-name="uni20B6" unicode="&#x20ca;" horiz-adv-x="1163" 
d="M604 1366q127 0 209 -21t152 -83q139 -123 139 -334q0 -182 -113 -295q-125 -121 -346 -121h-172v-129h377v-184h-377v-199h-266v199h-144v184h144v129h-144v223h144v631h397zM473 1137v-402h109q36 0 57 1.5t56 11.5t61 30q73 58 73 160q0 100 -75 156q-61 43 -189 43
h-92z" />
    <glyph glyph-name="uni20B6" unicode="&#x20c9;" horiz-adv-x="1163" 
d="M604 1366q127 0 209 -21t152 -83q139 -123 139 -334q0 -182 -113 -295q-125 -121 -346 -121h-172v-129h377v-184h-377v-199h-266v199h-144v184h144v129h-144v223h144v631h397zM473 1137v-402h109q36 0 57 1.5t56 11.5t61 30q73 58 73 160q0 100 -75 156q-61 43 -189 43
h-92z" />
    <glyph glyph-name="uni20B6" unicode="&#x20c8;" horiz-adv-x="1163" 
d="M604 1366q127 0 209 -21t152 -83q139 -123 139 -334q0 -182 -113 -295q-125 -121 -346 -121h-172v-129h377v-184h-377v-199h-266v199h-144v184h144v129h-144v223h144v631h397zM473 1137v-402h109q36 0 57 1.5t56 11.5t61 30q73 58 73 160q0 100 -75 156q-61 43 -189 43
h-92z" />
    <glyph glyph-name="uni20B6" unicode="&#x20c7;" horiz-adv-x="1163" 
d="M604 1366q127 0 209 -21t152 -83q139 -123 139 -334q0 -182 -113 -295q-125 -121 -346 -121h-172v-129h377v-184h-377v-199h-266v199h-144v184h144v129h-144v223h144v631h397zM473 1137v-402h109q36 0 57 1.5t56 11.5t61 30q73 58 73 160q0 100 -75 156q-61 43 -189 43
h-92z" />
    <glyph glyph-name="uni20B6" unicode="&#x20c6;" horiz-adv-x="1163" 
d="M604 1366q127 0 209 -21t152 -83q139 -123 139 -334q0 -182 -113 -295q-125 -121 -346 -121h-172v-129h377v-184h-377v-199h-266v199h-144v184h144v129h-144v223h144v631h397zM473 1137v-402h109q36 0 57 1.5t56 11.5t61 30q73 58 73 160q0 100 -75 156q-61 43 -189 43
h-92z" />
    <glyph glyph-name="uni20B6" unicode="&#x20c5;" horiz-adv-x="1163" 
d="M604 1366q127 0 209 -21t152 -83q139 -123 139 -334q0 -182 -113 -295q-125 -121 -346 -121h-172v-129h377v-184h-377v-199h-266v199h-144v184h144v129h-144v223h144v631h397zM473 1137v-402h109q36 0 57 1.5t56 11.5t61 30q73 58 73 160q0 100 -75 156q-61 43 -189 43
h-92z" />
    <glyph glyph-name="uni20B6" unicode="&#x20c4;" horiz-adv-x="1163" 
d="M604 1366q127 0 209 -21t152 -83q139 -123 139 -334q0 -182 -113 -295q-125 -121 -346 -121h-172v-129h377v-184h-377v-199h-266v199h-144v184h144v129h-144v223h144v631h397zM473 1137v-402h109q36 0 57 1.5t56 11.5t61 30q73 58 73 160q0 100 -75 156q-61 43 -189 43
h-92z" />
    <glyph glyph-name="uni20B6" unicode="&#x20c3;" horiz-adv-x="1163" 
d="M604 1366q127 0 209 -21t152 -83q139 -123 139 -334q0 -182 -113 -295q-125 -121 -346 -121h-172v-129h377v-184h-377v-199h-266v199h-144v184h144v129h-144v223h144v631h397zM473 1137v-402h109q36 0 57 1.5t56 11.5t61 30q73 58 73 160q0 100 -75 156q-61 43 -189 43
h-92z" />
    <glyph glyph-name="uni20B6" unicode="&#x20c2;" horiz-adv-x="1163" 
d="M604 1366q127 0 209 -21t152 -83q139 -123 139 -334q0 -182 -113 -295q-125 -121 -346 -121h-172v-129h377v-184h-377v-199h-266v199h-144v184h144v129h-144v223h144v631h397zM473 1137v-402h109q36 0 57 1.5t56 11.5t61 30q73 58 73 160q0 100 -75 156q-61 43 -189 43
h-92z" />
    <glyph glyph-name="uni20B6" unicode="&#x20c1;" horiz-adv-x="1163" 
d="M604 1366q127 0 209 -21t152 -83q139 -123 139 -334q0 -182 -113 -295q-125 -121 -346 -121h-172v-129h377v-184h-377v-199h-266v199h-144v184h144v129h-144v223h144v631h397zM473 1137v-402h109q36 0 57 1.5t56 11.5t61 30q73 58 73 160q0 100 -75 156q-61 43 -189 43
h-92z" />
    <glyph glyph-name="uni20B6" unicode="&#x20c0;" horiz-adv-x="1163" 
d="M604 1366q127 0 209 -21t152 -83q139 -123 139 -334q0 -182 -113 -295q-125 -121 -346 -121h-172v-129h377v-184h-377v-199h-266v199h-144v184h144v129h-144v223h144v631h397zM473 1137v-402h109q36 0 57 1.5t56 11.5t61 30q73 58 73 160q0 100 -75 156q-61 43 -189 43
h-92z" />
    <glyph glyph-name="uni20B6" unicode="&#x20bf;" horiz-adv-x="1163" 
d="M604 1366q127 0 209 -21t152 -83q139 -123 139 -334q0 -182 -113 -295q-125 -121 -346 -121h-172v-129h377v-184h-377v-199h-266v199h-144v184h144v129h-144v223h144v631h397zM473 1137v-402h109q36 0 57 1.5t56 11.5t61 30q73 58 73 160q0 100 -75 156q-61 43 -189 43
h-92z" />
    <glyph glyph-name="uni20B6" unicode="&#x20be;" horiz-adv-x="1163" 
d="M604 1366q127 0 209 -21t152 -83q139 -123 139 -334q0 -182 -113 -295q-125 -121 -346 -121h-172v-129h377v-184h-377v-199h-266v199h-144v184h144v129h-144v223h144v631h397zM473 1137v-402h109q36 0 57 1.5t56 11.5t61 30q73 58 73 160q0 100 -75 156q-61 43 -189 43
h-92z" />
    <glyph glyph-name="uni20B6" unicode="&#x20bd;" horiz-adv-x="1163" 
d="M604 1366q127 0 209 -21t152 -83q139 -123 139 -334q0 -182 -113 -295q-125 -121 -346 -121h-172v-129h377v-184h-377v-199h-266v199h-144v184h144v129h-144v223h144v631h397zM473 1137v-402h109q36 0 57 1.5t56 11.5t61 30q73 58 73 160q0 100 -75 156q-61 43 -189 43
h-92z" />
    <glyph glyph-name="uni20B6" unicode="&#x20bc;" horiz-adv-x="1163" 
d="M604 1366q127 0 209 -21t152 -83q139 -123 139 -334q0 -182 -113 -295q-125 -121 -346 -121h-172v-129h377v-184h-377v-199h-266v199h-144v184h144v129h-144v223h144v631h397zM473 1137v-402h109q36 0 57 1.5t56 11.5t61 30q73 58 73 160q0 100 -75 156q-61 43 -189 43
h-92z" />
    <glyph glyph-name="uni20B6" unicode="&#x20bb;" horiz-adv-x="1163" 
d="M604 1366q127 0 209 -21t152 -83q139 -123 139 -334q0 -182 -113 -295q-125 -121 -346 -121h-172v-129h377v-184h-377v-199h-266v199h-144v184h144v129h-144v223h144v631h397zM473 1137v-402h109q36 0 57 1.5t56 11.5t61 30q73 58 73 160q0 100 -75 156q-61 43 -189 43
h-92z" />
    <glyph glyph-name="uni20B6" unicode="&#x20ba;" horiz-adv-x="1163" 
d="M604 1366q127 0 209 -21t152 -83q139 -123 139 -334q0 -182 -113 -295q-125 -121 -346 -121h-172v-129h377v-184h-377v-199h-266v199h-144v184h144v129h-144v223h144v631h397zM473 1137v-402h109q36 0 57 1.5t56 11.5t61 30q73 58 73 160q0 100 -75 156q-61 43 -189 43
h-92z" />
    <glyph glyph-name="uni20B6" unicode="&#x20b9;" horiz-adv-x="1163" 
d="M604 1366q127 0 209 -21t152 -83q139 -123 139 -334q0 -182 -113 -295q-125 -121 -346 -121h-172v-129h377v-184h-377v-199h-266v199h-144v184h144v129h-144v223h144v631h397zM473 1137v-402h109q36 0 57 1.5t56 11.5t61 30q73 58 73 160q0 100 -75 156q-61 43 -189 43
h-92z" />
    <glyph glyph-name="uni20B6" unicode="&#x20b7;" horiz-adv-x="1163" 
d="M604 1366q127 0 209 -21t152 -83q139 -123 139 -334q0 -182 -113 -295q-125 -121 -346 -121h-172v-129h377v-184h-377v-199h-266v199h-144v184h144v129h-144v223h144v631h397zM473 1137v-402h109q36 0 57 1.5t56 11.5t61 30q73 58 73 160q0 100 -75 156q-61 43 -189 43
h-92z" />
    <glyph glyph-name="uni20B8" unicode="&#x20b8;" horiz-adv-x="1163" 
d="M1022 856h-307v-856h-266v856h-308v229h881v-229zM1022 1178h-881v188h881v-188z" />
    <glyph glyph-name="afii61352" unicode="&#x2116;" horiz-adv-x="2211" 
d="M422 0h-266v1366h266l627 -920v920h266v-1366h-266l-627 920v-920zM1782 1366q157 0 250.5 -91t93.5 -233t-93.5 -232.5t-250.5 -90.5t-250.5 90.5t-93.5 232.5t93.5 233t250.5 91zM1782 1219q-75 0 -123.5 -50t-48.5 -127t48.5 -126.5t123.5 -49.5t123.5 49.5
t48.5 126.5t-48.5 127t-123.5 50zM1479 403v177h606v-177h-606z" />
    <glyph glyph-name="uni2117" unicode="&#x2117;" horiz-adv-x="1556" 
d="M778 1397q297 0 502 -203q209 -209 209 -514q0 -293 -193 -496q-203 -215 -518 -215q-143 0 -276 52t-234 155q-101 101 -150.5 232.5t-49.5 275.5q0 161 58.5 294t160.5 228q99 95 226 143t265 48zM778 1270q-232 0 -393 -164q-174 -174 -174 -420q0 -127 47 -239.5
t121 -186.5q73 -73 179.5 -118.5t219.5 -45.5q111 0 212 43t179 119q177 172 177 420q0 253 -177 430q-162 162 -391 162zM539 1079h247q128 0 193 -65q61 -61 61 -172q0 -109 -55 -170q-62 -66 -207 -66h-84v-293h-155v766zM694 944v-211h62q63 0 94 31q29 29 29 78
q0 53 -29 78q-26 24 -88 24h-68z" />
    <glyph glyph-name="trademark" unicode="&#x2122;" horiz-adv-x="1474" 
d="M506 1210h-168v-622h-174v622h-168v156h510v-156zM707 588h-175l140 792h127l190 -473l201 473h127l125 -792h-174l-60 428l-184 -438h-70l-180 438z" />
    <glyph glyph-name="partialdiff" unicode="&#x2202;" horiz-adv-x="1118" 
d="M172 1163l33 215q179 -11 346 -79t280 -179q213 -211 213 -557q0 -317 -167 -475q-126 -117 -324 -117q-208 0 -342 131q-137 132 -137 338q0 96 34.5 182.5t98.5 149.5q119 115 293 115q150 0 256 -103q-56 180 -238 281q-147 81 -346 98zM553 674q-90 0 -152 -62
q-32 -32 -50.5 -81.5t-18.5 -100.5q0 -112 69 -178q62 -59 152 -59q99 0 162 69q59 68 59 168q0 50 -21.5 104.5t-54.5 86.5q-56 53 -145 53z" />
    <glyph glyph-name="product" unicode="&#x220f;" horiz-adv-x="1495" 
d="M82 1307v229h1331v-229h-168v-1590h168v-229h-582v229h164v1590h-495v-1590h164v-229h-582v229h168v1590h-168z" />
    <glyph glyph-name="summation" unicode="&#x2211;" horiz-adv-x="1368" 
d="M45 1536h1219v-500h-230l-20 271h-682l508 -760l-508 -830h700l21 277h229v-506h-1237v250l500 809l-500 739v250z" />
    <glyph glyph-name="minus" unicode="&#x2212;" 
d="M68 580v229h888v-229h-888z" />
    <glyph glyph-name="uni2215" unicode="&#x2215;" horiz-adv-x="1337" 
d="M-41 -348l1075 1902l180 -81l-1075 -1903z" />
    <glyph glyph-name="uni2219" unicode="&#x2219;" horiz-adv-x="409" 
d="M16 586q0 78 55.5 133t133.5 55t133 -55t55 -133t-55 -133.5t-133 -55.5t-133.5 55.5t-55.5 133.5z" />
    <glyph glyph-name="radical" unicode="&#x221a;" horiz-adv-x="1368" 
d="M780 1694h588v-226h-371l-354 -1468h-328l-122 561h-193v225h397l43 -186q18 -85 21 -145l10 -125v-25h23q27 298 100 608z" />
    <glyph glyph-name="infinity" unicode="&#x221e;" horiz-adv-x="1368" 
d="M690 532q-60 -74 -144 -120.5t-181 -46.5q-145 0 -237.5 92t-92.5 237t92.5 238.5t232.5 93.5q90 0 174.5 -45t145.5 -123q135 168 321 168q146 0 239 -92.5t93 -237.5t-92.5 -238t-234.5 -93q-89 0 -172.5 42.5t-143.5 124.5zM963 803q-44 0 -86 -32t-70 -77
q72 -106 156 -106q53 0 82.5 33t29.5 75q0 48 -33.5 77.5t-78.5 29.5zM406 588q44 0 86.5 31.5t68.5 74.5q-17 31 -39 53t-39.5 32.5t-37 16.5t-26.5 6.5t-13 0.5q-52 0 -82.5 -33t-30.5 -76q0 -44 33.5 -75t79.5 -31z" />
    <glyph glyph-name="integral" unicode="&#x222b;" 
d="M109 -492l47 224q62 -21 104 -21q61 0 90 31q35 38 35 149v1242q0 186 70 284q88 119 284 119q80 0 176 -20l-47 -224q-62 21 -104 21q-61 0 -90 -31q-35 -38 -35 -149v-1242q0 -186 -70 -284q-88 -119 -284 -119q-80 0 -176 20z" />
    <glyph glyph-name="approxequal" unicode="&#x2248;" 
d="M868 1071l144 -82q-75 -179 -189 -237q-61 -31 -121 -31q-12 0 -23.5 0.5t-20.5 1.5t-21 3.5t-19 3.5t-20.5 5.5t-19 6t-21.5 7.5t-21.5 8t-24.5 9t-26 10q-80 30 -116 40.5t-68 10.5q-31 0 -58.5 -15.5t-45 -39t-27 -41.5t-14.5 -33l-144 82q24 68 65.5 138t92.5 106
q58 43 145 43q43 0 90 -12t132 -43q12 -4 39.5 -14.5t40.5 -15t33.5 -10.5t36 -8.5t30.5 -2.5q52 0 86.5 26t64.5 84zM868 666l144 -82q-75 -180 -189 -238q-61 -31 -121 -31q-15 0 -29 1t-25 2.5t-26 5.5t-23.5 6t-26.5 8.5t-25 9t-30 11.5t-32 12q-80 30 -116 40.5
t-68 10.5q-31 0 -58.5 -15.5t-45 -39t-27 -41.5t-14.5 -33l-144 82q24 67 65.5 137t92.5 106q59 44 145 44q43 0 89 -12t133 -44q12 -4 39.5 -14.5t40.5 -15t33.5 -10.5t36 -8.5t30.5 -2.5q51 0 86 26.5t65 84.5z" />
    <glyph glyph-name="notequal" unicode="&#x2260;" 
d="M68 766v217h485l100 213h197l-100 -213h206v-217h-309l-67 -143h376v-217h-479l-106 -226h-197l107 226h-213v217h315l68 143h-383z" />
    <glyph glyph-name="lessequal" unicode="&#x2264;" 
d="M313 805l643 -275v-233l-888 403v209l888 428v-233zM68 242h888v-226h-888v226z" />
    <glyph glyph-name="greaterequal" unicode="&#x2265;" 
d="M711 805l-643 299v233l888 -428v-209l-888 -403v233zM956 242v-226h-888v226h888z" />
    <glyph glyph-name="dotmath" unicode="&#x22c5;" horiz-adv-x="409" 
d="M16 586q0 78 55.5 133t133.5 55t133 -55t55 -133t-55 -133.5t-133 -55.5t-133.5 55.5t-55.5 133.5z" />
    <glyph glyph-name="lozenge" unicode="&#x25ca;" horiz-adv-x="1433" 
d="M184 684l533 737l532 -737l-532 -737zM958 684l-241 332l-242 -332l242 -332z" />
    <glyph glyph-name="openbullet" unicode="&#x25e6;" 
d="M512 1356q133 0 223 -86.5t90 -220.5t-90 -221t-223 -87t-223 87t-90 221t90 220.5t223 86.5zM512 1208q-71 0 -116.5 -44.5t-45.5 -114.5t45.5 -115t116.5 -45t116.5 45t45.5 115t-45.5 114.5t-116.5 44.5z" />
    <glyph glyph-name="uniF400" unicode="&#xf400;" horiz-adv-x="4" 
d="M-369 1434l181 -115l-308 -275l-114 82z" />
    <glyph glyph-name="uniF401" unicode="&#xf401;" horiz-adv-x="4" 
d="M-639 1491l-115 102l287 291l184 -143z" />
    <glyph glyph-name="uniF406" unicode="&#xf406;" 
d="M676 1782h184q-12 -130 -108 -212.5t-240 -82.5t-240 82.5t-108 212.5h184q10 -52 51.5 -87.5t112.5 -35.5t112.5 35.5t51.5 87.5z" />
    <glyph glyph-name="uniF407" unicode="&#xf407;" 
d="M520 -94l197 -90l-250 -316l-135 74z" />
    <glyph glyph-name="uniF408" unicode="&#xf408;" 
d="M512 1679l-246 -180l-123 131l369 275l369 -275l-123 -131z" />
    <glyph glyph-name="uniF409" unicode="&#xf409;" 
d="M328 -528l139 426l229 -33l-204 -418z" />
    <glyph glyph-name="uniF40A" unicode="&#xf40a;" 
d="M328 958l135 435l233 -41l-196 -426z" />
    <glyph glyph-name="uniF40B" unicode="&#xf40b;" 
d="M352 1673q0 67 46 113.5t114 46.5t114 -46.5t46 -113.5t-46 -113.5t-114 -46.5t-114 46.5t-46 113.5z" />
    <glyph glyph-name="uniF40C" unicode="&#xf40c;" 
d="M430 1692q0 -35 23.5 -58.5t58.5 -23.5t58.5 23.5t23.5 58.5t-23.5 58.5t-58.5 23.5t-58.5 -23.5t-23.5 -58.5zM309 1692q0 86 58.5 144t144.5 58t144.5 -58t58.5 -144t-58.5 -144.5t-144.5 -58.5t-144.5 58.5t-58.5 144.5z" />
    <glyph glyph-name="uniF40D" unicode="&#xf40d;" 
d="M772 1780l133 -99q-37 -74 -92 -120q-64 -58 -141 -58q-51 0 -140 35l-71 29q-82 30 -103 30q-39 0 -69 -30q-21 -21 -33 -49l-137 98q32 62 80 110q68 68 155 68q48 0 140 -35l79 -33q64 -26 99 -26q41 0 67 26q16 16 33 54z" />
    <glyph glyph-name="uniF40E" unicode="&#xf40e;" 
d="M561 0h135q-47 -32 -73 -61q-41 -46 -41 -89q0 -37 23.5 -62.5t68.5 -25.5q41 0 96 25l-29 -141q-58 -35 -137 -35q-92 0 -143 51.5t-51 122.5q0 70 53 133q45 52 98 82z" />
    <glyph glyph-name="uniF4C6" unicode="&#xf4c6;" horiz-adv-x="1269" 
d="M369 1366v-373q0 -41 2.5 -66.5t18 -61.5t46.5 -60q58 -45 195 -45q116 0 217 14v592h266v-1536q0 -145 -74 -221q-76 -78 -227 -78q-95 0 -174 18v230q52 -19 94 -19q55 0 84 29q31 33 31 139v617q-147 -15 -244 -15q-248 0 -364 88q-82 61 -110 144t-28 184v420h267z
" />
    <glyph glyph-name="uniF4C7" unicode="&#xf4c7;" horiz-adv-x="991" 
d="M86 887h250v-262q0 -68 31 -97q34 -32 127 -32q62 0 129 12v379h249v-1063q0 -169 -100 -240q-79 -55 -217 -55q-78 0 -141 18v222q51 -19 96 -19q66 0 94 45q19 33 19 123v385q-105 -20 -209 -20q-162 0 -248 82q-49 46 -64.5 96t-15.5 112v314z" />
    <glyph glyph-name="uniF4CC" unicode="&#xf4cc;" horiz-adv-x="1249" 
d="M4 1366h311l347 -688l292 688h291l-633 -1366h-290l190 381zM575 1491l-114 102l287 291l184 -143z" />
    <glyph glyph-name="uniF4CD" unicode="&#xf4cd;" horiz-adv-x="1101" 
d="M100 -469l326 602l-422 754h291l274 -504l246 504h283l-715 -1356h-283zM690 1434l180 -115l-307 -275l-114 82z" />
    <glyph glyph-name="dollar.fitted" unicode="&#xf5f5;" horiz-adv-x="989" 
d="M434 1567h168v-205q87 -6 168 -47q83 -45 139 -107l-135 -172q-91 111 -215 111q-92 0 -139 -49q-39 -39 -39 -97q0 -57 53 -96q35 -25 168 -84q12 -6 48.5 -21.5t55.5 -24.5t48.5 -24.5t52.5 -32.5t43 -36q104 -98 104 -254q0 -93 -34 -172.5t-89 -132.5
q-93 -93 -229 -119v-229h-168v225q-145 15 -260 94q-88 59 -149 150l153 157q55 -79 117 -122q79 -58 186 -58q101 0 156 53q51 51 51 127q0 70 -47 113q-29 29 -147 80q-2 1 -22 10t-26 11.5t-26.5 12t-29.5 14t-28.5 14.5t-30.5 17t-28.5 17t-29.5 19.5t-26 20.5t-26 22
q-51 47 -73.5 101t-22.5 134q0 147 92 250q88 97 217 125v205z" />
    <glyph glyph-name="Euro.fitted" unicode="&#xf5f6;" horiz-adv-x="1265" 
d="M1174 352v-299q-156 -84 -377 -84q-308 0 -471 178q-111 121 -133 285h-154l74 184h61q-9 68 0 129h-135l74 185h86q39 174 163 293q83 80 207 127t271 47q198 0 354 -90l-104 -224q-112 72 -267 72q-70 0 -127 -17t-92 -40.5t-61.5 -57t-39 -58.5t-20.5 -52h549
l-74 -185h-509q-7 -73 0 -129h473l-74 -184h-361q14 -58 48.5 -102t81.5 -69t99 -37.5t109 -12.5q222 0 349 141z" />
    <glyph glyph-name="cent.fitted" unicode="&#xf5f7;" horiz-adv-x="788" 
d="M403 1341h168v-190q89 -3 166 -45v-252q-73 90 -194 90q-104 0 -172 -65q-76 -72 -76 -197t76 -195q62 -59 168 -59q131 0 198 90v-254q-78 -40 -166 -43v-194h-168v190q-146 20 -247 125q-127 133 -127 342q0 211 135 346q101 101 239 125v186z" />
    <glyph glyph-name="sterling.fitted" unicode="&#xf5f8;" horiz-adv-x="1222" 
d="M344 504h-231v180h133q-76 136 -76 262q0 192 129 316q139 135 363 135q105 0 198.5 -34.5t153.5 -94.5q121 -121 121 -342v-25h-271q2 10 2 35q0 49 -15.5 96.5t-43.5 75.5q-55 55 -148 55q-98 0 -157 -59q-31 -31 -48.5 -78.5t-17.5 -93.5q0 -86 47 -182l33 -66h303
v-180h-246q15 -58 15 -103q0 -73 -25 -135l76 -26q167 -58 217 -58q53 0 83.5 32.5t41.5 78.5l182 -39q-16 -72 -55 -140t-92 -102q-66 -43 -164 -43q-48 0 -98.5 9.5t-70.5 16t-73 25.5q-167 54 -225 54q-108 0 -139 -92l-193 34q28 108 111 185q75 68 178 82q23 54 23 100
q0 52 -21 121z" />
    <glyph glyph-name="yen.fitted" unicode="&#xf5f9;" horiz-adv-x="1218" 
d="M885 1366h295l-265 -436h181v-185h-291l-74 -129h365v-184h-365v-432h-246v432h-364v184h364l-73 129h-291v185h180l-264 436h295l276 -479z" />
    <glyph glyph-name="florin.fitted" unicode="&#xf5fa;" horiz-adv-x="1128" 
d="M477 711h-123l33 176h123l49 266q31 176 119 264q96 99 254 99q97 0 178 -39l-41 -220q-57 31 -113 31q-52 0 -92 -35q-39 -37 -53 -123l-47 -243h221l-33 -176h-221l-94 -545q-28 -157 -61.5 -252.5t-102.5 -163.5q-121 -119 -356 -119q-49 0 -101 9l39 229q34 -6 66 -6
q105 0 164 53q41 37 63 107t41 182z" />
    <glyph glyph-name="uni20B4.fitted" unicode="&#xf5fb;" horiz-adv-x="1062" 
d="M246 1055l-140 182q71 61 170 106q125 54 261 54q89 0 163.5 -18.5t135.5 -75.5q90 -87 90 -209q0 -86 -54 -164h144v-185h-291l-133 -129h424v-184h-567q-37 -42 -37 -98q0 -60 49 -94q43 -29 108 -29q90 0 160 49q57 37 102 109l164 -181q-71 -90 -184 -153
q-126 -66 -287 -66q-172 0 -270 84q-102 87 -102 213q0 97 43 166h-152v184h283l133 129h-416v185h565q49 46 49 108q0 64 -45 101q-42 35 -106 35q-83 0 -164 -48q-55 -30 -96 -71z" />
    <glyph glyph-name="uni20B6.fitted" unicode="&#xf5fc;" horiz-adv-x="1116" 
d="M588 1366q126 0 208 -21t152 -83q139 -123 139 -334q0 -183 -112 -295q-125 -121 -346 -121h-172v-129h377v-184h-377v-199h-267v199h-143v184h143v129h-143v223h143v631h398zM457 1137v-402h108q36 0 57 1.5t56 11.5t61 30q74 59 74 160q0 99 -76 156q-61 43 -188 43
h-92z" />
    <glyph glyph-name="uni20B8.fitted" unicode="&#xf5fd;" horiz-adv-x="937" 
d="M909 856h-307v-856h-266v856h-307v229h880v-229zM909 1178h-880v188h880v-188z" />
    <glyph glyph-name="uniF639" unicode="&#xf639;" horiz-adv-x="1175" 
d="M588 -31q-104 0 -198 46.5t-168.5 133.5t-118.5 225.5t-44 309.5q0 137 29 254t79 200t117 142.5t144.5 88t159.5 28.5q104 0 197.5 -46.5t168 -133.5t118.5 -225.5t44 -309.5q0 -170 -44 -308t-118.5 -225t-168 -133.5t-197.5 -46.5zM588 1167q-46 0 -90 -26.5
t-83.5 -81t-64 -152t-24.5 -223.5q0 -103 16 -187t42.5 -138t61 -91t70 -53t72.5 -16t72.5 16t70 53t61 91t42.5 138t16 187q0 126 -24.5 223.5t-64 152t-83.5 81t-90 26.5z" />
    <glyph glyph-name="uniF63A" unicode="&#xf63a;" horiz-adv-x="1114" 
d="M53 0l402 457q194 225 233 284q80 119 80 220q0 91 -58 148.5t-145 57.5q-99 0 -156.5 -66.5t-60.5 -160.5h-274q9 207 142 332t337 125q115 0 208.5 -37t151.5 -99t89.5 -138.5t31.5 -159.5q0 -61 -17 -121.5t-38 -103.5t-61.5 -97.5t-63.5 -80.5t-68 -75l-235 -256h493
v-229h-991z" />
    <glyph glyph-name="uniF63B" unicode="&#xf63b;" horiz-adv-x="1085" 
d="M352 1010h-250q18 181 141.5 284t303.5 103q196 0 312 -102.5t116 -274.5q0 -199 -158 -287q23 -9 43.5 -20.5t53 -39t55.5 -60.5t40 -87t17 -118q0 -204 -138.5 -321.5t-348.5 -117.5q-200 0 -337.5 115.5t-154.5 308.5h266q12 -87 72 -140.5t156 -53.5q107 0 163 65
t56 152q0 39 -12.5 75.5t-38.5 68t-71.5 50.5t-105.5 19h-34v192h37q92 0 139 54.5t47 132.5q0 82 -49 131t-131 49q-75 0 -130 -47t-59 -131z" />
    <glyph glyph-name="uniF63C" unicode="&#xf63c;" horiz-adv-x="1140" 
d="M930 1366v-895h160v-213h-160v-258h-250v258h-668v119l678 989h240zM328 471h352v520z" />
    <glyph glyph-name="uniF63D" unicode="&#xf63d;" horiz-adv-x="1081" 
d="M956 1366v-229h-454l-49 -215q54 8 92 8q106 0 199 -37.5t153 -99.5q121 -123 121 -328q0 -217 -139 -356q-78 -78 -168 -109t-207 -31q-177 0 -295 58q-92 45 -166 116l88 230q60 -79 141 -123q94 -51 199 -51q132 0 209 82q72 76 72 198q0 117 -80 189q-79 69 -213 69
q-148 0 -295 -88l162 717h630z" />
    <glyph glyph-name="uniF63E" unicode="&#xf63e;" horiz-adv-x="1120" 
d="M612 1403l215 -105l-331 -432q75 33 149 33q79 0 161 -30.5t140 -86.5q57 -54 93 -139.5t36 -187.5q0 -194 -125 -330q-82 -89 -177 -122.5t-212 -33.5q-120 0 -215 30.5t-174 109.5q-133 133 -133 331q0 115 45 216t127 210zM557 182q108 0 178 70q74 74 74 180
q0 116 -76 189q-68 65 -176 65q-107 0 -178 -74q-74 -77 -74 -178q0 -114 76 -184q72 -68 176 -68z" />
    <glyph glyph-name="uniF63F" unicode="&#xf63f;" horiz-adv-x="1134" 
d="M80 59l629 1078h-635v229h1052l-821 -1407z" />
    <glyph glyph-name="uniF640" unicode="&#xf640;" horiz-adv-x="1069" 
d="M766 713q113 -36 178.5 -128.5t65.5 -211.5q0 -173 -129.5 -288.5t-345.5 -115.5t-346 115.5t-130 288.5q0 119 65.5 211.5t178.5 128.5q-86 42 -141.5 119t-55.5 184q0 159 113 270t316 111q103 0 186.5 -31.5t135 -85t79 -121t27.5 -143.5q0 -107 -55.5 -184
t-141.5 -119zM535 823q85 0 137.5 53t52.5 138t-52.5 137.5t-137.5 52.5t-138 -52.5t-53 -137.5t53 -138t138 -53zM535 178q90 0 149 60t59 153t-59 153t-149 60t-149.5 -60t-59.5 -153t59.5 -153t149.5 -60z" />
    <glyph glyph-name="uniF641" unicode="&#xf641;" horiz-adv-x="1120" 
d="M508 -37l-215 105l325 426q-83 -27 -145 -27q-76 0 -159 30.5t-140 86.5q-57 54 -93 139.5t-36 187.5q0 194 125 330q82 89 177 122.5t212 33.5q120 0 215 -30.5t174 -109.5q133 -133 133 -331q0 -115 -45 -216t-127 -210zM563 1184q-108 0 -178 -70q-74 -74 -74 -180
q0 -116 76 -189q68 -65 176 -65q107 0 178 74q74 77 74 178q0 112 -76 184q-72 68 -176 68z" />
    <glyph glyph-name="uniF6BA" unicode="&#xf6ba;" horiz-adv-x="737" 
d="M102 584v229h533v-229h-533z" />
    <glyph glyph-name="uniF6BB" unicode="&#xf6bb;" horiz-adv-x="1310" 
d="M143 592v213h1024v-213h-1024z" />
    <glyph glyph-name="uniF6BC" unicode="&#xf6bc;" horiz-adv-x="1720" 
d="M143 592v213h1434v-213h-1434z" />
    <glyph glyph-name="uniF6C3" unicode="&#xf6c3;" 
d="M328 -528l139 426l229 -33l-204 -418z" />
    <glyph glyph-name="uniF6C9" unicode="&#xf6c9;" 
d="M463 1491l-115 102l287 291l184 -143z" />
    <glyph glyph-name="uniF6CA" unicode="&#xf6ca;" 
d="M512 1724l246 181l123 -131l-369 -275l-369 275l123 131z" />
    <glyph glyph-name="uniF6CB" unicode="&#xf6cb;" 
d="M135 1661q0 60 44 103.5t104 43.5t103.5 -43.5t43.5 -103.5t-43.5 -104t-103.5 -44t-104 44t-44 104zM594 1661q0 60 43.5 103.5t103.5 43.5t104 -43.5t44 -103.5t-44 -104t-104 -44t-103.5 44t-43.5 104z" />
    <glyph glyph-name="uniF6CE" unicode="&#xf6ce;" 
d="M561 1491l-356 250l184 143l287 -291z" />
    <glyph glyph-name="uniF6CF" unicode="&#xf6cf;" 
d="M406 1886l184 -121l-295 -274l-115 82zM815 1884l184 -119l-294 -274l-115 82z" />
    <glyph glyph-name="uniF6D0" unicode="&#xf6d0;" 
d="M137 1526v176h750v-176h-750z" />
    <glyph glyph-name="uniF6D1" unicode="&#xf6d1;" 
d="M143 1729l185 73q15 -40 41.5 -66.5t57.5 -36.5t49.5 -13t35.5 -3t35.5 3t49.5 13t57.5 36.5t41.5 66.5l185 -73q-41 -107 -136 -168.5t-233 -61.5t-233 61.5t-136 168.5z" />
    <glyph glyph-name="uniF6D4" unicode="&#xf6d4;" 
d="M684 1331l164 -78q-21 -60 -61 -104t-89 -66t-94.5 -31.5t-91.5 -9.5t-91.5 9.5t-94.5 31.5t-89 66t-61 104l164 78q12 -56 60 -92.5t112 -36.5q60 0 109 33.5t63 95.5z" />
    <glyph glyph-name="uniF6DC" unicode="&#xf6dc;" horiz-adv-x="581" 
d="M229 0v1137h-196v229h463v-1366h-267z" />
    <glyph glyph-name="uniF6DE" unicode="&#xf6de;" horiz-adv-x="1290" 
d="M106 365v213h1076v-213h-1076z" />
    <glyph glyph-name="nbspace" horiz-adv-x="477" 
 />
    <glyph glyph-name="hyphenminus" horiz-adv-x="737" 
d="M102 356v230h533v-230h-533z" />
    <glyph glyph-name="dotlessi1" horiz-adv-x="487" 
d="M119 887h250v-887h-250v887z" />
    </font>
</defs>
</svg>
